SplineFontDB: 1.0
FontName: Norasi-Oblique
FullName: Norasi Oblique
FamilyName: Norasi
Weight: Book
Copyright: Copyright © 1999, The National Font Project (v.beta ). Yannis Haralambous, Virach Sornlertlamvanich and Anutara Tantraporn. All rights reserved.\n\nModified by TLWG
Version: 1.1 : May 12, 2003
ItalicAngle: -12
UnderlinePosition: -100
UnderlineWidth: 50
Ascent: 800
Descent: 200
NeedsXUIDChange: 1
FSType: 0
PfmFamily: 17
TTFWeight: 400
TTFWidth: 5
Panose: 2 0 5 6 0 0 0 2 0 4
LineGap: 20
VLineGap: 0
ScriptLang: 2
 1 DFLT 1 dflt 
 1 thai 1 dflt 
LangName: 1033 "" "" "" "TheOmegaProject(v.beta1).YannisHaralambous,VirachSornlertlamvanichandAnutaraTantraporn: Omega3: 1999" "" "" "" "Norasi Italic is a trademark of the The National Font Project (v.beta ). Yannis Haralambous, Virach Sornlertlamvanich and Anutara Tantraporn." "" "Yannis Haralambous, Virach Sornlertlamvanich and Anutara Tantraporn" "This font was developed under National Font Project at NECTEC as to be a free licensed font for Thai users and developers." 
Encoding: compacted
OldEncoding: iso8859_1
DisplaySize: -72
AntiAlias: 1
FitToEm: 1
WinInfo: 168 8 10
BeginPrivate: 4
BlueValues 38 [-8 0 340 347 376 385 452 461 516 517]
OtherBlues 11 [-163 -151]
ForceBold 5 false
BlueScale 8 0.039625
EndPrivate
BeginChars: 258 225
StartChar: exclam
Encoding: 33 33 2
OldEncoding: 33
Width: 255
Flags: HW
HStem: -4 21<115.5 138> 441 20<214.5 238.5>
Fore
251 406 m 1
 245 381 l 1
 159 120 l 1
 150 120 l 1
 166 265 171 334 179 404 c 1
 187 442 203 461 226 461 c 0
 251 461 259 444 252 410 c 2
 251 406 l 1
173 28 m 0
 169 9 148 -4 128 -4 c 0
 103 -4 94 7 99 28 c 0
 104 50 118 62 143 65 c 1
 167 65 177 53 173 28 c 0
EndSplineSet
Back
250.977 405.762 m 1
 245.117 380.859 l 1
 159.18 120.117 l 1
 149.902 120.117 l 1
 153.809 155.762 157.715 187.988 160.645 215.332 c 0
 163.574 243.164 166.016 268.066 167.969 290.039 c 0
 169.922 312.012 171.875 332.031 173.34 350.586 c 0
 175.293 368.652 176.758 386.719 179.199 403.809 c 1
 187.012 441.895 202.637 460.938 226.074 460.938 c 0
 250.488 460.938 259.277 443.848 251.953 410.156 c 2
 250.977 405.762 l 1
172.852 27.832 m 0
 170.898 18.5547 165.527 11.2305 156.738 4.88281 c 0
 147.461 -0.976562 138.184 -3.90625 127.93 -3.90625 c 0
 103.516 -3.90625 93.75 6.83594 99.1211 27.832 c 0
 103.516 49.8047 118.164 62.5 143.066 64.9414 c 1
 166.992 64.9414 176.758 52.7344 172.852 27.832 c 0
EndSplineSet
EndChar
StartChar: quotedbl
Encoding: 34 34 3
OldEncoding: 34
Width: 315
Flags: HW
HStem: 290 21<151 165 165 165 269 283 283 283> 441 20<184 203.5 302 321.5>
Fore
336 432 m 0
 335 427 327 404 312 365 c 0
 297 326 287 302 283 290 c 1
 269 290 l 1
 274 407 273 424 276 432 c 0
 280 451 292 461 312 461 c 0
 331 461 339 451 336 432 c 0
218 432 m 0
 217 427 209 404 194 365 c 0
 179 326 169 302 165 290 c 1
 151 290 l 1
 156 407 155 424 158 432 c 0
 162 451 174 461 194 461 c 0
 213 461 221 451 218 432 c 0
EndSplineSet
Back
335.938 432.129 m 0
 335.449 426.758 327.148 404.297 312.012 365.234 c 0
 304.688 345.703 298.34 329.59 293.457 317.383 c 0
 288.574 305.176 285.156 295.898 283.203 290.039 c 1
 269.043 290.039 l 1
 270.508 319.336 271.484 342.773 271.973 360.352 c 0
 272.461 377.93 272.949 392.09 273.438 401.855 c 0
 273.926 412.109 273.926 418.945 274.414 422.852 c 0
 274.902 426.758 275.391 430.176 275.879 432.129 c 0
 279.785 451.172 291.992 460.938 312.012 460.938 c 0
 330.566 460.938 338.867 451.172 335.938 432.129 c 0
217.773 432.129 m 0
 217.285 426.758 209.473 404.297 193.848 365.234 c 0
 186.523 345.703 180.664 329.59 175.293 317.383 c 0
 170.41 305.176 166.992 295.898 165.039 290.039 c 1
 150.879 290.039 l 1
 152.344 319.336 153.32 342.773 153.809 360.352 c 0
 154.785 377.93 155.273 392.09 155.273 401.855 c 0
 155.762 412.109 156.25 418.945 156.738 422.852 c 0
 156.738 426.758 157.227 430.176 158.203 432.129 c 0
 162.109 451.172 173.828 460.938 193.848 460.938 c 0
 212.891 460.938 220.703 451.172 217.773 432.129 c 0
EndSplineSet
EndChar
StartChar: numbersign
Encoding: 35 35 4
OldEncoding: 35
Width: 378
Flags: HW
HStem: 0 186<66 106 106 106 199 239 239 239> 148 38<55 119 119 119 174 251 251 251 306 365 365 365> 277 38<101 168 168 168 222 299 299 299 352 410 410 410> 277 175<232 271 362 401>
Fore
410 277 m 1
 339 277 l 1
 306 186 l 1
 374 186 l 1
 365 148 l 1
 290 148 l 1
 239 0 l 1
 199 0 l 1
 251 148 l 1
 159 148 l 1
 106 0 l 1
 66 0 l 1
 119 148 l 1
 46 148 l 1
 55 186 l 1
 135 186 l 1
 168 277 l 1
 93 277 l 1
 101 315 l 1
 182 315 l 1
 232 452 l 1
 271 452 l 1
 222 315 l 1
 313 315 l 1
 362 452 l 1
 401 452 l 1
 352 315 l 1
 418 315 l 1
 410 277 l 1
299 277 m 1
 208 277 l 1
 174 186 l 1
 266 186 l 1
 299 277 l 1
EndSplineSet
Back
410.156 276.855 m 1
 338.867 276.855 l 1
 306.152 186.035 l 1
 374.023 186.035 l 1
 365.234 147.949 l 1
 290.039 147.949 l 1
 238.77 0 l 1
 199.219 0 l 1
 250.977 147.949 l 1
 159.18 147.949 l 1
 105.957 0 l 1
 65.918 0 l 1
 119.141 147.949 l 1
 45.8984 147.949 l 1
 55.1758 186.035 l 1
 134.766 186.035 l 1
 167.969 276.855 l 1
 92.7734 276.855 l 1
 101.074 314.941 l 1
 182.129 314.941 l 1
 231.934 452.148 l 1
 270.996 452.148 l 1
 222.168 314.941 l 1
 312.988 314.941 l 1
 361.816 452.148 l 1
 400.879 452.148 l 1
 352.051 314.941 l 1
 417.969 314.941 l 1
 410.156 276.855 l 1
298.828 276.855 m 1
 208.008 276.855 l 1
 173.828 186.035 l 1
 266.113 186.035 l 1
 298.828 276.855 l 1
EndSplineSet
EndChar
StartChar: dollar
Encoding: 36 36 5
OldEncoding: 36
Width: 386
Flags: HW
HStem: -59 21<160 184 184 184> 0 20<149.5 173> 489 20<281 305 281 281>
Fore
358 122 m 0
 343 53 289 13 197 0 c 1
 184 -59 l 1
 160 -59 l 1
 173 0 l 1
 126 0 85 12 51 36 c 1
 70 127 l 1
 80 127 l 1
 81 56 114 20 177 20 c 1
 219 217 l 1
 184 240 160 259 145 275 c 1
 125 300 118 328 124 358 c 0
 131 391 149 417 180 437 c 0
 207 456 237 465 272 465 c 1
 281 509 l 1
 305 509 l 1
 296 465 l 1
 351 455 l 2
 372 451 388 442 400 428 c 1
 383 350 l 1
 373 350 l 1
 375 408 348 440 292 446 c 1
 255 274 l 1
 312 234 l 1
 342 206 l 1
 360 183 365 155 358 122 c 0
233 285 m 1
 267 446 l 1
 218 438 188 413 179 372 c 0
 176 355 179 340 189 325 c 1
 233 285 l 1
300 106 m 0
 304 128 300 147 288 164 c 0
 281 173 266 186 241 205 c 1
 201 20 l 1
 256 29 289 57 300 106 c 0
EndSplineSet
MinimumDistance: x7,-1 
Back
357.91 122.07 m 0
 342.773 53.2227 289.062 12.6953 196.777 0 c 1
 184.082 -59.082 l 1
 160.156 -59.082 l 1
 172.852 0 l 1
 125.488 0 84.9609 12.207 50.7812 36.1328 c 1
 69.8242 126.953 l 1
 80.0781 126.953 l 1
 81.543 55.6641 113.77 20.0195 176.758 20.0195 c 1
 219.238 216.797 l 1
 201.66 228.516 187.012 238.77 174.316 248.535 c 0
 162.109 258.301 152.344 267.09 145.02 274.902 c 0
 125 300.293 118.164 328.125 124.023 357.91 c 0
 130.859 390.625 149.414 416.992 180.176 437.012 c 0
 206.543 455.566 237.305 464.844 271.973 464.844 c 1
 280.762 508.789 l 1
 305.176 508.789 l 1
 295.898 464.844 l 1
 351.074 455.078 l 2
 371.582 451.172 388.184 441.895 399.902 428.223 c 1
 382.812 350.098 l 1
 373.047 350.098 l 1
 375 408.203 348.145 439.941 291.992 445.801 c 1
 254.883 273.926 l 1
 312.012 233.887 l 1
 341.797 206.055 l 1
 359.863 183.105 365.234 155.273 357.91 122.07 c 0
232.91 285.156 m 1
 267.09 445.801 l 1
 217.773 437.988 188.477 413.574 179.199 372.07 c 0
 175.781 355.469 179.199 339.844 188.965 325.195 c 1
 232.91 285.156 l 1
299.805 105.957 m 0
 304.199 127.93 299.805 147.461 288.086 164.062 c 0
 281.25 172.852 265.625 186.523 241.211 205.078 c 1
 201.172 20.0195 l 1
 255.859 28.8086 288.574 57.1289 299.805 105.957 c 0
EndSplineSet
EndChar
StartChar: percent
Encoding: 37 37 6
OldEncoding: 37
Width: 586
Flags: HW
HStem: -7 21<142 175 175 175> 0 21<403 422.5> 202 24<175 190.5> 237 23<510.5 540.5> 237 189 453 20<519 547 519 519>
Fore
547 473 m 1
 175 -7 l 1
 142 -7 l 1
 478 426 l 1
 450 414 424 408 399 408 c 0
 378 408 363 410 354 415 c 1
 353 384 l 1
 346 353 332 323 313 295 c 0
 308 288 300 278 289 266 c 0
 250 223 211 202 170 202 c 0
 119 202 97 245 108 297 c 0
 117 337 140 375 177 410 c 0
 216 445 255 463 293 463 c 0
 308 463 325 457 342 444 c 1
 363 432 383 426 400 426 c 0
 437 426 476 442 519 473 c 1
 547 473 l 1
581 183 m 0
 572 140 551 100 518 63 c 0
 482 21 443 0 402 0 c 0
 346 0 325 40 336 96 c 0
 345 135 369 172 406 207 c 0
 445 242 483 260 521 260 c 0
 572 260 592 234 581 183 c 0
335 387 m 0
 337 394 337 405 336 420 c 1
 324 423 313 428 303 435 c 2
 296 441 l 1
 293 442 l 2
 268 442 240 420 208 377 c 0
 180 338 163 305 157 278 c 0
 150 243 161 226 189 226 c 0
 220 226 252 246 284 285 c 0
 311 319 328 353 335 387 c 0
562 178 m 0
 569 210 556 237 525 237 c 0
 496 237 465 214 432 167 c 0
 405 130 390 99 385 74 c 0
 377 39 388 21 418 21 c 0
 449 21 479 40 510 79 c 0
 537 112 555 145 562 178 c 0
EndSplineSet
MinimumDistance: x30,-1 
Back
546.875 473.145 m 1
 174.805 -6.83594 l 1
 142.09 -6.83594 l 1
 478.027 425.781 l 1
 450.195 414.062 423.828 408.203 398.926 408.203 c 0
 377.441 408.203 362.793 410.156 354.004 415.039 c 1
 353.027 383.789 l 1
 345.703 352.539 332.52 323.242 312.988 294.922 c 0
 310.547 291.504 307.129 287.598 303.223 282.715 c 0
 298.828 277.344 294.434 271.973 289.062 266.113 c 0
 250.488 223.145 210.449 202.148 169.922 202.148 c 0
 144.531 202.148 126.465 211.426 116.211 229.98 c 0
 105.469 248.535 102.539 270.996 107.91 296.875 c 0
 116.699 336.914 139.648 374.512 176.758 410.156 c 0
 216.309 445.312 254.883 462.891 292.969 462.891 c 0
 308.105 462.891 324.707 456.543 341.797 443.848 c 1
 363.281 432.129 382.812 425.781 399.902 425.781 c 0
 436.523 425.781 476.562 441.895 519.043 473.145 c 1
 546.875 473.145 l 1
581.055 183.105 m 0
 572.266 140.137 551.27 100.098 518.066 62.9883 c 0
 481.934 20.9961 443.359 0 401.855 0 c 0
 374.023 0 354.492 8.78906 344.238 26.8555 c 0
 333.496 44.9219 330.566 67.8711 335.938 96.1914 c 0
 345.215 135.254 368.652 172.363 405.762 207.031 c 0
 444.824 242.188 482.91 259.766 520.996 259.766 c 0
 572.266 259.766 592.285 234.375 581.055 183.105 c 0
334.961 387.207 m 0
 336.914 393.555 337.402 404.785 335.938 419.922 c 1
 324.219 423.34 312.988 428.223 303.223 435.059 c 2
 295.898 440.918 l 1
 292.969 441.895 l 2
 268.555 441.895 240.234 420.41 208.008 376.953 c 0
 180.176 338.379 163.086 305.176 157.227 277.832 c 0
 150.391 243.164 161.133 226.074 188.965 226.074 c 0
 220.215 226.074 251.953 245.605 284.18 285.156 c 0
 311.523 318.848 328.125 353.027 334.961 387.207 c 0
562.012 178.223 m 0
 565.43 193.848 563.965 208.008 557.617 219.727 c 0
 551.27 230.957 540.527 236.816 524.902 236.816 c 0
 495.605 236.816 464.844 213.867 432.129 166.992 c 0
 405.273 129.883 389.648 98.6328 384.766 74.2188 c 0
 376.953 38.5742 388.184 20.9961 417.969 20.9961 c 0
 448.73 20.9961 479.492 40.5273 509.766 79.1016 c 0
 537.109 111.816 554.688 144.531 562.012 178.223 c 0
EndSplineSet
EndChar
StartChar: ampersand
Encoding: 38 38 7
OldEncoding: 38
Width: 572
Flags: HW
HStem: -7 33 440 21<334 368>
Fore
539 68 m 1
 534 56 522 43 507 28 c 1
 480 5 451 -7 420 -7 c 0
 385 -7 350 13 316 53 c 1
 281 28 l 1
 254 13 l 1
 220 0 186 -7 153 -7 c 0
 82 -7 47 27 62 98 c 0
 73 151 118 199 199 242 c 1
 230 257 l 1
 224 313 l 1
 225 354 l 1
 238 413 293 461 353 461 c 0
 404 461 440 430 429 379 c 0
 422 350 407 326 376 303 c 0
 361 292 335 279 298 262 c 1
 313 210 334 163 359 122 c 1
 411 175 440 216 446 245 c 0
 450 266 438 276 409 276 c 1
 412 291 l 1
 561 291 l 1
 558 276 l 1
 543 274 530 271 521 267 c 0
 511 263 499 253 484 236 c 1
 461 205 l 1
 432 169 402 134 370 102 c 1
 381 78 397 59 425 47 c 1
 432 42 443 40 458 40 c 0
 474 40 488 43 501 50 c 0
 508 53 515 61 530 76 c 1
 539 68 l 1
393 382 m 0
 400 414 384 440 352 440 c 0
 316 440 294 420 286 380 c 0
 280 352 282 320 292 284 c 1
 351 312 385 345 393 382 c 0
304 71 m 1
 279 110 256 165 234 234 c 1
 198 213 l 1
 174 194 l 1
 150 171 135 147 130 123 c 0
 119 72 147 26 198 26 c 0
 227 26 262 41 304 71 c 1
EndSplineSet
Back
539.062 67.8711 m 1
 536.133 62.0117 532.227 55.6641 526.367 48.8281 c 0
 520.996 42.4805 514.16 35.1562 506.836 27.832 c 0
 479.492 4.88281 450.684 -6.83594 419.922 -6.83594 c 0
 384.766 -6.83594 350.098 13.1836 315.918 53.2227 c 1
 280.762 27.832 l 1
 253.906 13.1836 l 1
 220.215 -0.488281 186.523 -6.83594 152.832 -6.83594 c 0
 117.676 -6.83594 91.7969 1.46484 75.6836 19.043 c 0
 59.082 36.1328 54.6875 62.5 62.0117 98.1445 c 0
 72.7539 151.367 118.164 199.219 199.219 242.188 c 1
 229.98 256.836 l 1
 224.121 312.988 l 1
 225.098 354.004 l 1
 228.516 368.652 233.887 382.324 242.188 395.508 c 0
 250 408.691 259.766 419.922 271.484 429.688 c 0
 283.203 438.965 295.898 446.777 310.059 452.637 c 0
 324.219 458.008 338.379 460.938 353.027 460.938 c 0
 378.418 460.938 398.438 453.613 414.062 438.965 c 0
 429.199 424.316 434.57 404.297 429.199 378.906 c 0
 425.781 364.258 419.922 351.074 411.621 338.379 c 0
 403.32 326.172 391.113 314.453 375.977 303.223 c 0
 368.652 297.852 358.398 291.504 345.703 285.156 c 0
 332.52 278.32 316.895 270.508 297.852 262.207 c 1
 305.176 235.84 313.965 211.426 324.707 187.988 c 0
 334.961 164.551 346.191 142.578 358.887 122.07 c 1
 411.133 175.293 439.941 216.309 445.801 245.117 c 0
 450.195 265.625 437.5 275.879 409.18 275.879 c 1
 412.109 291.016 l 1
 561.035 291.016 l 1
 558.105 275.879 l 1
 542.48 273.926 530.273 270.996 520.996 267.09 c 0
 511.23 263.184 498.535 252.441 483.887 235.84 c 1
 460.938 205.078 l 1
 446.289 187.012 431.641 169.434 416.504 151.855 c 0
 401.367 134.766 386.23 118.164 370.117 102.051 c 1
 375.488 89.8438 382.324 79.1016 391.113 69.8242 c 0
 399.902 60.5469 411.133 53.2227 424.805 46.875 c 0
 432.129 42.4805 443.359 40.0391 458.008 40.0391 c 0
 474.121 40.0391 488.281 43.457 500.977 49.8047 c 0
 504.395 51.2695 508.301 54.1992 512.695 58.5938 c 0
 516.602 62.9883 522.461 68.8477 529.785 76.1719 c 1
 539.062 67.8711 l 1
393.066 381.836 m 0
 396.484 397.949 394.531 411.621 387.207 422.852 c 0
 379.883 434.57 368.164 439.941 352.051 439.941 c 0
 315.918 439.941 293.945 419.922 286.133 379.883 c 0
 279.785 352.051 282.227 319.824 291.992 284.18 c 1
 351.562 312.012 384.766 344.727 393.066 381.836 c 0
304.199 70.8008 m 1
 279.297 110.352 255.859 164.551 233.887 233.887 c 1
 198.242 212.891 l 1
 173.828 193.848 l 1
 149.902 170.898 135.254 146.973 129.883 123.047 c 0
 127.441 110.352 126.953 98.1445 128.906 86.4258 c 0
 130.859 74.707 134.766 64.4531 141.113 55.6641 c 0
 146.973 46.3867 154.785 39.5508 164.551 34.1797 c 0
 174.316 28.8086 185.547 25.8789 198.242 25.8789 c 0
 226.562 25.8789 262.207 41.0156 304.199 70.8008 c 1
EndSplineSet
EndChar
StartChar: quotesingle
Encoding: 39 39 8
OldEncoding: 39
Width: 163
Flags: HW
HStem: 303 21<117 117> 453 20<176 182>
Fore
217 406 m 0
 213 389 200 368 178 345 c 1
 158 326 138 312 117 303 c 1
 114 316 l 1
 158 341 182 366 187 391 c 0
 188 397 186 400 179 400 c 2
 171 399 l 1
 162 398 l 2
 133 398 121 410 126 433 c 0
 131 456 148 470 176 473 c 0
 188 473 198 469 207 461 c 1
 219 448 222 430 217 406 c 0
EndSplineSet
Back
216.797 405.762 m 0
 212.891 388.672 200.195 368.164 178.223 345.215 c 0
 158.203 325.684 137.695 311.523 117.188 303.223 c 1
 113.77 315.918 l 1
 158.203 341.309 182.129 366.211 187.012 391.113 c 0
 188.477 396.973 185.547 399.902 179.199 399.902 c 2
 170.898 398.926 l 1
 162.109 397.949 l 2
 132.812 397.949 120.605 409.668 125.977 433.105 c 0
 131.348 456.543 147.949 469.727 175.781 473.145 c 1
 187.988 473.145 198.242 469.238 207.031 460.938 c 0
 219.238 448.242 222.168 430.176 216.797 405.762 c 0
EndSplineSet
EndChar
StartChar: parenleft
Encoding: 40 40 9
OldEncoding: 40
Width: 257
Flags: HW
HStem: -122 21<200 200> 453 20<329 329>
Fore
211 -111 m 1
 200 -122 l 1
 151 -93 118 -44 95 27 c 0
 91 42 87 54 86 67 c 0
 82 100 85 138 95 183 c 0
 121 306 199 402 329 473 c 1
 333 462 l 1
 290 433 258 405 236 377 c 0
 196 324 168 261 156 188 c 1
 141 105 l 1
 138 85 137 63 139 40 c 0
 142 -26 166 -76 211 -111 c 1
EndSplineSet
Back
210.938 -110.84 m 1
 200.195 -122.07 l 1
 175.293 -107.422 154.297 -87.8906 137.695 -62.9883 c 0
 120.605 -38.5742 106.445 -8.30078 95.2148 26.8555 c 0
 92.7734 34.1797 91.3086 41.0156 89.3555 47.3633 c 0
 87.8906 53.7109 86.4258 60.5469 85.9375 66.8945 c 0
 82.0312 99.6094 84.9609 138.184 95.2148 183.105 c 0
 121.094 305.664 199.219 402.344 329.102 473.145 c 1
 333.008 461.914 l 1
 290.527 433.105 257.812 404.785 235.84 376.953 c 0
 215.82 350.098 199.219 321.289 185.547 290.039 c 0
 171.875 258.789 162.109 224.609 155.762 187.988 c 1
 141.113 104.98 l 1
 137.695 84.9609 137.207 63.4766 139.16 40.0391 c 0
 141.602 -25.8789 165.527 -76.1719 210.938 -110.84 c 1
EndSplineSet
EndChar
StartChar: parenright
Encoding: 41 41 10
OldEncoding: 41
Width: 257
Flags: HW
HStem: -122 21<23 23> 453 20<152 152>
Fore
256 166 m 0
 231 45 146 -58 23 -122 c 1
 18 -111 l 1
 93 -60 131 -16 163 56 c 0
 176 86 187 121 195 161 c 0
 210 225 214 274 213 309 c 1
 208 377 183 428 140 462 c 1
 152 473 l 1
 198 444 230 401 249 342 c 0
 267 286 269 227 256 166 c 0
EndSplineSet
Back
255.859 166.016 m 0
 243.164 105.469 216.797 50.293 175.781 0.488281 c 0
 135.254 -49.3164 84.4727 -89.8438 22.9492 -122.07 c 1
 18.0664 -110.84 l 1
 36.6211 -98.1445 53.2227 -85.9375 67.3828 -73.7305 c 0
 82.0312 -61.0352 94.7266 -48.3398 106.445 -35.6445 c 0
 118.164 -22.4609 128.418 -8.30078 137.695 6.34766 c 0
 146.484 21.4844 154.785 38.0859 163.086 56.1523 c 0
 176.27 85.9375 187.012 121.094 194.824 161.133 c 0
 202.148 192.871 207.52 221.191 209.961 246.094 c 0
 212.891 270.508 213.867 291.504 212.891 309.082 c 0
 207.52 376.953 183.105 428.223 140.137 461.914 c 1
 151.855 473.145 l 1
 198.242 444.336 230.469 400.879 249.023 341.797 c 0
 267.09 286.133 269.531 227.539 255.859 166.016 c 0
EndSplineSet
EndChar
StartChar: asterisk
Encoding: 42 42 11
OldEncoding: 42
Width: 386
Flags: HW
HStem: 185 21<227 235> 453 20<291.5 308>
Fore
381 270 m 0
 378 253 368 245 351 245 c 0
 342 245 331 255 317 276 c 0
 301 299 287 312 276 317 c 2
 272 319 l 1
 271 314 l 1
 264 289 263 266 266 246 c 1
 270 215 l 1
 266 198 254 188 235 185 c 1
 219 185 213 194 217 213 c 1
 234 251 l 1
 247 278 252 294 255 301 c 1
 258 314 l 1
 258 319 l 1
 220 296 l 1
 196 276 l 1
 173 255 l 1
 164 249 155 246 146 246 c 0
 131 246 124 253 127 268 c 0
 130 283 145 294 170 300 c 0
 209 310 238 320 256 330 c 1
 249 335 l 1
 247 338 227 345 189 356 c 0
 162 365 150 376 153 390 c 0
 154 396 158 402 163 407 c 0
 166 410 172 413 181 414 c 0
 192 414 202 406 212 391 c 0
 226 368 243 351 263 340 c 1
 265 349 l 2
 268 362 268 378 267 399 c 0
 264 422 265 437 268 446 c 0
 272 464 283 473 300 473 c 0
 316 473 322 464 318 446 c 1
 301 408 l 1
 288 381 281 364 280 357 c 1
 276 339 l 1
 282 342 l 2
 299 351 319 366 343 388 c 0
 363 406 377 415 386 415 c 0
 404 415 411 407 407 390 c 0
 404 378 397 369 387 364 c 1
 346 355 l 2
 321 350 299 341 280 329 c 1
 284 325 l 1
 311 311 l 1
 355 300 l 2
 376 295 385 285 381 270 c 0
EndSplineSet
Back
380.859 270.02 m 0
 378.418 253.418 368.164 245.117 351.074 245.117 c 0
 342.285 245.117 331.055 255.371 316.895 275.879 c 0
 309.082 287.109 301.27 296.387 294.434 303.223 c 0
 287.598 309.57 281.25 314.453 275.879 316.895 c 2
 271.973 318.848 l 1
 270.996 313.965 l 2
 267.578 301.27 265.625 289.551 265.137 277.832 c 0
 264.16 266.602 264.648 255.859 266.113 246.094 c 2
 270.02 214.844 l 1
 266.113 197.754 254.395 187.5 234.863 185.059 c 1
 219.238 185.059 212.891 194.336 216.797 212.891 c 1
 233.887 250.977 l 1
 240.723 264.16 245.605 275.391 248.535 283.691 c 0
 251.465 291.992 253.906 297.852 254.883 300.781 c 1
 257.812 313.965 l 1
 257.812 318.848 l 1
 220.215 295.898 l 1
 195.801 275.879 l 1
 172.852 254.883 l 1
 164.551 249.023 155.273 246.094 145.996 246.094 c 0
 130.859 246.094 124.512 253.418 126.953 268.066 c 0
 130.371 283.203 144.531 293.945 169.922 299.805 c 0
 209.473 310.059 237.793 319.824 255.859 330.078 c 1
 249.023 334.961 l 2
 247.07 337.891 227.051 344.727 188.965 355.957 c 0
 162.109 364.746 150.391 375.977 152.832 390.137 c 0
 154.297 395.996 157.715 401.855 163.086 407.227 c 0
 166.504 410.156 172.363 412.598 181.152 414.062 c 0
 191.895 414.062 202.148 406.25 211.914 391.113 c 0
 226.074 368.164 243.164 351.562 263.184 339.844 c 1
 265.137 349.121 l 2
 266.113 355.469 267.09 362.793 267.578 371.094 c 0
 268.066 378.906 267.578 388.184 267.09 398.926 c 0
 265.625 410.156 265.137 419.922 265.625 427.734 c 0
 265.625 435.059 266.602 441.406 268.066 445.801 c 0
 271.973 463.867 282.715 473.145 299.805 473.145 c 0
 315.918 473.145 321.777 463.867 317.871 445.801 c 1
 300.781 408.203 l 2
 288.574 381.348 281.25 364.258 279.785 356.934 c 2
 275.879 338.867 l 1
 282.227 341.797 l 2
 298.828 350.586 318.848 366.211 342.773 388.184 c 0
 362.793 405.762 377.441 415.039 386.23 415.039 c 0
 403.809 415.039 411.133 406.738 407.227 390.137 c 0
 403.809 377.93 396.973 369.141 387.207 363.77 c 1
 346.191 354.98 l 2
 320.801 349.609 298.828 340.82 279.785 329.102 c 1
 284.18 325.195 l 1
 311.035 311.035 l 1
 354.98 299.805 l 2
 376.465 294.434 384.766 284.668 380.859 270.02 c 0
EndSplineSet
EndChar
StartChar: plus
Encoding: 43 43 12
OldEncoding: 43
Width: 436
Flags: HW
HStem: 0 21<202 237 237 237> 160 35<84 236 236 236 278 430 430 430> 334 20<277 312 277 277>
Fore
430 160 m 1
 271 160 l 1
 237 0 l 1
 202 0 l 1
 236 160 l 1
 77 160 l 1
 84 195 l 1
 243 195 l 1
 277 354 l 1
 312 354 l 1
 278 195 l 1
 437 195 l 1
 430 160 l 1
EndSplineSet
MinimumDistance: x9,-1 
Back
430.176 160.156 m 1
 270.996 160.156 l 1
 236.816 0 l 1
 202.148 0 l 1
 235.84 160.156 l 1
 77.1484 160.156 l 1
 83.9844 194.824 l 1
 243.164 194.824 l 1
 276.855 354.004 l 1
 312.012 354.004 l 1
 277.832 194.824 l 1
 437.012 194.824 l 1
 430.176 160.156 l 1
EndSplineSet
EndChar
StartChar: comma
Encoding: 44 44 13
OldEncoding: 44
Width: 174
Flags: HW
HStem: -97 21<39 39> 51 20<83 115>
Fore
139 4 m 0
 136 -11 122 -31 101 -54 c 0
 79 -76 58 -90 39 -97 c 1
 36 -83 l 1
 80 -58 104 -34 109 -9 c 0
 110 -3 108 0 101 0 c 2
 93 -1 l 1
 85 -2 l 2
 56 -2 43 9 48 31 c 0
 53 58 69 71 97 71 c 0
 133 71 147 41 139 4 c 0
EndSplineSet
Back
139.16 3.90625 m 0
 137.695 -3.41797 133.789 -12.207 126.953 -21.9727 c 0
 120.117 -32.2266 111.816 -42.4805 101.074 -54.1992 c 0
 79.1016 -76.1719 58.1055 -90.332 39.0625 -97.168 c 1
 36.1328 -83.0078 l 1
 80.0781 -58.1055 104.492 -33.6914 108.887 -8.78906 c 0
 110.352 -2.92969 107.91 0 101.074 0 c 2
 92.7734 -0.976562 l 1
 84.9609 -1.95312 l 2
 55.6641 -1.95312 43.457 8.78906 47.8516 30.7617 c 0
 52.7344 57.6172 68.8477 70.8008 97.168 70.8008 c 0
 115.234 70.8008 127.441 64.4531 134.277 51.2695 c 0
 141.602 38.5742 143.066 22.4609 139.16 3.90625 c 0
EndSplineSet
EndChar
StartChar: hyphen
Encoding: 45 45 14
OldEncoding: 45
Width: 270
Flags: HW
HStem: 129 33<60 270 270 270>
Fore
270 129 m 1
 53 129 l 1
 60 162 l 1
 277 162 l 1
 270 129 l 1
EndSplineSet
Back
270.02 128.906 m 1
 53.2227 128.906 l 1
 60.0586 162.109 l 1
 276.855 162.109 l 1
 270.02 128.906 l 1
EndSplineSet
EndChar
StartChar: period
Encoding: 46 46 15
OldEncoding: 46
Width: 193
Flags: HW
HStem: -6 21<88 108> 50 20<103.5 124>
Fore
145 30 m 0
 141 10 118 -6 98 -6 c 0
 78 -6 63 10 67 30 c 0
 72 51 93 70 114 70 c 0
 134 70 150 50 145 30 c 0
EndSplineSet
Back
145.02 29.7852 m 0
 143.066 20.0195 137.207 11.7188 127.441 4.39453 c 0
 117.676 -2.44141 107.91 -5.85938 98.1445 -5.85938 c 0
 87.8906 -5.85938 79.5898 -2.44141 73.7305 4.39453 c 0
 67.3828 11.7188 64.9414 20.0195 66.8945 29.7852 c 0
 69.8242 40.5273 75.6836 49.8047 84.4727 58.1055 c 0
 93.2617 65.918 103.516 69.8242 113.77 69.8242 c 0
 124.023 69.8242 132.324 65.918 139.16 57.6172 c 0
 145.508 49.3164 147.461 40.0391 145.02 29.7852 c 0
EndSplineSet
EndChar
StartChar: slash
Encoding: 47 47 16
OldEncoding: 47
Width: 232
Flags: HW
HStem: -121 21<-26 10 10 10> 453 20<297 334 297 297>
Fore
334 473 m 1
 10 -121 l 1
 -26 -121 l 1
 297 473 l 1
 334 473 l 1
EndSplineSet
Back
333.984 473.145 m 1
 9.76562 -121.094 l 1
 -25.8789 -121.094 l 1
 296.875 473.145 l 1
 333.984 473.145 l 1
EndSplineSet
EndChar
StartChar: zero
Encoding: 48 48 17
OldEncoding: 48
Width: 378
Flags: HW
HStem: -8 21<128 214> 441 20<229 314>
Fore
390 226 m 0
 378 168 357 118 328 77 c 0
 289 20 242 -8 186 -8 c 0
 70 -8 61 123 82 226 c 0
 103 327 172 461 286 461 c 0
 342 461 377 432 391 374 c 0
 402 333 402 284 390 226 c 0
325 226 m 0
 356 371 342 444 282 444 c 0
 223 444 178 371 147 226 c 0
 116 81 130 8 190 8 c 0
 249 8 294 81 325 226 c 0
EndSplineSet
Back
390.137 226.074 m 0
 377.93 167.969 357.422 118.164 328.125 77.1484 c 0
 289.551 20.5078 242.188 -7.8125 186.035 -7.8125 c 0
 157.227 -7.8125 134.766 -0.488281 118.164 14.1602 c 0
 101.562 28.8086 89.3555 47.3633 82.5195 70.3125 c 0
 75.6836 93.2617 72.2656 118.652 73.2422 145.996 c 0
 73.7305 173.34 76.6602 200.195 82.0312 226.074 c 0
 87.4023 251.465 95.7031 277.832 106.934 305.664 c 0
 118.164 333.008 132.324 358.398 149.414 381.348 c 0
 166.504 404.297 186.523 423.34 208.984 438.477 c 0
 231.445 453.613 257.324 460.938 286.133 460.938 c 0
 341.797 460.938 376.953 432.129 391.113 374.023 c 0
 402.344 333.496 401.855 284.18 390.137 226.074 c 0
325.195 226.074 m 0
 356.445 371.094 341.797 443.848 282.227 443.848 c 0
 223.145 443.848 178.223 371.094 146.973 226.074 c 0
 115.723 80.5664 129.883 7.8125 189.941 7.8125 c 0
 248.535 7.8125 293.457 80.5664 325.195 226.074 c 0
EndSplineSet
EndChar
StartChar: one
Encoding: 49 49 18
OldEncoding: 49
Width: 381
Flags: HW
HStem: 0 21<105 293 293 293> 441 20<320 320>
Fore
293 0 m 1
 105 0 l 1
 107 10 l 1
 154 10 173 20 182 63 c 2
 248 372 l 1
 253 393 247 404 232 404 c 0
 229 404 213 399 183 390 c 1
 185 398 l 1
 320 461 l 1
 326 460 l 1
 239 51 l 2
 235 32 239 19 250 14 c 0
 257 11 272 10 295 10 c 1
 293 0 l 1
EndSplineSet
MinimumDistance: x9,-1 
Back
292.969 0 m 1
 104.98 0 l 1
 106.934 9.76562 l 1
 130.371 9.76562 147.461 13.6719 158.691 20.5078 c 0
 169.434 27.3438 177.246 41.5039 182.129 62.9883 c 2
 248.047 372.07 l 2
 252.441 393.555 247.559 403.809 231.934 403.809 c 0
 229.492 403.809 212.891 399.414 183.105 390.137 c 1
 185.059 397.949 l 1
 319.824 460.938 l 1
 326.172 459.961 l 1
 238.77 50.7812 l 2
 234.863 31.7383 238.77 19.5312 250 14.1602 c 0
 257.324 11.2305 272.461 9.76562 294.922 9.76562 c 1
 292.969 0 l 1
EndSplineSet
EndChar
StartChar: two
Encoding: 50 50 19
OldEncoding: 50
Width: 378
Flags: HW
HStem: 0 51<121 284> 411 50<245 274>
Fore
366 93 m 1
 309 0 l 1
 43 0 l 1
 45 8 l 1
 194 138 l 1
 267 200 309 258 321 313 c 0
 334 377 306 411 242 411 c 0
 215 411 191 401 171 381 c 0
 158 369 143 349 126 321 c 1
 113 325 l 1
 144 409 203 461 287 461 c 0
 358 461 399 410 384 338 c 0
 373 288 332 233 262 172 c 2
 121 51 l 1
 284 51 l 2
 301 51 314 55 325 62 c 0
 334 67 345 79 357 96 c 1
 366 93 l 1
EndSplineSet
MinimumDistance: x12,-1 
Back
366.211 92.7734 m 1
 309.082 0 l 1
 42.9688 0 l 1
 44.9219 7.8125 l 1
 193.848 138.184 l 2
 266.602 200.195 309.082 258.301 320.801 312.988 c 0
 327.637 345.215 324.219 369.141 310.547 386.23 c 0
 296.875 402.832 273.926 411.133 242.188 411.133 c 0
 214.844 411.133 190.918 400.879 170.898 380.859 c 0
 158.203 369.141 143.555 349.121 125.977 320.801 c 1
 112.793 325.195 l 1
 128.418 367.188 150.879 400.391 180.176 424.316 c 0
 209.473 448.73 245.117 460.938 287.109 460.938 c 0
 322.266 460.938 349.121 449.707 367.676 426.27 c 0
 385.742 403.32 391.113 374.023 383.789 337.891 c 0
 372.559 288.086 332.031 232.91 262.207 171.875 c 2
 121.094 50.7812 l 1
 284.18 50.7812 l 2
 300.781 50.7812 314.453 54.6875 325.195 62.0117 c 0
 334.473 67.3828 345.215 78.6133 356.934 96.1914 c 1
 366.211 92.7734 l 1
EndSplineSet
EndChar
StartChar: three
Encoding: 51 51 20
OldEncoding: 51
Width: 379
Flags: HW
HStem: -8 22 420 41<252.5 276>
Fore
348 147 m 0
 338 96 310 57 265 29 c 0
 224 4 177 -8 126 -8 c 0
 107 -8 93 -6 84 -1 c 1
 64 4 55 14 58 29 c 0
 62 45 72 53 89 53 c 0
 98 53 112 47 131 34 c 0
 152 21 168 14 179 14 c 0
 208 14 233 25 254 47 c 0
 273 66 287 90 294 120 c 0
 297 136 297 150 293 163 c 1
 287 204 248 225 175 225 c 1
 176 234 l 1
 257 258 303 296 314 349 c 0
 323 392 298 420 254 420 c 0
 213 420 174 396 138 348 c 1
 128 351 l 1
 166 424 219 461 286 461 c 0
 346 461 385 429 373 370 c 0
 365 335 337 303 289 274 c 1
 311 263 326 252 335 240 c 0
 353 217 357 186 348 147 c 0
EndSplineSet
Back
348.145 146.973 m 0
 337.891 96.1914 310.547 57.1289 265.137 28.8086 c 0
 223.633 4.39453 177.246 -7.8125 125.977 -7.8125 c 0
 106.445 -7.8125 92.7734 -5.85938 83.9844 -0.976562 c 1
 63.9648 4.39453 55.1758 14.1602 58.1055 28.8086 c 0
 62.0117 44.9219 72.2656 53.2227 88.8672 53.2227 c 0
 98.1445 53.2227 112.305 46.875 130.859 34.1797 c 0
 151.855 20.5078 167.48 14.1602 179.199 14.1602 c 0
 208.496 14.1602 233.398 24.9023 253.906 46.875 c 0
 273.438 65.4297 286.621 89.8438 293.945 120.117 c 0
 297.363 136.23 296.875 150.391 292.969 163.086 c 1
 287.109 204.102 247.559 225.098 174.805 225.098 c 1
 175.781 233.887 l 1
 256.836 257.812 302.734 296.387 313.965 349.121 c 0
 318.848 370.117 315.43 387.695 304.199 400.391 c 0
 292.48 413.574 275.879 419.922 253.906 419.922 c 0
 212.891 419.922 173.828 395.996 138.184 348.145 c 1
 127.93 351.074 l 1
 166.016 424.316 218.75 460.938 286.133 460.938 c 0
 315.918 460.938 339.355 453.125 356.445 437.5 c 0
 373.535 421.875 378.906 399.414 373.047 370.117 c 0
 365.234 334.473 336.914 302.734 289.062 273.926 c 1
 311.035 263.184 326.172 251.953 334.961 240.234 c 0
 353.027 217.285 357.422 186.523 348.145 146.973 c 0
EndSplineSet
EndChar
StartChar: four
Encoding: 52 52 21
OldEncoding: 52
Width: 371
Flags: HW
HStem: 0 21<218 270 270 270> 112 43<90 242 242 242 303 361 361 361> 432 20<336 366 336 336>
Fore
361 112 m 1
 294 112 l 1
 270 0 l 1
 218 0 l 1
 242 112 l 1
 54 112 l 1
 63 155 l 1
 336 452 l 1
 366 452 l 1
 303 155 l 1
 370 155 l 1
 361 112 l 1
250 155 m 1
 298 382 l 1
 90 155 l 1
 250 155 l 1
EndSplineSet
MinimumDistance: x5,-1 
Back
360.84 111.816 m 1
 293.945 111.816 l 1
 270.02 0 l 1
 217.773 0 l 1
 242.188 111.816 l 1
 54.1992 111.816 l 1
 62.9883 154.785 l 1
 335.938 452.148 l 1
 366.211 452.148 l 1
 303.223 154.785 l 1
 370.117 154.785 l 1
 360.84 111.816 l 1
250 154.785 m 1
 297.852 381.836 l 1
 89.8438 154.785 l 1
 250 154.785 l 1
EndSplineSet
EndChar
StartChar: five
Encoding: 53 53 22
OldEncoding: 53
Width: 380
Flags: HW
HStem: -8 24 400 53<243 371 371 375.5> 452 20<422 422>
Fore
427 467 m 1
 388 406 l 2
 385 402 380 400 371 400 c 2
 237 400 l 1
 196 342 l 1
 273 330 323 305 339 270 c 1
 354 243 l 1
 359 222 l 1
 361 205 359 182 353 153 c 0
 342 103 315 63 272 34 c 0
 230 6 184 -8 135 -8 c 0
 76 -8 50 5 56 31 c 0
 59 49 70 58 89 58 c 0
 104 58 121 51 138 36 c 1
 155 23 169 16 180 16 c 0
 209 16 236 29 260 56 c 0
 281 79 294 107 300 138 c 0
 311 187 296 224 255 250 c 0
 220 271 181 282 137 282 c 0
 133 282 132 285 134 291 c 1
 243 453 l 1
 386 453 l 2
 398 453 410 459 422 472 c 1
 427 467 l 1
EndSplineSet
MinimumDistance: x2,-1 
Back
426.758 466.797 m 1
 388.184 405.762 l 2
 385.254 401.855 379.883 399.902 371.094 399.902 c 2
 236.816 399.902 l 1
 195.801 341.797 l 1
 234.863 335.938 266.113 326.66 290.527 314.453 c 0
 314.941 302.246 331.055 287.109 338.867 270.02 c 1
 354.004 243.164 l 1
 358.887 222.168 l 1
 360.84 205.566 358.887 182.129 353.027 152.832 c 0
 341.797 103.027 314.453 63.4766 271.973 34.1797 c 0
 229.98 5.85938 184.57 -7.8125 134.766 -7.8125 c 0
 76.1719 -7.8125 49.8047 4.88281 56.1523 30.7617 c 0
 59.5703 48.8281 70.3125 58.1055 88.8672 58.1055 c 0
 104.492 58.1055 120.605 50.7812 138.184 36.1328 c 0
 155.273 22.4609 169.434 16.1133 180.176 16.1133 c 0
 209.473 16.1133 235.84 29.2969 259.766 56.1523 c 0
 280.762 79.1016 293.945 106.445 299.805 138.184 c 0
 310.547 186.523 295.898 224.121 254.883 250 c 0
 220.215 271.484 181.152 282.227 137.207 282.227 c 0
 132.812 282.227 131.836 285.156 133.789 291.016 c 1
 243.164 453.125 l 1
 386.23 453.125 l 2
 397.949 453.125 410.156 459.473 421.875 472.168 c 1
 426.758 466.797 l 1
EndSplineSet
EndChar
StartChar: six
Encoding: 54 54 23
OldEncoding: 54
Width: 374
Flags: HW
HStem: -8 21<131 233.5> 257 31<264 266> 441 20<342.5 416>
VStem: 75 58
Fore
364 147 m 0
 345 59 280 -8 187 -8 c 0
 75 -8 61 96 83 196 c 0
 113 341 269 461 416 461 c 1
 416 450 l 1
 303 431 218 362 175 258 c 1
 225 281 l 1
 242 286 257 288 271 288 c 0
 348 288 381 227 364 147 c 0
299 120 m 1
 318 211 297 257 235 257 c 0
 207 257 184 250 167 237 c 1
 160 224 151 203 144 172 c 0
 128 105 125 10 201 10 c 0
 257 10 285 63 299 120 c 1
EndSplineSet
Back
363.77 146.973 m 0
 359.375 125 352.051 104.492 341.309 85.4492 c 0
 331.055 66.4062 318.359 50.293 303.711 36.6211 c 0
 288.574 22.9492 270.996 12.207 251.465 3.90625 c 0
 231.934 -3.90625 210.449 -7.8125 187.012 -7.8125 c 0
 159.18 -7.8125 136.719 -1.95312 120.605 9.76562 c 0
 104.004 21.9727 92.2852 37.5977 84.9609 56.6406 c 0
 77.6367 75.6836 74.2188 97.168 74.707 122.07 c 0
 74.707 146.484 77.6367 171.387 83.0078 195.801 c 0
 90.332 231.934 104.98 266.113 126.953 298.34 c 0
 148.926 331.055 175.293 358.887 205.566 382.812 c 0
 235.84 407.227 269.531 425.781 306.152 439.941 c 0
 342.773 454.102 379.395 460.938 416.016 460.938 c 1
 416.016 450.195 l 1
 359.375 440.43 310.547 419.434 269.043 386.23 c 0
 227.539 352.539 196.289 310.059 174.805 257.812 c 1
 225.098 280.762 l 1
 241.699 285.645 256.836 288.086 270.996 288.086 c 0
 309.57 288.086 336.914 274.414 353.027 247.559 c 0
 369.141 220.703 372.559 187.012 363.77 146.973 c 0
298.828 120.117 m 0
 318.359 211.426 296.875 256.836 234.863 256.836 c 0
 207.031 256.836 184.57 250.488 166.992 236.816 c 1
 163.574 230.469 159.668 221.68 155.273 210.938 c 0
 151.367 200.195 147.461 187.5 144.043 171.875 c 0
 140.137 155.273 137.207 137.695 135.742 118.652 c 0
 133.789 99.6094 134.766 82.0312 138.184 65.918 c 0
 141.113 49.8047 147.949 36.6211 157.715 25.8789 c 0
 166.992 15.1367 181.641 9.76562 201.172 9.76562 c 0
 214.844 9.76562 227.539 13.1836 237.793 19.043 c 0
 248.535 24.9023 257.812 33.2031 266.113 43.457 c 0
 273.926 53.7109 280.762 65.4297 286.133 79.1016 c 0
 291.504 92.2852 295.898 105.957 298.828 120.117 c 0
EndSplineSet
EndChar
StartChar: seven
Encoding: 55 55 24
OldEncoding: 55
Width: 380
Flags: HW
HStem: -4 21<139 184 184 184> 403 50<213 362 362 362>
Fore
424 442 m 1
 184 -4 l 1
 139 -4 l 1
 362 403 l 1
 213 403 l 2
 194 403 177 398 162 389 c 0
 154 384 141 370 122 347 c 1
 111 352 l 1
 172 453 l 1
 426 453 l 1
 424 442 l 1
EndSplineSet
Back
423.828 441.895 m 1
 184.082 -3.90625 l 1
 139.16 -3.90625 l 1
 361.816 402.832 l 1
 212.891 402.832 l 2
 194.336 402.832 177.246 398.438 162.109 389.16 c 0
 153.809 384.277 140.625 370.117 122.07 347.168 c 1
 110.84 352.051 l 1
 171.875 453.125 l 1
 425.781 453.125 l 1
 423.828 441.895 l 1
EndSplineSet
EndChar
StartChar: eight
Encoding: 56 56 25
OldEncoding: 56
Width: 373
Flags: HW
HStem: -8 21<150 219> 441 20<253 316>
Fore
339 102 m 0
 323 26 255 -8 183 -8 c 0
 117 -8 65 31 79 99 c 0
 92 165 127 178 193 226 c 1
 153 280 124 291 138 356 c 0
 151 420 221 461 285 461 c 0
 347 461 395 432 382 365 c 0
 370 309 327 282 268 253 c 1
 316 200 355 181 339 102 c 0
335 368 m 0
 339 389 337 406 329 419 c 0
 318 435 301 443 277 443 c 0
 236 443 199 416 190 373 c 0
 183 338 203 302 251 265 c 1
 279 284 l 1
 299 300 l 1
 317 318 329 341 335 368 c 0
285 86 m 0
 290 111 287 131 275 147 c 0
 265 161 242 183 207 212 c 1
 183 193 l 1
 165 176 l 1
 148 156 137 133 132 106 c 0
 120 50 142 10 195 10 c 0
 238 10 276 42 285 86 c 0
EndSplineSet
MinimumDistance: x1,-1 
Back
338.867 102.051 m 0
 334.961 83.4961 328.125 66.8945 317.871 53.2227 c 0
 308.105 39.0625 295.898 27.3438 282.227 18.5547 c 0
 268.066 9.27734 252.441 2.92969 235.352 -1.46484 c 0
 218.262 -5.85938 201.172 -7.8125 183.105 -7.8125 c 0
 166.504 -7.8125 150.879 -5.85938 137.207 -0.976562 c 0
 123.047 3.90625 110.84 10.7422 101.074 20.0195 c 0
 90.8203 29.2969 83.9844 40.5273 80.0781 54.1992 c 0
 76.1719 67.3828 75.6836 82.5195 79.1016 99.1211 c 0
 82.5195 115.723 87.4023 129.395 93.2617 140.137 c 0
 99.6094 150.879 107.422 160.156 116.699 168.945 c 0
 125.488 177.734 136.23 186.523 148.926 194.824 c 0
 161.621 203.613 176.27 213.867 192.871 226.074 c 1
 183.105 239.258 173.828 250.488 165.527 259.277 c 0
 157.227 268.555 150.391 277.344 145.02 286.621 c 0
 139.648 295.41 136.23 305.176 134.766 315.918 c 0
 133.789 326.66 134.766 339.844 138.184 355.957 c 0
 141.113 372.07 147.949 386.719 157.715 399.414 c 0
 166.992 412.598 178.711 423.34 192.383 432.617 c 0
 206.055 441.406 221.191 448.73 236.816 453.613 c 0
 252.93 458.496 269.043 460.938 285.156 460.938 c 0
 300.293 460.938 314.453 458.984 328.125 455.566 c 0
 341.309 451.66 352.539 445.801 361.816 437.988 c 0
 371.094 430.176 377.93 419.922 381.348 408.203 c 0
 385.254 395.996 385.254 381.836 381.836 365.234 c 0
 375.977 336.914 362.793 314.941 342.285 298.828 c 0
 322.266 283.203 297.363 267.578 268.066 252.93 c 1
 279.785 239.746 291.016 228.027 301.27 217.773 c 0
 312.012 208.008 320.312 197.754 327.637 187.012 c 0
 334.473 176.27 339.355 164.551 341.309 151.367 c 0
 343.75 138.672 342.773 122.07 338.867 102.051 c 0
334.961 368.164 m 0
 338.867 389.16 336.914 406.25 329.102 418.945 c 0
 318.359 435.059 300.781 442.871 276.855 442.871 c 0
 256.348 442.871 237.793 436.523 221.68 423.828 c 0
 205.078 411.133 194.824 394.531 189.941 373.047 c 0
 182.617 337.891 203.125 301.758 250.977 265.137 c 1
 278.809 284.18 l 1
 298.828 299.805 l 1
 316.895 317.871 329.102 340.82 334.961 368.164 c 0
285.156 85.9375 m 0
 290.527 110.84 287.109 130.859 274.902 146.973 c 0
 265.137 161.133 242.188 182.617 207.031 211.914 c 1
 183.105 192.871 l 1
 165.039 175.781 l 1
 148.438 155.762 137.207 132.812 131.836 105.957 c 0
 125.977 78.125 128.418 55.1758 139.16 37.1094 c 0
 149.902 19.043 168.457 9.76562 194.824 9.76562 c 0
 216.309 9.76562 235.352 17.0898 252.441 31.7383 c 0
 269.531 45.8984 280.273 63.9648 285.156 85.9375 c 0
EndSplineSet
EndChar
StartChar: nine
Encoding: 57 57 26
OldEncoding: 57
Width: 379
Flags: HW
HStem: -13 21<60 99.5> 162 29<218.5 219.5> 441 20<261.5 308.5>
Fore
393 270 m 0
 377 194 340 130 281 78 c 0
 212 17 139 -13 60 -13 c 1
 61 0 l 1
 169 13 266 98 309 198 c 1
 274 173 239 162 200 162 c 0
 162 162 135 175 118 202 c 0
 102 226 98 257 106 296 c 0
 116 343 136 381 166 411 c 0
 199 444 239 461 284 461 c 0
 333 461 366 440 385 399 c 0
 401 362 404 319 393 270 c 0
320 242 m 1
 326 269 l 2
 351 385 334 443 273 443 c 0
 224 443 191 403 174 323 c 0
 166 288 166 259 173 236 c 0
 182 206 203 191 234 191 c 0
 258 191 280 199 304 214 c 0
 313 219 318 229 320 242 c 1
EndSplineSet
Back
393.066 270.02 m 0
 376.953 193.848 339.844 129.883 280.762 78.125 c 0
 212.402 17.0898 138.672 -13.1836 60.0586 -13.1836 c 1
 61.0352 0 l 1
 88.3789 3.41797 114.258 10.7422 139.648 21.9727 c 0
 164.551 33.2031 187.5 47.8516 208.984 65.918 c 0
 230.469 83.9844 249.512 104.492 267.09 126.953 c 0
 284.18 149.902 298.34 173.34 309.082 198.242 c 1
 291.504 185.547 273.926 176.27 255.859 170.41 c 0
 237.793 165.039 219.238 162.109 200.195 162.109 c 0
 162.109 162.109 134.766 175.293 118.164 202.148 c 0
 102.051 226.074 98.1445 257.324 105.957 295.898 c 0
 116.211 342.773 136.23 380.859 166.016 411.133 c 0
 199.219 444.336 238.77 460.938 284.18 460.938 c 0
 332.52 460.938 366.211 440.43 384.766 398.926 c 0
 400.879 362.305 403.809 319.336 393.066 270.02 c 0
319.824 242.188 m 1
 326.172 269.043 l 2
 351.562 384.766 333.496 442.871 272.949 442.871 c 0
 224.121 442.871 191.406 402.832 173.828 323.242 c 0
 166.016 288.574 165.527 259.277 172.852 235.84 c 0
 182.129 206.055 202.637 190.918 233.887 190.918 c 0
 246.094 190.918 257.812 192.871 269.043 196.777 c 0
 280.273 201.172 291.992 206.543 304.199 213.867 c 0
 312.5 219.238 317.871 228.516 319.824 242.188 c 1
EndSplineSet
EndChar
StartChar: colon
Encoding: 58 58 27
OldEncoding: 58
Width: 215
Flags: HW
HStem: -6 21<96 116.5> 301 20<175 185.5>
Fore
206 281 m 0
 200 256 184 244 159 244 c 0
 139 244 124 261 129 281 c 0
 134 304 150 318 175 321 c 1
 196 321 210 302 206 281 c 0
152 30 m 0
 148 9 127 -6 106 -6 c 0
 86 -6 71 10 75 30 c 0
 80 51 101 70 122 70 c 0
 143 70 157 51 152 30 c 0
EndSplineSet
Back
206.055 280.762 m 0
 200.195 256.348 184.57 244.141 159.18 244.141 c 0
 148.926 244.141 140.625 247.559 134.277 254.883 c 0
 127.93 262.207 126.465 270.996 128.906 280.762 c 0
 134.277 304.199 149.902 317.871 174.805 320.801 c 0
 185.547 320.801 193.848 316.895 200.195 309.082 c 0
 206.055 300.781 208.008 291.504 206.055 280.762 c 0
151.855 29.7852 m 0
 149.902 19.5312 144.531 10.7422 135.742 3.90625 c 0
 126.465 -2.44141 116.699 -5.85938 105.957 -5.85938 c 0
 96.1914 -5.85938 87.8906 -2.44141 81.543 4.39453 c 0
 75.1953 11.7188 73.2422 20.0195 75.1953 29.7852 c 0
 77.6367 40.5273 83.4961 49.8047 92.2852 58.1055 c 0
 101.562 65.918 111.328 69.8242 122.07 69.8242 c 0
 132.812 69.8242 141.113 65.918 146.973 58.1055 c 0
 152.832 49.8047 154.785 40.5273 151.855 29.7852 c 0
EndSplineSet
EndChar
StartChar: semicolon
Encoding: 59 59 28
OldEncoding: 59
Width: 215
Flags: HW
HStem: -97 21<66 66> 301 20<175 185.5>
Fore
206 281 m 0
 200 256 184 244 159 244 c 0
 139 244 124 261 129 281 c 0
 134 304 150 318 175 321 c 1
 196 321 210 302 206 281 c 0
166 4 m 0
 161 -19 146 -40 121 -60 c 2
 91 -84 l 1
 83 -89 75 -94 66 -97 c 1
 63 -83 l 1
 107 -58 131 -34 136 -9 c 0
 137 -3 135 0 128 0 c 2
 120 -1 l 1
 111 -2 l 2
 82 -2 70 9 75 31 c 0
 80 58 96 71 124 71 c 0
 161 71 175 49 166 4 c 0
EndSplineSet
Back
206.055 280.762 m 0
 200.195 256.348 184.57 244.141 159.18 244.141 c 0
 148.926 244.141 140.625 247.559 134.277 254.883 c 0
 127.93 262.207 126.465 270.996 128.906 280.762 c 0
 134.277 304.199 149.902 317.871 174.805 320.801 c 0
 185.547 320.801 193.848 316.895 200.195 309.082 c 0
 206.055 300.781 208.008 291.504 206.055 280.762 c 0
166.016 3.90625 m 0
 161.133 -18.5547 146.484 -40.0391 121.094 -60.0586 c 2
 90.8203 -83.9844 l 2
 86.9141 -86.4258 83.0078 -89.3555 79.1016 -91.3086 c 0
 75.1953 -93.75 70.8008 -95.7031 65.918 -97.168 c 1
 62.9883 -83.0078 l 1
 106.934 -58.1055 131.348 -33.6914 136.23 -8.78906 c 0
 137.207 -2.92969 134.766 0 127.93 0 c 2
 120.117 -0.976562 l 1
 110.84 -1.95312 l 2
 82.5195 -1.95312 70.3125 8.78906 75.1953 30.7617 c 0
 79.5898 57.6172 96.1914 70.8008 124.023 70.8008 c 0
 160.645 70.8008 174.805 48.8281 166.016 3.90625 c 0
EndSplineSet
EndChar
StartChar: less
Encoding: 60 60 29
OldEncoding: 60
Width: 436
Flags: HW
HStem: -4 21<396 396> 340 20<474 474>
Fore
396 -4 m 1
 75 155 l 1
 84 199 l 1
 474 360 l 1
 465 321 l 1
 118 178 l 1
 404 34 l 1
 396 -4 l 1
EndSplineSet
Back
395.996 -3.90625 m 1
 75.1953 154.785 l 1
 83.9844 199.219 l 1
 474.121 359.863 l 1
 464.844 320.801 l 1
 118.164 178.223 l 1
 403.809 34.1797 l 1
 395.996 -3.90625 l 1
EndSplineSet
EndChar
StartChar: equal
Encoding: 61 61 30
OldEncoding: 61
Width: 436
Flags: HW
HStem: 90 35<70 415 415 415> 230 35<99 445 445 445>
Fore
445 230 m 1
 92 230 l 1
 99 265 l 1
 452 265 l 1
 445 230 l 1
415 90 m 1
 62 90 l 1
 70 125 l 1
 423 125 l 1
 415 90 l 1
EndSplineSet
Back
444.824 229.98 m 1
 91.7969 229.98 l 1
 99.1211 265.137 l 1
 452.148 265.137 l 1
 444.824 229.98 l 1
415.039 89.8438 m 1
 62.0117 89.8438 l 1
 69.8242 125 l 1
 422.852 125 l 1
 415.039 89.8438 l 1
EndSplineSet
EndChar
StartChar: greater
Encoding: 62 62 31
OldEncoding: 62
Width: 436
Flags: HW
HStem: -4 21<41 41> 340 20<119 119>
Fore
430 155 m 1
 41 -4 l 1
 49 34 l 1
 397 178 l 1
 110 321 l 1
 119 360 l 1
 439 199 l 1
 430 155 l 1
EndSplineSet
Back
430.176 154.785 m 1
 41.0156 -3.90625 l 1
 48.8281 34.1797 l 1
 396.973 178.223 l 1
 109.863 320.801 l 1
 119.141 359.863 l 1
 438.965 199.219 l 1
 430.176 154.785 l 1
EndSplineSet
EndChar
StartChar: question
Encoding: 63 63 32
OldEncoding: 63
Width: 342
Flags: HW
HStem: -6 21 453 20<234.5 274.5>
Fore
368 357 m 0
 362 328 337 291 292 248 c 2
 259 216 l 1
 235 187 l 2
 224 174 212 150 197 115 c 1
 185 115 l 1
 192 148 206 181 227 214 c 2
 256 259 l 2
 282 301 298 336 304 363 c 0
 315 414 295 452 246 452 c 0
 231 452 216 448 200 440 c 0
 183 430 174 420 172 409 c 0
 171 404 173 396 180 386 c 0
 187 375 190 365 188 357 c 0
 185 338 174 328 155 328 c 0
 132 328 123 343 129 372 c 0
 142 432 204 473 265 473 c 0
 284 473 302 469 321 461 c 1
 342 449 l 1
 359 433 l 1
 371 410 374 385 368 357 c 0
212 30 m 0
 208 10 187 -3 167 -4 c 0
 142 -5 132 6 137 30 c 0
 142 52 157 65 182 68 c 1
 202 68 217 50 212 30 c 0
EndSplineSet
Back
368.164 356.934 m 0
 361.816 327.637 336.426 291.504 291.992 248.047 c 2
 258.789 215.82 l 1
 234.863 187.012 l 2
 224.121 174.316 211.426 150.391 196.777 115.234 c 1
 185.059 115.234 l 1
 192.383 148.438 206.543 181.152 227.051 213.867 c 2
 255.859 258.789 l 2
 282.227 300.781 297.852 335.449 304.199 362.793 c 0
 309.57 388.184 307.129 409.668 297.363 426.27 c 0
 287.598 443.359 270.508 452.148 246.094 452.148 c 0
 231.445 452.148 215.82 448.242 200.195 439.941 c 0
 183.105 430.176 173.828 419.434 171.875 409.18 c 0
 170.898 403.809 173.34 395.996 180.176 386.23 c 0
 187.5 374.512 189.941 365.234 187.988 356.934 c 0
 184.57 337.891 173.828 328.125 154.785 328.125 c 0
 131.836 328.125 123.047 342.773 128.906 372.07 c 0
 132.324 387.207 138.184 401.367 146.973 413.574 c 0
 155.762 425.781 166.504 436.523 179.199 444.824 c 0
 191.895 453.613 205.566 460.449 220.215 465.332 c 0
 234.863 470.703 249.512 473.145 265.137 473.145 c 0
 283.691 473.145 302.246 469.238 320.801 460.938 c 1
 341.797 449.219 l 1
 358.887 433.105 l 1
 371.094 410.156 374.023 384.766 368.164 356.934 c 0
211.914 29.7852 m 0
 209.961 20.0195 204.59 12.207 195.312 5.85938 c 0
 186.523 0 176.758 -3.41797 166.992 -3.90625 c 0
 141.602 -5.37109 131.836 5.85938 137.207 29.7852 c 0
 141.602 51.7578 156.738 64.4531 182.129 67.8711 c 0
 191.895 67.8711 200.195 63.9648 206.543 56.6406 c 0
 212.891 48.8281 214.844 40.0391 211.914 29.7852 c 0
EndSplineSet
EndChar
StartChar: at
Encoding: 64 64 33
OldEncoding: 64
Width: 554
Flags: HW
HStem: -8 24<257.5 317.5> 98 30 317 30<378.5 392> 440 21<355 420.5>
Fore
571 260 m 0
 563 219 545 183 516 152 c 1
 485 115 449 97 410 97 c 0
 390 97 376 104 367 119 c 1
 360 128 358 137 360 146 c 1
 343 132 l 1
 325 119 l 2
 308 107 289 101 270 98 c 1
 227 98 211 126 223 183 c 0
 230 215 247 248 276 283 c 0
 311 326 349 347 392 347 c 1
 409 344 l 1
 420 339 427 328 432 311 c 1
 445 337 l 1
 493 337 l 1
 411 164 l 1
 406 147 l 1
 402 129 409 120 426 120 c 0
 484 120 533 208 544 259 c 0
 565 362 486 440 387 440 c 0
 257 440 171 332 145 208 c 0
 121 99 195 16 302 16 c 0
 345 16 393 27 445 50 c 1
 448 29 l 1
 385 5 337 -8 298 -8 c 0
 217 -8 157 17 118 68 c 1
 87 112 77 161 88 214 c 0
 104 286 140 345 197 391 c 0
 254 438 319 461 391 461 c 0
 450 461 498 443 535 407 c 1
 572 369 584 320 571 260 c 0
412 272 m 1
 418 302 411 317 392 317 c 0
 365 317 339 301 314 269 c 0
 291 240 276 212 270 185 c 0
 262 147 272 128 301 128 c 0
 322 128 346 147 372 186 c 0
 391 215 403 244 412 272 c 1
EndSplineSet
Back
570.801 259.766 m 0
 562.988 219.238 544.434 183.105 516.113 151.855 c 1
 484.863 115.234 449.219 97.168 410.156 97.168 c 0
 390.137 97.168 375.488 104.492 367.188 119.141 c 0
 360.352 127.441 357.91 136.719 359.863 145.996 c 1
 342.773 131.836 l 1
 325.195 119.141 l 2
 316.406 112.793 307.129 108.398 297.852 104.98 c 0
 288.574 101.562 279.297 99.1211 270.02 98.1445 c 1
 226.562 98.1445 210.938 126.465 223.145 183.105 c 0
 226.562 199.219 232.422 215.332 241.211 231.934 c 0
 249.512 248.535 261.23 265.625 275.879 283.203 c 0
 310.547 325.684 349.121 347.168 392.09 347.168 c 1
 409.18 344.238 l 1
 419.434 338.867 427.246 327.637 432.129 311.035 c 1
 444.824 336.914 l 1
 493.164 336.914 l 1
 411.133 164.062 l 1
 405.762 146.973 l 1
 401.855 128.906 408.691 120.117 425.781 120.117 c 0
 440.43 120.117 454.59 125 467.285 134.277 c 0
 480.469 144.043 492.188 156.25 502.93 170.41 c 0
 513.672 185.059 522.461 200.195 529.297 215.82 c 0
 536.621 231.934 541.504 246.094 543.945 258.789 c 0
 549.316 285.156 548.828 309.082 542.48 331.055 c 0
 536.133 353.027 525.391 372.07 510.742 388.184 c 0
 495.605 403.809 477.539 416.504 456.055 425.781 c 0
 434.57 435.547 411.621 439.941 387.207 439.941 c 0
 354.492 439.941 324.707 433.594 297.852 420.898 c 0
 271.484 408.203 247.559 391.602 227.051 370.605 c 0
 206.543 349.609 188.965 325.195 175.293 296.875 c 0
 161.621 269.043 151.855 239.258 145.02 208.008 c 0
 139.16 180.664 138.672 155.273 144.531 131.836 c 0
 150.391 108.887 160.156 88.3789 174.316 70.8008 c 0
 188.965 53.7109 207.031 40.0391 229.004 30.2734 c 0
 250.977 20.9961 275.391 16.1133 301.758 16.1133 c 0
 345.215 16.1133 393.066 27.3438 444.824 49.8047 c 1
 448.242 28.8086 l 1
 416.504 17.0898 388.672 7.8125 363.77 1.46484 c 0
 339.355 -4.88281 317.383 -7.8125 297.852 -7.8125 c 0
 216.797 -7.8125 156.738 17.0898 118.164 67.8711 c 1
 86.4258 111.816 76.6602 160.645 87.8906 213.867 c 0
 104.004 286.133 140.137 345.215 196.777 391.113 c 0
 254.395 437.5 318.848 460.938 391.113 460.938 c 0
 450.195 460.938 498.535 442.871 535.156 407.227 c 0
 572.266 369.141 584.473 319.824 570.801 259.766 c 0
412.109 271.973 m 1
 417.969 301.758 411.133 316.895 392.09 316.895 c 0
 365.234 316.895 339.355 300.781 313.965 269.043 c 0
 290.527 240.234 275.879 212.402 270.02 185.059 c 0
 262.207 146.973 272.461 127.93 300.781 127.93 c 0
 322.266 127.93 346.191 147.461 372.07 186.035 c 0
 381.348 200.684 389.16 215.332 395.508 229.492 c 0
 401.855 243.652 407.227 257.812 412.109 271.973 c 1
EndSplineSet
EndChar
StartChar: A
Encoding: 65 65 34
OldEncoding: 65
Width: 500
Flags: HW
HStem: 0 173<311 345> 145 28<190 345> 432 20<337 351 337 337>
Fore
482 0 m 1
 311 0 l 1
 314 12 l 1
 336 12 l 1
 348 16 l 2
 358 19 364 26 366 38 c 1
 366 53 l 1
 362 81 l 1
 349 145 l 1
 173 145 l 1
 125 66 l 2
 119 57 115 48 114 41 c 0
 110 22 123 12 154 12 c 1
 151 0 l 1
 18 0 l 1
 21 12 l 1
 40 12 61 27 84 56 c 1
 88 63 103 83 127 123 c 1
 337 452 l 1
 351 452 l 1
 437 71 l 1
 448 24 458 12 485 12 c 1
 482 0 l 1
345 173 m 1
 307 357 l 1
 190 173 l 1
 345 173 l 1
EndSplineSet
MinimumDistance: x20,-1 
Back
481.934 0 m 1
 311.035 0 l 1
 313.965 12.207 l 1
 335.938 12.207 l 1
 348.145 16.1133 l 2
 357.91 18.5547 363.77 25.8789 366.211 38.0859 c 1
 366.211 53.2227 l 1
 361.816 81.0547 l 1
 349.121 145.02 l 1
 172.852 145.02 l 1
 125 65.918 l 2
 119.141 56.6406 115.234 48.3398 113.77 41.0156 c 0
 109.863 21.4844 123.535 12.207 153.809 12.207 c 1
 150.879 0 l 1
 18.0664 0 l 1
 20.9961 12.207 l 1
 39.5508 12.207 60.5469 26.8555 83.9844 56.1523 c 0
 85.9375 59.5703 90.8203 66.4062 98.1445 77.1484 c 0
 105.469 87.8906 115.234 103.027 126.953 123.047 c 1
 336.914 452.148 l 1
 351.074 452.148 l 1
 437.012 70.8008 l 2
 442.383 47.8516 448.242 32.2266 455.078 23.9258 c 0
 461.426 16.1133 471.68 12.207 484.863 12.207 c 1
 481.934 0 l 1
345.215 172.852 m 1
 307.129 356.934 l 1
 189.941 172.852 l 1
 345.215 172.852 l 1
EndSplineSet
EndChar
StartChar: B
Encoding: 66 66 35
OldEncoding: 66
Width: 436
Flags: HW
HStem: -1 21 0 25<207.5 253 253 253> 223 28 427 25<169 169 266 296 296 312>
Fore
444 120 m 1
 425 44 348 -3 253 0 c 1
 24 0 l 1
 27 13 l 1
 79 13 95 23 106 74 c 1
 170 378 l 2
 175 402 175 418 169 427 c 1
 151 436 l 1
 118 440 l 1
 120 452 l 1
 312 452 l 2
 431 452 483 414 467 337 c 0
 460 304 443 280 416 263 c 0
 405 256 385 247 355 238 c 1
 427 222 457 183 444 120 c 1
396 333 m 0
 409 396 375 427 296 427 c 2
 266 427 l 2
 255 427 248 420 245 406 c 2
 212 249 l 1
 278 250 l 2
 345 251 384 278 396 333 c 0
366 123 m 0
 377 173 357 204 307 216 c 0
 290 221 257 223 206 223 c 1
 170 54 l 1
 168 40 172 31 183 27 c 0
 188 26 198 25 217 25 c 0
 302 25 352 58 366 123 c 0
EndSplineSet
MinimumDistance: x3,-1 x25,3 
Back
443.848 120.117 m 0
 439.453 101.562 431.152 84.4727 419.434 68.8477 c 0
 407.715 53.7109 393.555 41.0156 376.953 30.2734 c 0
 360.352 20.0195 341.309 12.207 320.312 6.83594 c 0
 299.316 1.46484 276.855 -0.488281 252.93 0 c 2
 23.9258 0 l 1
 26.8555 13.1836 l 1
 40.5273 13.1836 51.2695 13.6719 60.0586 15.625 c 0
 68.8477 17.0898 76.1719 20.0195 82.0312 24.4141 c 0
 87.8906 28.8086 92.7734 35.1562 96.6797 42.9688 c 0
 100.098 50.7812 103.516 61.5234 105.957 74.2188 c 2
 169.922 377.93 l 1
 175.293 401.855 174.805 418.457 168.945 426.758 c 1
 150.879 436.035 l 1
 118.164 439.941 l 1
 120.117 452.148 l 1
 312.012 452.148 l 2
 431.152 452.148 482.91 413.574 466.797 336.914 c 0
 459.473 304.199 442.871 279.785 416.016 263.184 c 0
 405.273 255.859 384.766 247.559 354.98 237.793 c 1
 426.758 222.168 456.543 182.617 443.848 120.117 c 0
395.996 333.008 m 0
 408.691 395.508 375.488 426.758 295.898 426.758 c 2
 266.113 426.758 l 2
 255.371 426.758 248.535 419.922 245.117 405.762 c 1
 211.914 249.023 l 1
 277.832 250 l 2
 344.727 250.488 383.789 278.32 395.996 333.008 c 0
366.211 123.047 m 0
 376.465 172.852 356.934 204.102 307.129 215.82 c 0
 290.527 220.703 256.836 223.145 206.055 223.145 c 1
 169.922 54.1992 l 1
 167.969 40.0391 172.363 30.7617 183.105 26.8555 c 0
 185.547 26.3672 189.453 25.8789 194.824 25.3906 c 0
 200.195 25.3906 207.52 24.9023 216.797 24.9023 c 0
 302.246 24.9023 352.051 57.6172 366.211 123.047 c 0
EndSplineSet
EndChar
StartChar: C
Encoding: 67 67 36
OldEncoding: 67
Width: 475
Flags: HW
HStem: -8 27<253 281.5> 426 27 440 20
Fore
456 75 m 1
 445 62 427 47 402 32 c 0
 357 5 308 -8 255 -8 c 0
 186 -8 136 12 104 53 c 0
 73 95 66 151 81 221 c 0
 96 286 126 342 181 389 c 0
 236 436 295 458 358 453 c 2
 393 450 l 2
 404 449 418 447 433 443 c 2
 473 431 l 1
 488 431 499 438 508 453 c 1
 521 453 l 1
 495 303 l 1
 481 303 l 1
 481 382 438 426 359 426 c 0
 307 426 261 405 225 361 c 0
 193 324 171 277 159 219 c 0
 147 163 149 117 168 80 c 0
 189 39 226 19 280 19 c 0
 335 19 390 42 445 87 c 1
 456 75 l 1
EndSplineSet
Back
456.055 75.1953 m 1
 445.312 61.5234 427.246 47.3633 401.855 32.2266 c 0
 356.445 5.37109 307.617 -7.8125 254.883 -7.8125 c 0
 186.523 -7.8125 136.23 12.207 104.004 53.2227 c 1
 73.2422 95.2148 65.4297 150.879 81.0547 221.191 c 0
 88.3789 253.906 100.098 284.18 116.211 312.012 c 0
 131.836 339.844 153.809 365.723 181.152 389.16 c 0
 236.328 436.523 295.41 457.52 357.91 453.125 c 2
 393.066 450.195 l 2
 398.438 449.219 404.297 448.73 411.621 447.266 c 0
 418.457 446.289 425.781 444.824 433.105 442.871 c 2
 473.145 431.152 l 1
 487.793 431.152 499.512 438.477 507.812 453.125 c 1
 520.996 453.125 l 1
 495.117 303.223 l 1
 480.957 303.223 l 1
 480.957 342.285 470.703 372.559 449.707 394.043 c 0
 428.711 415.527 398.438 425.781 358.887 425.781 c 0
 333.008 425.781 308.594 420.898 286.133 410.156 c 0
 263.184 399.414 243.164 382.812 225.098 360.84 c 0
 192.871 324.219 170.898 276.855 159.18 219.238 c 0
 152.832 190.918 150.879 165.527 151.855 142.578 c 0
 153.32 119.629 158.691 98.6328 167.969 80.0781 c 0
 188.477 39.5508 226.074 19.043 279.785 19.043 c 0
 334.473 19.043 389.648 41.5039 444.824 86.9141 c 1
 456.055 75.1953 l 1
EndSplineSet
EndChar
StartChar: D
Encoding: 68 68 37
OldEncoding: 68
Width: 504
Flags: HW
HStem: 0 25<192.5 218 218 265.5> 428 25<269.5 304>
Fore
529 225 m 0
 516 167 488 118 445 78 c 0
 388 26 313 0 218 0 c 2
 23 0 l 1
 26 13 l 1
 45 13 63 17 79 26 c 1
 88 36 95 52 100 74 c 1
 165 379 l 2
 170 403 170 419 164 427 c 0
 161 430 156 434 147 437 c 1
 117 440 l 1
 119 453 l 1
 304 453 l 2
 386 453 447 436 486 401 c 1
 531 363 545 304 529 225 c 0
455 225 m 0
 469 292 459 343 425 378 c 0
 394 411 344 428 276 428 c 0
 263 428 254 426 247 421 c 0
 244 418 241 412 238 401 c 1
 164 54 l 1
 162 41 164 33 171 28 c 0
 176 26 186 25 199 25 c 0
 342 25 427 92 455 225 c 0
EndSplineSet
MinimumDistance: x10,-1 
Back
528.809 225.098 m 0
 516.113 166.992 488.281 118.164 444.824 78.125 c 0
 388.184 25.8789 312.5 0 217.773 0 c 2
 22.9492 0 l 1
 25.8789 13.1836 l 1
 45.4102 13.1836 62.9883 17.0898 79.1016 25.8789 c 1
 88.3789 36.1328 95.2148 51.7578 100.098 74.2188 c 2
 165.039 378.906 l 2
 170.41 402.832 169.922 418.945 164.062 426.758 c 0
 162.598 428.223 160.645 430.176 158.203 432.129 c 0
 155.273 434.082 151.855 435.547 146.973 437.012 c 2
 117.188 439.941 l 1
 119.141 453.125 l 1
 304.199 453.125 l 2
 386.23 453.125 446.777 435.547 485.84 400.879 c 0
 530.762 362.793 544.922 304.199 528.809 225.098 c 0
455.078 225.098 m 0
 469.238 292.48 458.984 343.262 424.805 377.93 c 0
 393.555 411.133 344.238 428.223 275.879 428.223 c 0
 263.184 428.223 253.906 425.781 247.07 420.898 c 0
 244.141 418.457 241.211 411.621 237.793 400.879 c 1
 164.062 54.1992 l 1
 162.109 41.5039 164.551 32.7148 170.898 27.832 c 0
 176.27 25.8789 185.547 24.9023 199.219 24.9023 c 0
 341.797 24.9023 426.758 91.7969 455.078 225.098 c 0
EndSplineSet
EndChar
StartChar: E
Encoding: 69 69 38
OldEncoding: 69
Width: 432
Flags: HW
HStem: 0 26<239 288.5> 223 29<213 311 311 318> 428 25<272 364 364 381.5>
Fore
454 115 m 1
 399 0 l 1
 29 0 l 1
 32 13 l 1
 79 13 93 27 104 74 c 1
 169 379 l 1
 174 406 173 423 166 429 c 1
 150 436 l 1
 123 440 l 1
 125 453 l 1
 489 453 l 1
 470 355 l 1
 453 355 l 1
 455 388 449 408 435 417 c 0
 422 424 399 428 364 428 c 2
 272 428 l 2
 265 428 259 427 255 425 c 0
 250 421 247 414 245 404 c 2
 213 252 l 1
 318 252 l 2
 345 252 364 256 374 264 c 0
 385 272 396 290 406 317 c 1
 423 317 l 1
 390 159 l 1
 373 159 l 1
 375 188 372 205 364 211 c 1
 358 219 340 223 311 223 c 2
 206 223 l 1
 171 55 l 1
 167 38 178 27 205 24 c 0
 192 25 211 26 267 26 c 0
 310 26 341 31 362 42 c 0
 387 55 411 79 434 115 c 1
 454 115 l 1
EndSplineSet
MinimumDistance: x15,-1 
Back
454.102 115.234 m 1
 398.926 0 l 1
 28.8086 0 l 1
 32.2266 13.1836 l 1
 55.1758 13.1836 71.7773 17.0898 81.543 25.8789 c 0
 91.3086 34.668 98.6328 50.7812 104.004 74.2188 c 1
 168.945 378.906 l 1
 174.316 406.25 173.34 422.852 166.016 429.199 c 1
 149.902 436.035 l 1
 123.047 439.941 l 1
 125 453.125 l 1
 488.77 453.125 l 1
 470.215 354.98 l 1
 453.125 354.98 l 1
 455.078 387.695 449.219 408.203 435.059 416.992 c 0
 422.363 424.316 398.438 428.223 363.77 428.223 c 2
 271.973 428.223 l 2
 264.648 428.223 258.789 426.758 254.883 424.805 c 0
 250.488 420.898 247.07 414.062 245.117 403.809 c 2
 212.891 251.953 l 1
 317.871 251.953 l 2
 345.215 251.953 363.77 255.859 374.023 264.16 c 0
 385.254 271.973 395.996 289.551 405.762 316.895 c 1
 422.852 316.895 l 1
 390.137 159.18 l 1
 373.047 159.18 l 1
 375 187.5 372.07 205.078 363.77 210.938 c 1
 357.91 219.238 340.332 223.145 311.035 223.145 c 2
 206.055 223.145 l 1
 170.898 55.1758 l 1
 166.992 37.5977 178.223 27.3438 205.078 23.9258 c 0
 198.242 24.9023 200.195 25.3906 209.961 25.3906 c 0
 220.215 25.8789 238.77 25.8789 267.09 25.8789 c 0
 309.57 25.8789 341.309 31.25 361.816 41.9922 c 0
 374.512 48.8281 387.207 58.1055 398.926 69.8242 c 0
 411.133 82.0312 422.852 97.168 434.082 115.234 c 1
 454.102 115.234 l 1
EndSplineSet
EndChar
StartChar: F
Encoding: 70 70 39
OldEncoding: 70
Width: 400
Flags: HW
HStem: 0 21<20 211 211 211> 225 27 427 25<262 355 355 372.5>
Fore
460 355 m 1
 443 355 l 1
 446 387 439 407 424 416 c 0
 413 423 390 427 355 427 c 2
 262 427 l 2
 248 427 239 419 236 403 c 1
 204 252 l 1
 302 252 l 2
 355 252 377 266 390 316 c 1
 406 316 l 1
 373 158 l 1
 357 158 l 1
 364 209 350 223 295 223 c 2
 198 225 l 1
 166 74 l 1
 155 27 167 13 214 13 c 1
 211 0 l 1
 20 0 l 1
 23 13 l 1
 48 13 66 18 75 29 c 0
 84 38 91 55 96 82 c 1
 159 378 l 1
 165 403 164 420 157 428 c 1
 141 436 l 1
 114 440 l 1
 116 452 l 1
 479 452 l 1
 460 355 l 1
EndSplineSet
MinimumDistance: x0,-1 
Back
459.961 354.98 m 1
 442.871 354.98 l 1
 445.801 387.207 439.453 407.227 423.828 416.016 c 0
 412.598 423.34 389.648 426.758 354.98 426.758 c 2
 262.207 426.758 l 2
 248.047 426.758 239.258 418.945 235.84 402.832 c 2
 204.102 251.953 l 1
 301.758 251.953 l 2
 315.43 251.953 326.66 252.93 336.426 254.883 c 0
 346.191 256.836 354.492 260.742 360.84 265.625 c 0
 367.676 270.508 373.535 276.855 377.93 285.156 c 0
 382.812 292.969 386.719 303.223 390.137 315.918 c 1
 405.762 315.918 l 1
 373.047 158.203 l 1
 356.934 158.203 l 1
 360.352 183.105 357.91 200.684 349.121 209.473 c 0
 340.332 218.262 322.266 223.145 294.922 223.145 c 2
 198.242 225.098 l 1
 166.016 74.2188 l 1
 160.645 50.7812 161.621 34.668 168.457 25.8789 c 0
 175.293 17.0898 190.43 13.1836 213.867 13.1836 c 1
 210.938 0 l 1
 20.0195 0 l 1
 22.9492 13.1836 l 1
 48.3398 13.1836 65.4297 18.5547 75.1953 28.8086 c 0
 83.4961 37.5977 90.8203 55.1758 96.1914 82.0312 c 1
 159.18 377.93 l 1
 165.039 403.32 164.551 419.922 157.227 428.223 c 1
 141.113 436.035 l 1
 113.77 439.941 l 1
 116.211 452.148 l 1
 479.004 452.148 l 1
 459.961 354.98 l 1
EndSplineSet
EndChar
StartChar: G
Encoding: 71 71 40
OldEncoding: 71
Width: 508
Flags: HW
HStem: -8 25<261.5 285.5> 427 27<337.5 374>
Fore
538 226 m 1
 519 224 507 221 502 217 c 0
 492 209 485 194 480 173 c 1
 451 39 l 1
 448 28 423 21 371 6 c 1
 326 -2 294 -8 277 -8 c 0
 196 -8 138 15 103 62 c 0
 80 93 73 129 74 172 c 0
 74 187 78 206 83 229 c 0
 96 294 130 348 184 390 c 0
 238 433 297 454 362 454 c 0
 386 454 411 451 437 445 c 1
 477 431 l 1
 494 431 507 439 514 454 c 1
 528 454 l 1
 503 312 l 1
 488 312 l 1
 475 389 435 427 366 427 c 0
 309 427 262 405 224 360 c 0
 192 321 170 273 158 215 c 0
 146 159 149 111 170 76 c 0
 195 37 234 17 289 17 c 0
 306 17 325 21 344 25 c 0
 371 31 387 41 390 56 c 2
 413 166 l 2
 418 191 418 207 413 216 c 1
 395 223 l 2
 390 225 381 226 368 226 c 1
 371 238 l 1
 541 238 l 1
 538 226 l 1
EndSplineSet
MinimumDistance: x0,-1 
Back
538.086 226.074 m 1
 518.555 224.121 506.836 221.191 501.953 216.797 c 0
 492.188 208.984 484.863 194.336 479.98 172.852 c 2
 451.172 39.0625 l 2
 449.707 33.6914 442.383 28.8086 429.688 23.9258 c 0
 416.504 19.5312 396.973 13.1836 371.094 5.85938 c 1
 348.145 1.95312 329.102 -1.46484 313.477 -3.90625 c 0
 297.852 -6.83594 285.645 -7.8125 276.855 -7.8125 c 0
 195.801 -7.8125 137.695 15.1367 103.027 62.0117 c 0
 91.7969 77.1484 83.9844 94.2383 79.5898 112.305 c 0
 75.1953 130.859 73.2422 150.879 74.2188 171.875 c 0
 74.2188 179.199 74.707 187.988 76.6602 197.266 c 0
 78.125 207.031 80.5664 217.773 83.0078 229.004 c 0
 96.1914 294.434 129.883 348.145 184.082 390.137 c 0
 237.793 432.617 297.363 454.102 361.816 454.102 c 0
 386.23 454.102 411.133 451.172 437.012 444.824 c 1
 477.051 431.152 l 1
 494.141 431.152 506.836 438.477 514.16 454.102 c 1
 527.832 454.102 l 1
 502.93 312.012 l 1
 487.793 312.012 l 1
 475.098 388.672 434.57 426.758 366.211 426.758 c 0
 309.57 426.758 262.207 404.785 224.121 359.863 c 0
 191.895 321.289 169.922 272.949 158.203 214.844 c 0
 151.855 187.012 149.902 161.133 151.367 137.695 c 0
 153.32 113.77 159.18 93.2617 169.922 76.1719 c 0
 194.824 36.6211 234.375 17.0898 289.062 17.0898 c 0
 297.852 17.0898 306.641 18.0664 315.918 19.5312 c 0
 325.195 20.9961 334.473 22.9492 344.238 24.9023 c 0
 371.094 30.7617 386.719 41.5039 390.137 56.1523 c 1
 413.086 166.016 l 2
 418.457 190.43 418.457 207.52 413.086 215.82 c 1
 395.02 223.145 l 2
 390.137 225.098 381.348 226.074 368.164 226.074 c 1
 371.094 237.793 l 1
 541.016 237.793 l 1
 538.086 226.074 l 1
EndSplineSet
EndChar
StartChar: H
Encoding: 72 72 41
OldEncoding: 72
Width: 516
Flags: HW
HStem: 0 21<25 216 216 216 303 493 493 493> 215 31<207 409 409 409> 433 20<121 312 121 121 399 589 399 399>
Fore
493 0 m 1
 303 0 l 1
 306 13 l 1
 331 13 349 18 361 29 c 0
 368 36 374 53 380 82 c 1
 409 215 l 1
 201 215 l 1
 171 74 l 1
 166 53 167 37 172 27 c 0
 173 25 179 22 189 17 c 1
 219 13 l 1
 216 0 l 1
 25 0 l 1
 28 13 l 1
 53 13 71 18 83 29 c 0
 92 38 98 55 103 82 c 1
 167 379 l 2
 172 403 172 419 166 427 c 0
 163 430 158 434 149 437 c 1
 119 441 l 1
 121 453 l 1
 312 453 l 1
 310 441 l 1
 259 441 247 430 236 379 c 2
 207 246 l 1
 415 246 l 1
 444 379 l 1
 451 413 445 432 426 437 c 1
 397 441 l 1
 399 453 l 1
 589 453 l 1
 587 441 l 1
 539 441 525 427 514 379 c 1
 449 74 l 1
 438 27 449 13 496 13 c 1
 493 0 l 1
EndSplineSet
MinimumDistance: x31,-1 
Back
493.164 0 m 1
 303.223 0 l 1
 306.152 13.1836 l 1
 330.566 13.1836 349.121 18.5547 360.84 28.8086 c 0
 367.676 35.6445 374.023 53.2227 379.883 82.0312 c 2
 409.18 214.844 l 1
 201.172 214.844 l 1
 170.898 74.2188 l 2
 166.504 52.7344 166.504 37.1094 171.875 26.8555 c 0
 173.34 24.9023 179.199 21.4844 188.965 17.0898 c 1
 219.238 13.1836 l 1
 215.82 0 l 1
 24.9023 0 l 1
 27.832 13.1836 l 1
 52.7344 13.1836 70.8008 18.5547 83.0078 28.8086 c 0
 91.7969 37.5977 98.1445 55.1758 103.027 82.0312 c 1
 166.992 378.906 l 2
 172.363 402.832 171.875 418.945 166.016 426.758 c 0
 164.551 428.223 162.598 430.176 160.156 432.129 c 0
 157.227 434.082 153.809 435.547 148.926 437.012 c 2
 119.141 440.918 l 1
 121.094 453.125 l 1
 312.012 453.125 l 1
 310.059 440.918 l 1
 297.363 440.918 286.621 439.941 278.32 438.477 c 0
 270.02 437.012 263.184 433.594 257.812 429.199 c 0
 252.441 424.316 248.535 417.969 245.117 410.156 c 0
 241.699 401.855 238.77 391.602 235.84 378.906 c 2
 207.031 246.094 l 1
 415.039 246.094 l 1
 443.848 378.906 l 1
 450.684 413.086 444.824 432.129 425.781 437.012 c 1
 396.973 440.918 l 1
 398.926 453.125 l 1
 588.867 453.125 l 1
 586.914 440.918 l 1
 562.988 440.918 546.387 436.523 536.621 428.223 c 0
 526.855 419.434 519.531 402.832 514.16 378.906 c 2
 449.219 74.2188 l 1
 443.848 50.7812 444.336 34.668 451.172 25.8789 c 0
 457.52 17.0898 472.656 13.1836 496.094 13.1836 c 1
 493.164 0 l 1
EndSplineSet
EndChar
StartChar: I
Encoding: 73 73 42
OldEncoding: 73
Width: 248
Flags: HW
HStem: 0 21<25 227 227 227> 432 20<121 323 121 121>
Fore
227 0 m 1
 25 0 l 1
 28 13 l 1
 80 13 95 23 106 74 c 1
 170 378 l 2
 175 401 175 417 171 427 c 1
 162 436 145 440 119 440 c 1
 121 452 l 1
 323 452 l 1
 321 440 l 1
 298 440 279 436 266 429 c 1
 255 421 247 404 241 378 c 1
 177 74 l 1
 166 23 178 13 230 13 c 1
 227 0 l 1
EndSplineSet
MinimumDistance: x10,-1 
Back
227.051 0 m 1
 24.9023 0 l 1
 27.832 13.1836 l 1
 41.5039 13.1836 52.2461 13.6719 61.0352 15.625 c 0
 69.8242 17.0898 76.6602 20.0195 82.5195 24.4141 c 0
 88.3789 28.8086 92.7734 35.1562 96.6797 42.9688 c 0
 100.098 50.7812 103.516 61.5234 105.957 74.2188 c 2
 169.922 377.93 l 2
 174.805 400.879 174.805 416.992 170.898 426.758 c 1
 162.109 435.547 145.02 439.941 119.141 439.941 c 1
 121.094 452.148 l 1
 323.242 452.148 l 1
 320.801 439.941 l 1
 297.852 439.941 279.297 436.523 266.113 429.199 c 1
 255.371 420.898 247.07 403.809 241.211 377.93 c 1
 176.758 74.2188 l 2
 171.875 48.8281 172.852 32.2266 180.176 24.4141 c 0
 187.5 16.6016 204.102 13.1836 229.98 13.1836 c 1
 227.051 0 l 1
EndSplineSet
EndChar
StartChar: J
Encoding: 74 74 43
OldEncoding: 74
Width: 266
Flags: HW
HStem: -8 21<68.5 96> 433 20<156 353 156 156>
Fore
351 440 m 1
 316 440 293 430 284 410 c 0
 280 403 277 392 275 379 c 1
 221 125 l 1
 212 85 196 53 173 29 c 1
 147 4 115 -8 77 -8 c 0
 60 -8 45 -5 34 2 c 0
 20 11 15 23 19 40 c 0
 22 56 42 74 58 74 c 0
 71 74 80 69 84 59 c 1
 89 31 l 1
 90 21 94 16 100 16 c 0
 119 16 131 31 137 62 c 1
 205 379 l 2
 216 430 205 440 154 440 c 1
 156 453 l 1
 353 453 l 1
 351 440 l 1
EndSplineSet
Back
351.074 439.941 m 1
 315.43 439.941 293.457 430.176 284.18 410.156 c 0
 279.785 402.832 276.855 392.09 274.902 378.906 c 1
 221.191 125 l 1
 211.426 84.9609 195.801 53.2227 172.852 28.8086 c 1
 146.973 4.39453 115.234 -7.8125 77.1484 -7.8125 c 0
 59.5703 -7.8125 45.4102 -4.88281 34.1797 1.95312 c 0
 20.0195 10.7422 15.1367 23.4375 19.043 40.0391 c 0
 20.5078 47.8516 25.3906 55.6641 33.6914 62.9883 c 0
 41.9922 70.3125 49.8047 74.2188 58.1055 74.2188 c 0
 71.2891 74.2188 80.0781 68.8477 83.9844 59.082 c 1
 88.8672 30.7617 l 1
 90.332 20.9961 94.2383 16.1133 100.098 16.1133 c 0
 118.652 16.1133 130.859 31.25 137.207 62.0117 c 1
 205.078 378.906 l 2
 210.449 404.297 209.473 420.898 202.637 428.711 c 0
 195.312 436.035 179.199 439.941 153.809 439.941 c 1
 155.762 453.125 l 1
 353.027 453.125 l 1
 351.074 439.941 l 1
EndSplineSet
EndChar
StartChar: K
Encoding: 75 75 44
OldEncoding: 75
Width: 512
Flags: HW
HStem: 0 21<36 228 228 228 299 507 507 507> 433 20<132 326 132 132 391 570 391 391>
Fore
507 0 m 1
 299 0 l 1
 302 13 l 1
 332 13 349 19 353 30 c 0
 357 47 336 86 289 145 c 2
 230 217 l 1
 210 202 l 1
 183 74 l 2
 178 51 178 35 184 26 c 1
 199 16 l 1
 207 14 218 13 231 13 c 1
 228 0 l 1
 36 0 l 1
 39 13 l 1
 63 13 82 19 95 30 c 0
 102 37 109 54 114 82 c 1
 177 378 l 1
 188 426 178 440 130 440 c 1
 132 453 l 1
 326 453 l 1
 324 440 l 1
 303 440 285 436 270 427 c 1
 261 420 253 403 247 378 c 1
 218 239 l 1
 308 307 l 1
 391 371 l 2
 414 390 428 405 431 418 c 0
 434 433 420 440 389 440 c 1
 391 453 l 1
 570 453 l 1
 568 440 l 1
 557 440 547 439 539 436 c 2
 516 430 l 1
 500 423 479 408 452 386 c 2
 295 258 l 1
 445 51 l 1
 463 31 l 2
 475 19 491 13 510 13 c 1
 507 0 l 1
EndSplineSet
MinimumDistance: x21,-1 x16,21 
Back
506.836 0 m 1
 298.828 0 l 1
 301.758 13.1836 l 1
 332.031 13.1836 349.121 18.5547 353.027 29.7852 c 0
 356.934 47.3633 335.449 85.4492 289.062 145.02 c 1
 229.98 216.797 l 1
 209.961 202.148 l 1
 183.105 74.2188 l 1
 177.734 50.7812 178.223 34.668 184.082 25.8789 c 1
 199.219 16.1133 l 1
 207.031 14.1602 217.773 13.1836 230.957 13.1836 c 1
 228.027 0 l 1
 36.1328 0 l 1
 39.0625 13.1836 l 1
 62.9883 13.1836 81.543 18.5547 95.2148 29.7852 c 0
 102.539 36.6211 108.887 54.1992 113.77 82.0312 c 1
 176.758 377.93 l 2
 182.129 401.855 181.641 418.457 175.293 426.758 c 0
 168.945 435.547 153.809 439.941 129.883 439.941 c 1
 131.836 453.125 l 1
 326.172 453.125 l 1
 324.219 439.941 l 1
 303.223 439.941 285.156 435.547 270.02 426.758 c 1
 260.742 419.434 252.93 403.32 247.07 377.93 c 1
 217.773 238.77 l 1
 308.105 307.129 l 1
 391.113 371.094 l 2
 414.551 389.648 427.734 405.273 431.152 417.969 c 0
 433.594 432.617 419.434 439.941 389.16 439.941 c 1
 391.113 453.125 l 1
 569.824 453.125 l 1
 567.871 439.941 l 1
 556.641 439.941 546.875 438.477 539.062 436.035 c 2
 516.113 430.176 l 1
 500 422.852 478.516 408.203 452.148 386.23 c 2
 294.922 257.812 l 1
 444.824 50.7812 l 1
 462.891 30.7617 l 2
 475.098 19.043 490.723 13.1836 509.766 13.1836 c 1
 506.836 0 l 1
EndSplineSet
EndChar
StartChar: L
Encoding: 76 76 45
OldEncoding: 76
Width: 433
Flags: HW
HStem: 0 26<208.5 212 212 233> 433 20<125 319 125 125>
Fore
456 119 m 1
 398 0 l 1
 29 0 l 1
 32 13 l 1
 79 13 93 27 104 74 c 1
 169 379 l 1
 174 406 173 423 166 429 c 1
 150 436 l 1
 123 440 l 1
 125 453 l 1
 319 453 l 1
 317 440 l 1
 284 437 l 1
 264 429 l 1
 253 421 245 404 240 379 c 1
 171 55 l 1
 168 44 169 36 176 32 c 0
 179 30 186 28 199 27 c 0
 201 26 205 26 212 26 c 2
 233 26 l 2
 293 26 333 30 352 39 c 0
 382 52 411 78 438 119 c 1
 456 119 l 1
EndSplineSet
MinimumDistance: x13,-1 x6,13 
Back
456.055 119.141 m 1
 397.949 0 l 1
 28.8086 0 l 1
 32.2266 13.1836 l 1
 55.1758 13.1836 71.7773 17.0898 81.543 25.8789 c 0
 91.3086 34.668 98.6328 50.7812 104.004 74.2188 c 1
 168.945 378.906 l 1
 174.316 406.25 173.34 422.852 166.016 429.199 c 1
 149.902 436.035 l 1
 123.047 439.941 l 1
 125 453.125 l 1
 318.848 453.125 l 1
 316.895 439.941 l 1
 284.18 437.012 l 1
 264.16 429.199 l 1
 253.418 420.898 245.117 404.297 240.234 378.906 c 2
 170.898 55.1758 l 1
 167.48 43.457 169.434 36.1328 175.781 32.2266 c 0
 178.711 29.7852 186.523 28.3203 199.219 26.8555 c 0
 201.172 26.3672 205.566 25.8789 211.914 25.8789 c 2
 232.91 25.8789 l 2
 292.969 25.8789 332.52 30.2734 352.051 39.0625 c 0
 381.836 51.7578 410.645 78.125 437.988 119.141 c 1
 456.055 119.141 l 1
EndSplineSet
EndChar
StartChar: M
Encoding: 77 77 46
OldEncoding: 77
Width: 625
Flags: HW
HStem: 0 21<20 181 181 181 288 298 298 298 410 601 601 601> 432 20<118 252 118 118 561 697 561 561>
Fore
601 0 m 1
 410 0 l 1
 413 13 l 1
 439 13 457 18 468 28 c 1
 477 38 484 56 489 82 c 1
 554 388 l 1
 298 0 l 1
 288 0 l 1
 196 373 l 1
 137 100 l 1
 130 69 129 47 133 36 c 0
 138 21 155 13 184 13 c 1
 181 0 l 1
 20 0 l 1
 23 13 l 1
 52 13 73 21 84 36 c 0
 92 46 100 67 107 100 c 2
 166 377 l 1
 172 402 171 419 163 427 c 0
 160 430 155 432 146 435 c 1
 115 439 l 1
 118 452 l 1
 252 452 l 1
 337 107 l 1
 561 452 l 1
 697 452 l 1
 694 439 l 1
 647 439 633 424 622 377 c 1
 558 74 l 2
 551 41 556 22 575 16 c 1
 604 13 l 1
 601 0 l 1
EndSplineSet
MinimumDistance: x27,-1 
Back
601.074 0 m 1
 410.156 0 l 1
 413.086 13.1836 l 1
 438.965 13.1836 457.52 18.0664 467.773 27.832 c 0
 477.539 38.0859 484.375 56.1523 488.77 82.0312 c 1
 554.199 388.184 l 1
 297.852 0 l 1
 288.086 0 l 1
 195.801 373.047 l 1
 137.207 100.098 l 2
 130.371 68.8477 128.906 47.3633 132.812 36.1328 c 0
 137.695 20.5078 154.785 13.1836 184.082 13.1836 c 1
 181.152 0 l 1
 20.0195 0 l 1
 22.9492 13.1836 l 1
 52.2461 13.1836 72.7539 20.5078 83.9844 36.1328 c 0
 91.7969 45.8984 99.6094 67.3828 106.934 100.098 c 1
 166.016 376.953 l 1
 171.875 402.344 170.898 418.945 163.086 426.758 c 0
 160.156 429.688 154.785 432.129 145.996 435.059 c 1
 115.234 438.965 l 1
 118.164 452.148 l 1
 251.953 452.148 l 1
 336.914 106.934 l 1
 561.035 452.148 l 1
 696.777 452.148 l 1
 693.848 438.965 l 1
 670.898 438.965 654.297 434.57 644.531 425.293 c 0
 634.766 416.504 627.441 400.391 622.07 376.953 c 1
 558.105 74.2188 l 1
 550.781 41.5039 556.152 21.9727 575.195 16.1133 c 1
 604.004 13.1836 l 1
 601.074 0 l 1
EndSplineSet
EndChar
StartChar: N
Encoding: 78 78 47
OldEncoding: 78
Width: 510
Flags: HW
HStem: -6 21<419 430 430 430> 433 20<116 234 116 116 431 593 431 431>
Fore
591 440 m 1
 564 440 544 432 530 415 c 0
 520 402 512 381 506 352 c 2
 430 -6 l 1
 419 -6 l 1
 196 368 l 1
 138 101 l 2
 131 69 130 47 134 36 c 0
 139 21 156 13 185 13 c 1
 182 0 l 1
 20 0 l 1
 23 13 l 1
 52 13 72 21 85 36 c 0
 93 46 101 68 108 101 c 2
 173 403 l 1
 159 428 139 440 114 440 c 1
 116 453 l 1
 234 453 l 1
 426 124 l 1
 477 352 l 2
 484 384 485 406 481 417 c 0
 474 432 457 440 429 440 c 1
 431 453 l 1
 593 453 l 1
 591 440 l 1
EndSplineSet
MinimumDistance: x2,-1 
Back
590.82 439.941 m 1
 564.453 439.941 543.945 431.641 529.785 415.039 c 0
 520.02 402.344 512.207 381.348 505.859 352.051 c 2
 430.176 -5.85938 l 1
 418.945 -5.85938 l 1
 195.801 368.164 l 1
 138.184 101.074 l 1
 131.348 68.8477 129.883 47.3633 133.789 36.1328 c 0
 138.672 20.5078 155.762 13.1836 185.059 13.1836 c 1
 182.129 0 l 1
 20.0195 0 l 1
 22.9492 13.1836 l 1
 51.7578 13.1836 72.2656 20.5078 84.9609 36.1328 c 0
 92.7734 45.8984 100.586 67.8711 107.91 101.074 c 2
 172.852 402.832 l 1
 159.18 427.734 139.16 439.941 113.77 439.941 c 1
 116.211 453.125 l 1
 233.887 453.125 l 1
 425.781 124.023 l 1
 477.051 352.051 l 1
 483.887 383.789 484.863 405.762 480.957 416.992 c 0
 474.121 432.129 457.031 439.941 429.199 439.941 c 1
 431.152 453.125 l 1
 592.773 453.125 l 1
 590.82 439.941 l 1
EndSplineSet
EndChar
StartChar: O
Encoding: 79 79 48
OldEncoding: 79
Width: 526
Flags: HW
HStem: -8 22<237.5 288.5> 437 24<327.5 377.5>
Fore
531 225 m 0
 517 158 485 102 434 57 c 0
 385 14 326 -8 258 -8 c 0
 191 -8 141 14 110 57 c 0
 79 100 70 156 84 225 c 0
 98 292 131 349 182 394 c 0
 231 439 290 461 358 461 c 0
 426 461 475 439 506 394 c 0
 537 351 545 294 531 225 c 0
453 226 m 0
 465 281 465 328 453 366 c 0
 436 413 402 437 353 437 c 0
 302 437 258 414 223 367 c 0
 194 330 174 283 162 226 c 0
 150 170 150 123 163 86 c 0
 178 38 212 14 263 14 c 0
 314 14 357 38 393 86 c 0
 421 124 441 171 453 226 c 0
EndSplineSet
Back
530.762 225.098 m 0
 517.09 157.715 484.863 101.562 434.082 57.1289 c 0
 384.766 13.6719 326.172 -7.8125 257.812 -7.8125 c 0
 190.43 -7.8125 141.113 13.6719 109.863 57.1289 c 0
 78.6133 100.098 69.8242 156.25 83.9844 225.098 c 0
 98.1445 292.48 130.859 348.633 182.129 394.043 c 0
 231.445 438.477 290.039 460.938 357.91 460.938 c 0
 425.781 460.938 475.098 438.477 505.859 394.043 c 0
 536.621 350.586 544.922 294.434 530.762 225.098 c 0
453.125 226.074 m 0
 464.844 281.25 464.844 328.125 453.125 366.211 c 1
 435.547 413.574 402.344 437.012 353.027 437.012 c 0
 301.758 437.012 258.301 413.574 223.145 367.188 c 0
 194.336 330.566 173.828 283.203 162.109 226.074 c 0
 149.902 169.922 150.391 123.535 163.086 85.9375 c 0
 178.223 38.0859 211.426 14.1602 263.184 14.1602 c 0
 313.477 14.1602 356.934 38.0859 393.066 85.9375 c 0
 420.898 124.023 440.918 170.898 453.125 226.074 c 0
EndSplineSet
EndChar
StartChar: P
Encoding: 80 80 49
OldEncoding: 80
Width: 401
Flags: HW
HStem: 0 21<23 215 215 215> 428 25<257.5 300>
Fore
453 330 m 0
 443 283 415 248 369 225 c 0
 333 206 290 198 238 198 c 2
 221 198 l 1
 193 200 l 1
 166 74 l 1
 155 26 170 13 218 13 c 1
 215 0 l 1
 23 0 l 1
 26 13 l 1
 50 13 67 18 78 29 c 0
 87 38 93 56 98 82 c 1
 162 379 l 1
 173 427 164 440 117 440 c 1
 119 453 l 1
 300 453 l 2
 348 453 385 444 414 428 c 0
 450 407 463 375 453 330 c 0
379 329 m 0
 393 395 356 428 269 428 c 0
 246 428 240 425 236 405 c 1
 198 227 l 1
 205 227 212 226 219 225 c 2
 239 225 l 2
 318 225 364 260 379 329 c 0
EndSplineSet
MinimumDistance: x12,-1 
Back
453.125 330.078 m 0
 442.871 283.203 415.039 248.535 369.141 225.098 c 0
 351.074 215.82 331.055 208.984 309.57 204.59 c 0
 287.598 200.195 264.16 198.242 237.793 198.242 c 2
 221.191 198.242 l 1
 192.871 200.195 l 1
 166.016 74.2188 l 2
 160.645 49.8047 162.109 33.6914 169.922 25.3906 c 0
 178.223 17.0898 193.848 13.1836 217.773 13.1836 c 1
 214.844 0 l 1
 22.9492 0 l 1
 25.8789 13.1836 l 1
 49.8047 13.1836 67.3828 18.5547 78.125 28.8086 c 0
 86.4258 38.5742 93.2617 56.1523 98.1445 82.0312 c 1
 162.109 378.906 l 2
 167.48 402.832 166.992 418.945 161.133 427.734 c 0
 154.785 436.035 140.137 439.941 117.188 439.941 c 1
 119.141 453.125 l 1
 299.805 453.125 l 2
 324.219 453.125 345.215 450.684 363.77 446.289 c 0
 382.812 442.383 399.414 436.035 414.062 428.223 c 0
 450.195 407.227 462.891 374.512 453.125 330.078 c 0
378.906 329.102 m 0
 393.066 395.02 356.445 428.223 269.043 428.223 c 0
 257.812 428.223 250 426.758 245.605 423.828 c 0
 241.211 421.387 237.793 415.039 235.84 404.785 c 2
 198.242 227.051 l 1
 201.172 227.051 204.59 227.051 208.496 226.562 c 0
 212.402 226.074 215.82 225.586 219.238 225.098 c 2
 238.77 225.098 l 2
 317.871 225.098 364.258 259.766 378.906 329.102 c 0
EndSplineSet
EndChar
StartChar: Q
Encoding: 81 81 50
OldEncoding: 81
Width: 525
Flags: HW
HStem: -115 130 436 25<326 377.5>
Fore
435 -109 m 1
 406 -110 l 2
 310 -113 244 -87 209 -32 c 1
 193 0 l 1
 150 11 113 40 94 84 c 0
 77 125 73 172 84 225 c 0
 98 294 130 350 181 393 c 1
 232 438 290 461 357 461 c 0
 424 461 474 438 505 393 c 0
 536 350 544 294 530 225 c 0
 516 158 484 102 433 57 c 0
 393 22 333 2 290 -3 c 1
 302 -28 l 1
 325 -54 l 1
 354 -83 391 -97 437 -97 c 1
 435 -109 l 1
452 225 m 0
 464 280 464 327 452 365 c 0
 436 412 403 436 352 436 c 0
 300 436 257 412 222 365 c 0
 193 326 174 281 162 225 c 0
 149 168 149 121 162 85 c 0
 177 38 210 15 262 15 c 0
 313 15 356 39 391 86 c 0
 420 125 441 172 452 225 c 0
EndSplineSet
Back
435.059 -108.887 m 1
 405.762 -109.863 l 2
 310.059 -113.281 244.141 -87.4023 208.984 -32.2266 c 1
 192.871 0 l 1
 171.875 5.37109 152.344 15.1367 134.277 29.2969 c 0
 116.699 43.9453 103.516 62.0117 94.2383 83.9844 c 0
 76.6602 125.488 73.2422 172.363 83.9844 225.098 c 0
 98.1445 293.457 130.371 349.609 181.152 393.066 c 1
 231.445 438.477 290.527 460.938 356.934 460.938 c 0
 424.316 460.938 473.633 438.477 504.883 393.066 c 0
 535.645 350.098 543.945 294.434 529.785 225.098 c 0
 516.113 157.715 483.887 101.562 433.105 57.1289 c 0
 413.086 39.5508 389.648 25.8789 362.305 16.1133 c 0
 335.449 5.85938 311.523 -0.488281 290.039 -2.92969 c 1
 301.758 -27.832 l 1
 325.195 -54.1992 l 1
 353.516 -82.5195 391.113 -97.168 437.012 -97.168 c 1
 435.059 -108.887 l 1
452.148 225.098 m 0
 463.867 280.273 463.867 327.148 452.148 365.234 c 0
 436.035 412.109 402.832 436.035 352.051 436.035 c 0
 299.805 436.035 256.836 412.109 222.168 365.234 c 0
 207.52 345.703 195.312 324.707 185.547 301.27 c 0
 175.781 278.32 167.969 252.93 162.109 225.098 c 0
 149.414 167.48 149.414 121.094 162.109 84.9609 c 0
 176.758 38.5742 209.961 15.1367 262.207 15.1367 c 0
 313.477 15.1367 356.445 38.5742 391.113 85.9375 c 0
 420.41 125.488 440.43 171.875 452.148 225.098 c 0
EndSplineSet
EndChar
StartChar: R
Encoding: 82 82 51
OldEncoding: 82
Width: 474
Flags: HW
HStem: 0 21<26 215 215 215 355 465 465 465> 428 25<279 310>
Fore
465 0 m 1
 355 0 l 1
 237 211 l 1
 198 209 l 1
 170 74 l 1
 159 27 171 13 218 13 c 1
 215 0 l 1
 26 0 l 1
 29 13 l 1
 53 13 70 18 81 29 c 0
 88 36 94 53 100 82 c 1
 164 379 l 2
 169 403 169 419 165 426 c 0
 158 435 143 440 120 440 c 1
 122 453 l 1
 310 453 l 2
 427 453 477 413 460 334 c 0
 447 273 397 235 310 218 c 1
 415 45 l 2
 428 24 445 13 468 13 c 1
 465 0 l 1
385 335 m 0
 398 397 366 428 287 428 c 0
 271 428 261 427 257 426 c 0
 248 423 242 415 240 403 c 1
 204 235 l 1
 248 235 282 240 309 249 c 0
 350 263 376 292 385 335 c 0
EndSplineSet
MinimumDistance: x16,-1 
Back
464.844 0 m 1
 354.98 0 l 1
 236.816 210.938 l 1
 198.242 208.984 l 1
 169.922 74.2188 l 1
 164.551 50.7812 165.527 34.668 172.363 25.8789 c 0
 179.688 17.0898 194.824 13.1836 217.773 13.1836 c 1
 214.844 0 l 1
 25.8789 0 l 1
 28.8086 13.1836 l 1
 53.2227 13.1836 70.3125 18.5547 81.0547 28.8086 c 0
 87.8906 35.6445 94.2383 53.2227 100.098 82.0312 c 2
 164.062 378.906 l 1
 168.457 402.832 168.945 418.457 165.039 425.781 c 0
 157.715 435.547 142.578 439.941 120.117 439.941 c 1
 122.07 453.125 l 1
 310.059 453.125 l 2
 427.246 453.125 477.539 413.574 459.961 333.984 c 0
 447.266 273.438 397.461 234.863 310.059 217.773 c 1
 415.039 44.9219 l 2
 427.734 23.4375 445.312 13.1836 467.773 13.1836 c 1
 464.844 0 l 1
384.766 334.961 m 0
 398.438 396.973 365.723 428.223 287.109 428.223 c 0
 270.996 428.223 261.23 427.246 256.836 425.781 c 0
 247.559 422.852 242.188 415.039 240.234 402.832 c 1
 204.102 234.863 l 1
 226.074 234.863 245.605 236.328 263.184 238.281 c 0
 280.273 240.723 295.898 244.141 309.082 249.023 c 0
 350.098 263.184 375.488 291.504 384.766 334.961 c 0
EndSplineSet
EndChar
StartChar: S
Encoding: 83 83 52
OldEncoding: 83
Width: 401
Flags: HW
HStem: -8 22<196.5 222.5> -7 21 433 28<263.5 289.5>
Fore
374 114 m 0
 366 77 344 47 309 23 c 0
 276 2 241 -8 204 -8 c 0
 189 -8 171 -5 148 2 c 0
 125 10 111 13 102 13 c 0
 88 13 80 6 78 -7 c 1
 62 -7 l 1
 72 135 l 1
 87 135 l 1
 103 54 141 14 202 14 c 0
 246 14 291 47 300 91 c 0
 306 117 299 142 278 165 c 0
 269 174 248 190 215 211 c 0
 183 232 164 248 152 263 c 0
 135 286 130 313 136 345 c 0
 152 414 212 461 284 461 c 0
 295 461 313 457 338 449 c 2
 375 438 l 1
 386 438 396 446 403 461 c 1
 418 461 l 1
 401 316 l 1
 385 316 l 1
 385 348 377 375 360 398 c 1
 340 421 314 433 283 433 c 0
 244 433 209 408 200 369 c 0
 194 342 208 315 242 289 c 2
 338 219 l 2
 372 194 384 159 374 114 c 0
EndSplineSet
Back
374.023 113.77 m 0
 366.211 77.1484 344.238 46.875 309.082 22.9492 c 1
 275.879 2.44141 240.723 -7.8125 204.102 -7.8125 c 0
 189.453 -7.8125 170.898 -4.88281 147.949 1.95312 c 0
 136.719 5.85938 127.441 8.78906 120.117 10.7422 c 0
 112.793 12.207 106.445 13.1836 102.051 13.1836 c 0
 87.8906 13.1836 80.0781 6.34766 78.125 -6.83594 c 1
 62.0117 -6.83594 l 1
 71.7773 134.766 l 1
 86.9141 134.766 l 1
 103.027 54.1992 141.113 14.1602 202.148 14.1602 c 0
 224.121 14.1602 244.629 21.4844 264.16 36.1328 c 0
 283.203 50.7812 295.41 68.8477 299.805 90.8203 c 0
 306.152 117.188 298.828 141.602 277.832 165.039 c 0
 273.438 169.434 265.625 175.781 255.371 183.594 c 0
 245.117 191.406 231.445 200.195 214.844 210.938 c 0
 199.219 221.68 186.035 230.957 175.781 239.258 c 0
 166.016 248.047 158.203 255.859 151.855 263.184 c 0
 135.254 285.645 129.883 312.988 136.23 345.215 c 0
 140.137 362.305 146.484 377.93 155.273 392.578 c 0
 164.551 406.738 175.781 418.945 188.965 429.199 c 0
 202.148 438.965 216.797 446.777 232.91 452.637 c 0
 249.023 458.008 266.113 460.938 284.18 460.938 c 0
 295.41 460.938 313.477 457.031 337.891 449.219 c 2
 375 437.988 l 1
 386.23 437.988 395.508 445.801 402.832 460.938 c 1
 417.969 460.938 l 1
 400.879 315.918 l 1
 384.766 315.918 l 1
 384.766 348.145 376.465 375.488 359.863 397.949 c 1
 339.844 421.387 314.453 433.105 283.203 433.105 c 0
 263.672 433.105 246.094 427.246 230.469 415.527 c 0
 214.844 403.809 204.59 388.184 200.195 369.141 c 0
 193.848 341.797 208.008 314.941 242.188 289.062 c 2
 337.891 219.238 l 2
 372.07 193.848 383.789 158.691 374.023 113.77 c 0
EndSplineSet
EndChar
StartChar: T
Encoding: 84 84 53
OldEncoding: 84
Width: 443
Flags: HW
HStem: 0 21<121 321 321 321> 425 28<239 276 276 276 346 383 383 401.5>
Fore
490 337 m 1
 473 337 l 1
 474 372 468 396 456 407 c 0
 444 419 420 425 383 425 c 2
 346 425 l 1
 272 74 l 1
 261 26 273 13 324 13 c 1
 321 0 l 1
 121 0 l 1
 124 13 l 1
 151 13 171 18 183 29 c 0
 190 35 197 53 203 82 c 2
 276 425 l 1
 239 425 l 2
 203 425 177 419 160 408 c 0
 143 397 127 373 112 337 c 1
 96 337 l 1
 124 453 l 1
 510 453 l 1
 490 337 l 1
EndSplineSet
MinimumDistance: x3,-1 
Back
490.234 336.914 m 1
 473.145 336.914 l 1
 473.633 372.559 467.773 395.508 456.055 407.227 c 0
 443.848 418.945 419.434 424.805 382.812 424.805 c 2
 346.191 424.805 l 1
 271.973 74.2188 l 1
 266.602 49.8047 267.578 33.6914 274.902 25.3906 c 0
 282.227 17.0898 298.828 13.1836 324.219 13.1836 c 1
 320.801 0 l 1
 121.094 0 l 1
 124.023 13.1836 l 1
 151.367 13.1836 170.898 18.5547 183.105 28.8086 c 0
 190.43 35.1562 196.777 52.7344 203.125 82.0312 c 1
 275.879 424.805 l 1
 238.77 424.805 l 2
 203.125 424.805 176.758 419.434 160.156 408.203 c 0
 142.578 396.484 126.465 373.047 111.816 336.914 c 1
 96.1914 336.914 l 1
 124.023 453.125 l 1
 509.766 453.125 l 1
 490.234 336.914 l 1
EndSplineSet
EndChar
StartChar: U
Encoding: 85 85 54
OldEncoding: 85
Width: 527
Flags: HW
HStem: -8 28<244 296.5> 433 20<125 319 125 125 439 598 439 439>
Fore
596 440 m 1
 564 437 543 429 534 416 c 0
 527 407 520 387 513 352 c 1
 475 174 l 1
 465 125 450 87 429 62 c 0
 392 15 335 -8 258 -8 c 0
 146 -8 102 50 126 165 c 1
 172 379 l 1
 183 427 171 440 123 440 c 1
 125 453 l 1
 319 453 l 1
 317 440 l 1
 267 440 252 430 241 379 c 2
 194 159 l 2
 174 66 204 20 284 20 c 0
 337 20 378 38 408 74 c 0
 423 91 434 120 443 167 c 1
 483 352 l 1
 490 383 491 404 486 415 c 1
 481 432 465 440 437 440 c 1
 439 453 l 1
 598 453 l 1
 596 440 l 1
EndSplineSet
MinimumDistance: x0,-1 
Back
596.191 439.941 m 1
 563.965 436.523 543.457 428.711 534.18 416.016 c 0
 530.762 411.133 527.344 403.809 523.438 393.555 c 0
 520.02 383.301 516.113 369.141 513.184 352.051 c 1
 475.098 173.828 l 1
 464.844 124.512 449.707 87.4023 429.199 62.0117 c 0
 392.09 15.1367 335.449 -7.8125 257.812 -7.8125 c 0
 145.996 -7.8125 102.051 49.8047 125.977 165.039 c 1
 171.875 378.906 l 2
 177.246 402.832 176.27 418.945 169.434 427.734 c 0
 162.598 436.035 146.973 439.941 123.047 439.941 c 1
 125 453.125 l 1
 318.848 453.125 l 1
 316.895 439.941 l 1
 304.199 439.941 293.945 438.965 285.645 437.5 c 0
 277.344 436.035 270.02 432.617 264.16 428.711 c 0
 257.812 424.316 253.418 417.969 250 410.156 c 0
 246.582 401.855 243.652 391.602 241.211 378.906 c 2
 193.848 159.18 l 2
 173.828 66.4062 204.102 20.0195 284.18 20.0195 c 0
 336.426 20.0195 377.93 38.0859 408.203 74.2188 c 0
 415.527 82.5195 421.875 94.7266 427.734 109.375 c 0
 433.105 124.512 438.477 143.555 442.871 166.992 c 1
 482.91 352.051 l 2
 486.328 367.188 488.281 380.371 488.77 391.113 c 0
 489.746 401.855 488.77 409.668 485.84 415.039 c 0
 481.445 431.641 464.844 439.941 437.012 439.941 c 1
 438.965 453.125 l 1
 598.145 453.125 l 1
 596.191 439.941 l 1
EndSplineSet
EndChar
StartChar: V
Encoding: 86 86 55
OldEncoding: 86
Width: 483
Flags: HW
HStem: -6 21<250 260 260 260> 433 20<105 287 105 105 431 572 431 431>
Fore
570 441 m 1
 561 441 553 440 548 437 c 2
 531 428 l 1
 526 423 520 417 514 408 c 2
 492 377 l 1
 260 -6 l 1
 250 -6 l 1
 159 369 l 1
 152 400 145 419 138 428 c 1
 128 435 l 2
 121 439 113 441 103 441 c 1
 105 453 l 1
 287 453 l 1
 285 441 l 1
 264 441 249 439 240 434 c 1
 235 433 231 427 228 415 c 0
 227 410 232 386 242 342 c 2
 295 111 l 1
 449 362 l 1
 460 377 467 393 472 409 c 1
 476 430 462 441 429 441 c 1
 431 453 l 1
 572 453 l 1
 570 441 l 1
EndSplineSet
Back
569.824 440.918 m 1
 560.547 440.918 553.223 439.453 547.852 437.012 c 2
 530.762 428.223 l 1
 525.879 423.34 520.02 416.504 514.16 408.203 c 2
 492.188 376.953 l 1
 259.766 -5.85938 l 1
 250 -5.85938 l 1
 159.18 369.141 l 1
 155.762 384.277 152.344 396.973 148.438 406.738 c 0
 145.02 416.016 141.113 423.34 138.184 428.223 c 1
 127.93 435.059 l 2
 121.094 438.965 112.793 440.918 103.027 440.918 c 1
 104.98 453.125 l 1
 287.109 453.125 l 1
 285.156 440.918 l 1
 264.16 440.918 249.512 438.477 240.234 434.082 c 1
 235.352 433.105 231.445 426.758 228.027 415.039 c 0
 227.539 410.156 231.934 386.23 242.188 341.797 c 2
 294.922 110.84 l 1
 449.219 361.816 l 1
 459.473 377.441 467.285 393.066 472.168 409.18 c 0
 476.074 430.176 461.426 440.918 429.199 440.918 c 1
 431.152 453.125 l 1
 571.777 453.125 l 1
 569.824 440.918 l 1
EndSplineSet
EndChar
StartChar: W
Encoding: 87 87 56
OldEncoding: 87
Width: 662
Flags: HW
HStem: -6 21<217 227 227 227 443 452 452 452> 433 20<111 279 111 111 322 505 322 322 611 746 611 611>
Fore
744 440 m 1
 709 433 698 427 681 398 c 2
 564 198 l 1
 504 91 l 1
 452 -6 l 1
 443 -6 l 1
 435 50 421 145 394 282 c 1
 227 -6 l 1
 217 -6 l 1
 193 170 l 1
 163 360 l 1
 159 390 155 408 151 414 c 0
 143 429 129 438 109 440 c 1
 111 453 l 1
 279 453 l 1
 277 440 l 1
 270 440 264 439 257 438 c 2
 238 432 l 2
 233 430 229 425 227 417 c 0
 226 412 226 402 228 386 c 1
 272 129 l 1
 387 323 l 1
 377 379 l 1
 372 402 369 418 362 425 c 0
 354 435 340 440 320 440 c 1
 322 453 l 1
 505 453 l 1
 503 440 l 1
 468 440 448 431 444 414 c 1
 445 398 l 1
 452 361 l 1
 492 127 l 1
 627 359 l 2
 639 380 646 396 649 409 c 0
 651 421 648 429 639 434 c 1
 627 438 l 1
 609 440 l 1
 611 453 l 1
 746 453 l 1
 744 440 l 1
EndSplineSet
Back
744.141 439.941 m 1
 726.562 436.523 713.867 432.617 706.055 427.734 c 0
 698.242 422.363 689.453 412.598 681.152 397.949 c 2
 563.965 198.242 l 1
 503.906 90.8203 l 1
 452.148 -5.85938 l 1
 442.871 -5.85938 l 1
 438.965 21.9727 433.105 60.0586 425.293 107.422 c 0
 417.969 155.273 407.227 213.379 394.043 282.227 c 1
 227.051 -5.85938 l 1
 216.797 -5.85938 l 1
 192.871 169.922 l 1
 163.086 359.863 l 1
 159.18 390.137 154.785 408.203 150.879 414.062 c 0
 143.066 429.199 128.906 437.988 108.887 439.941 c 1
 110.84 453.125 l 1
 278.809 453.125 l 1
 276.855 439.941 l 1
 270.508 439.941 263.672 439.453 256.836 437.988 c 2
 237.793 432.129 l 2
 232.91 430.176 229.004 424.805 227.051 416.992 c 0
 225.586 412.109 226.074 401.855 228.027 386.23 c 1
 271.973 128.906 l 1
 387.207 323.242 l 1
 376.953 378.906 l 1
 374.512 390.137 372.07 399.902 370.117 408.203 c 0
 368.164 416.016 365.234 421.875 361.816 424.805 c 0
 354.004 435.059 339.844 439.941 319.824 439.941 c 1
 321.777 453.125 l 1
 504.883 453.125 l 1
 502.93 439.941 l 1
 467.773 439.941 448.242 431.152 443.848 414.062 c 1
 444.824 397.949 l 1
 452.148 360.84 l 1
 492.188 126.953 l 1
 626.953 358.887 l 2
 639.16 379.883 646.484 396.484 648.926 409.18 c 0
 650.879 420.898 647.461 429.199 639.16 434.082 c 1
 626.953 437.988 l 1
 608.887 439.941 l 1
 610.84 453.125 l 1
 746.094 453.125 l 1
 744.141 439.941 l 1
EndSplineSet
EndChar
StartChar: X
Encoding: 88 88 57
OldEncoding: 88
Width: 513
Flags: HW
HStem: 0 21<19 179 179 179 291 495 495 495> 433 20<123 331 123 123 423 585 423 423>
Fore
495 0 m 1
 291 0 l 1
 294 13 l 1
 335 18 l 1
 344 21 349 27 352 36 c 0
 354 45 347 67 331 102 c 2
 286 198 l 1
 182 96 l 2
 153 67 137 47 135 38 c 0
 132 21 147 13 182 13 c 1
 179 0 l 1
 19 0 l 1
 22 13 l 1
 41 15 57 20 69 28 c 1
 101 56 l 1
 137 91 l 1
 273 223 l 1
 222 333 l 2
 198 384 181 413 168 424 c 0
 159 433 144 437 121 440 c 1
 123 453 l 1
 331 453 l 1
 329 440 l 1
 308 440 297 440 295 439 c 0
 282 436 275 429 272 419 c 0
 269 405 281 371 308 317 c 2
 328 277 l 1
 426 371 l 1
 452 398 l 2
 459 405 461 411 464 418 c 1
 467 433 452 440 421 440 c 1
 423 453 l 1
 585 453 l 1
 583 440 l 1
 560 440 539 435 520 422 c 0
 508 413 491 399 467 376 c 2
 342 252 l 1
 433 64 l 2
 448 33 469 16 498 13 c 1
 495 0 l 1
EndSplineSet
MinimumDistance: x35,-1 
Back
495.117 0 m 1
 291.016 0 l 1
 293.945 13.1836 l 1
 334.961 18.0664 l 1
 343.75 21.4844 349.121 27.3438 352.051 36.1328 c 0
 354.004 45.4102 347.168 67.3828 331.055 102.051 c 2
 286.133 198.242 l 1
 182.129 96.1914 l 2
 152.832 66.8945 137.207 47.3633 134.766 38.0859 c 0
 131.836 21.4844 147.461 13.1836 182.129 13.1836 c 1
 179.199 0 l 1
 19.043 0 l 1
 21.9727 13.1836 l 1
 41.5039 15.1367 57.1289 20.0195 68.8477 27.832 c 1
 101.074 56.1523 l 1
 137.207 90.8203 l 1
 272.949 223.145 l 1
 222.168 333.008 l 2
 209.961 358.398 199.707 378.418 190.918 393.555 c 0
 182.129 408.691 174.805 418.457 167.969 423.828 c 0
 163.574 428.711 157.227 432.129 149.414 434.57 c 0
 141.602 437.012 132.324 438.477 121.094 439.941 c 1
 123.047 453.125 l 1
 331.055 453.125 l 1
 329.102 439.941 l 1
 308.105 439.941 296.875 439.453 294.922 438.965 c 0
 282.227 435.547 274.902 429.199 271.973 418.945 c 0
 269.531 404.785 281.25 371.094 308.105 316.895 c 2
 328.125 276.855 l 1
 425.781 371.094 l 1
 452.148 397.949 l 2
 455.566 401.367 458.008 404.785 459.473 408.203 c 0
 460.938 411.133 462.891 414.551 463.867 417.969 c 0
 466.797 432.617 452.148 439.941 420.898 439.941 c 1
 422.852 453.125 l 1
 584.961 453.125 l 1
 583.008 439.941 l 1
 571.777 439.941 560.547 438.477 549.805 436.035 c 0
 539.551 433.105 529.297 428.711 520.02 421.875 c 0
 514.16 417.48 506.836 411.133 498.047 403.809 c 0
 489.258 396.484 479.004 387.207 466.797 375.977 c 2
 341.797 251.953 l 1
 433.105 63.9648 l 2
 447.754 33.2031 469.238 16.1133 498.047 13.1836 c 1
 495.117 0 l 1
EndSplineSet
EndChar
StartChar: Y
Encoding: 89 89 58
OldEncoding: 89
Width: 498
Flags: HW
HStem: 0 21<149 359 359 359> 433 20<113 305 113 113 430 580 430 430>
Fore
578 441 m 1
 561 439 547 435 536 428 c 0
 519 417 497 397 466 362 c 2
 332 208 l 1
 304 74 l 2
 299 50 299 34 305 25 c 1
 315 17 334 13 362 13 c 1
 359 0 l 1
 149 0 l 1
 152 13 l 1
 181 13 202 18 215 28 c 1
 222 35 229 53 235 82 c 1
 261 202 l 1
 200 333 l 2
 178 379 161 409 148 424 c 0
 137 435 124 441 111 441 c 1
 113 453 l 1
 305 453 l 1
 303 441 l 1
 270 441 253 434 250 419 c 0
 248 411 250 401 256 390 c 1
 324 238 l 1
 455 393 l 1
 463 401 468 409 470 418 c 0
 474 433 460 441 428 441 c 1
 430 453 l 1
 580 453 l 1
 578 441 l 1
EndSplineSet
MinimumDistance: x2,-1 
Back
578.125 440.918 m 1
 561.523 438.965 547.363 434.57 536.133 428.223 c 0
 527.344 422.852 517.09 414.551 505.859 403.809 c 0
 494.629 393.555 481.445 379.395 465.82 361.816 c 2
 332.031 208.008 l 1
 304.199 74.2188 l 1
 298.828 49.8047 298.828 33.6914 305.176 24.9023 c 1
 314.941 17.0898 333.984 13.1836 361.816 13.1836 c 1
 358.887 0 l 1
 148.926 0 l 1
 151.855 13.1836 l 1
 181.152 13.1836 202.148 18.0664 214.844 27.832 c 0
 222.168 35.1562 229.004 53.2227 234.863 82.0312 c 2
 261.23 202.148 l 1
 200.195 333.008 l 2
 178.223 378.906 160.645 409.18 147.949 423.828 c 0
 136.719 435.547 124.512 440.918 110.84 440.918 c 1
 112.793 453.125 l 1
 305.176 453.125 l 1
 303.223 440.918 l 1
 270.508 440.918 252.441 433.594 250 418.945 c 0
 248.047 411.133 250 401.367 255.859 390.137 c 1
 324.219 237.793 l 1
 455.078 393.066 l 1
 462.891 400.879 467.773 409.18 470.215 417.969 c 0
 474.121 433.105 459.961 440.918 428.223 440.918 c 1
 430.176 453.125 l 1
 580.078 453.125 l 1
 578.125 440.918 l 1
EndSplineSet
EndChar
StartChar: Z
Encoding: 90 90 59
OldEncoding: 90
Width: 443
Flags: HW
HStem: 0 26<117 293> 428 25<257 408 408 408>
Fore
447 120 m 1
 404 0 l 1
 18 0 l 1
 20 10 l 1
 408 428 l 1
 257 428 l 2
 214 428 181 418 160 399 c 0
 148 389 136 368 123 337 c 1
 105 337 l 1
 143 453 l 1
 503 453 l 1
 501 443 l 1
 117 26 l 1
 293 26 l 2
 334 26 365 36 386 55 c 0
 398 66 414 88 431 120 c 1
 447 120 l 1
EndSplineSet
Back
446.777 120.117 m 1
 403.809 0 l 1
 18.0664 0 l 1
 20.0195 9.76562 l 1
 408.203 428.223 l 1
 256.836 428.223 l 2
 213.867 428.223 181.152 418.457 160.156 398.926 c 0
 147.949 389.16 135.742 368.164 123.047 336.914 c 1
 104.98 336.914 l 1
 143.066 453.125 l 1
 502.93 453.125 l 1
 500.977 442.871 l 1
 117.188 25.8789 l 1
 292.969 25.8789 l 2
 333.496 25.8789 364.746 35.6445 386.23 55.1758 c 0
 392.09 60.5469 398.926 68.3594 406.738 79.5898 c 0
 414.062 90.332 422.363 104.004 431.152 120.117 c 1
 446.777 120.117 l 1
EndSplineSet
EndChar
StartChar: bracketleft
Encoding: 91 91 60
OldEncoding: 91
Width: 257
Flags: HW
HStem: -87 21<66 213 213 213> 463 20<187 334 187 187>
Fore
213 -87 m 1
 66 -87 l 1
 187 483 l 1
 334 483 l 1
 330 466 l 1
 267 466 l 2
 246 466 234 456 229 435 c 1
 130 -33 l 1
 125 -58 134 -70 156 -70 c 2
 216 -70 l 1
 213 -87 l 1
EndSplineSet
MinimumDistance: x6,-1 
Back
212.891 -86.9141 m 1
 65.918 -86.9141 l 1
 187.012 482.91 l 1
 333.984 482.91 l 1
 330.078 465.82 l 1
 267.09 465.82 l 2
 246.094 465.82 233.887 455.566 229.004 435.059 c 1
 129.883 -33.2031 l 1
 125.488 -57.6172 133.789 -69.8242 155.762 -69.8242 c 2
 215.82 -69.8242 l 1
 212.891 -86.9141 l 1
EndSplineSet
EndChar
StartChar: backslash
Encoding: 92 92 61
OldEncoding: 92
Width: 249
Flags: HW
HStem: -121 21<189 227 227 227> 453 20<119 156 119 119>
Fore
227 -121 m 1
 189 -121 l 1
 119 473 l 1
 156 473 l 1
 227 -121 l 1
EndSplineSet
MinimumDistance: x0,-1 
Back
227.051 -121.094 m 1
 188.965 -121.094 l 1
 119.141 473.145 l 1
 155.762 473.145 l 1
 227.051 -121.094 l 1
EndSplineSet
EndChar
StartChar: bracketright
Encoding: 93 93 62
OldEncoding: 93
Width: 257
Flags: HW
HStem: -87 21<28 175 175 175> 463 20<149 296 149 149>
Fore
175 -87 m 1
 28 -87 l 1
 31 -70 l 1
 94 -70 l 2
 115 -70 127 -60 132 -39 c 1
 231 429 l 1
 237 454 228 466 205 466 c 2
 145 466 l 1
 149 483 l 1
 296 483 l 1
 175 -87 l 1
EndSplineSet
Back
174.805 -86.9141 m 1
 27.832 -86.9141 l 1
 30.7617 -69.8242 l 1
 94.2383 -69.8242 l 2
 114.746 -69.8242 127.441 -59.5703 131.836 -39.0625 c 1
 230.957 429.199 l 1
 236.816 453.613 228.516 465.82 205.078 465.82 c 2
 145.02 465.82 l 1
 148.926 482.91 l 1
 295.898 482.91 l 1
 174.805 -86.9141 l 1
EndSplineSet
EndChar
StartChar: asciicircum
Encoding: 94 94 63
OldEncoding: 94
Width: 361
Flags: HW
HStem: 208 21<83 123 123 123 338 378 378 378> 443 20<263 305 263 263>
Fore
378 208 m 1
 338 208 l 1
 277 426 l 1
 266 410 l 1
 123 208 l 1
 83 208 l 1
 263 463 l 1
 305 463 l 1
 378 208 l 1
EndSplineSet
Back
377.93 208.008 m 1
 337.891 208.008 l 1
 276.855 425.781 l 1
 266.113 410.156 l 1
 123.047 208.008 l 1
 83.0078 208.008 l 1
 263.184 462.891 l 1
 305.176 462.891 l 1
 377.93 208.008 l 1
EndSplineSet
EndChar
StartChar: underscore
Encoding: 95 95 64
OldEncoding: 95
Width: 386
Flags: HW
HStem: -85 35<11 354 354 354>
Fore
354 -85 m 1
 4 -85 l 1
 11 -50 l 1
 361 -50 l 1
 354 -85 l 1
EndSplineSet
Back
354.004 -84.9609 m 1
 3.90625 -84.9609 l 1
 11.2305 -49.8047 l 1
 360.84 -49.8047 l 1
 354.004 -84.9609 l 1
EndSplineSet
EndChar
StartChar: grave
Encoding: 96 96 65
OldEncoding: 96
Width: 180
Flags: HW
HStem: 248 21<180 199 199 199> 312 20<119 127.5>
Fore
199 248 m 1
 180 248 l 1
 114 296 l 2
 106 301 103 308 104 317 c 0
 107 327 114 332 124 332 c 0
 131 332 137 328 142 321 c 2
 199 248 l 1
EndSplineSet
Back
199.219 248.047 m 1
 180.176 248.047 l 1
 113.77 295.898 l 1
 105.957 300.781 102.539 307.617 104.004 316.895 c 0
 107.422 327.148 113.77 332.031 124.023 332.031 c 0
 130.859 332.031 136.719 328.125 142.09 320.801 c 2
 199.219 248.047 l 1
EndSplineSet
EndChar
StartChar: a
Encoding: 97 97 66
OldEncoding: 97
Width: 340
Flags: HMW
HStem: -5 43 327 20<222.5 279>
Fore
337 31 m 1
 311 7 286 -5 263 -5 c 0
 232 -5 219 13 226 48 c 1
 177 13 136 -5 105 -5 c 0
 58 -5 30 24 41 71 c 0
 49 106 71 135 108 157 c 0
 127 168 177 189 262 221 c 1
 272 267 l 2
 281 308 266 329 227 329 c 0
 193 329 172 317 164 292 c 1
 164 290 l 1
 161 282 164 267 163 263 c 0
 162 256 157 248 149 240 c 1
 138 233 129 230 121 230 c 0
 102 230 91 242 96 263 c 0
 101 288 120 310 153 327 c 0
 180 342 208 347 237 347 c 0
 321 347 343 310 324 226 c 1
 293 79 l 1
 287 52 291 38 306 37 c 0
 317 37 329 42 341 51 c 1
 337 31 l 1
235 93 m 1
 258 203 l 1
 171 176 122 141 113 98 c 0
 109 82 111 67 118 54 c 0
 123 43 134 38 151 38 c 0
 180 38 204 47 223 66 c 0
 227 71 230 81 235 93 c 1
EndSplineSet
MinimumDistance: x10,-1 
Back
336.914 30.7617 m 1
 311.035 6.83594 286.133 -4.88281 263.184 -4.88281 c 0
 231.445 -4.88281 219.238 12.6953 226.074 47.8516 c 1
 176.758 12.6953 136.23 -4.88281 104.98 -4.88281 c 0
 81.543 -4.88281 63.9648 1.95312 51.2695 15.625 c 0
 39.0625 29.2969 35.6445 47.8516 41.0156 70.8008 c 0
 48.8281 106.445 71.2891 134.766 107.91 157.227 c 0
 117.188 162.109 134.766 170.41 160.156 181.152 c 0
 185.547 191.895 219.238 205.078 262.207 221.191 c 1
 271.973 267.09 l 2
 280.762 308.105 265.625 329.102 227.051 329.102 c 0
 192.871 329.102 171.875 316.895 164.062 291.992 c 1
 164.062 290.039 l 1
 162.598 286.133 162.109 280.762 163.086 274.902 c 0
 163.574 269.043 163.574 265.137 163.086 263.184 c 0
 161.621 255.859 157.227 248.047 148.926 240.234 c 1
 138.184 233.398 128.906 229.98 121.094 229.98 c 0
 111.816 229.98 104.492 232.91 99.6094 238.281 c 0
 94.7266 244.141 93.2617 252.441 96.1914 263.184 c 0
 100.586 288.574 119.629 309.57 152.832 327.148 c 0
 166.504 334.473 180.176 339.355 193.848 342.285 c 0
 208.008 345.703 222.168 347.168 236.816 347.168 c 0
 278.809 347.168 306.152 337.402 318.848 317.871 c 0
 331.543 298.828 333.496 268.066 324.219 226.074 c 1
 292.969 79.1016 l 2
 287.109 51.7578 291.504 37.5977 306.152 37.1094 c 0
 317.383 37.1094 329.102 41.5039 340.82 50.7812 c 1
 336.914 30.7617 l 1
234.863 92.7734 m 1
 257.812 203.125 l 1
 170.898 176.27 122.559 141.113 112.793 98.1445 c 0
 108.887 82.0312 110.84 67.3828 118.164 54.1992 c 0
 123.535 43.457 134.277 38.0859 150.879 38.0859 c 0
 179.688 38.0859 203.613 47.3633 223.145 65.918 c 0
 225.098 68.8477 227.051 72.2656 228.516 77.1484 c 0
 229.98 81.543 232.422 86.9141 234.863 92.7734 c 1
EndSplineSet
EndChar
StartChar: b
Encoding: 98 98 67
OldEncoding: 98
Width: 392
Flags: HW
HStem: -5 22<191 212> 301 46 496 20<235 235>
Fore
403 180 m 0
 394 137 372 97 337 61 c 0
 295 17 243 -5 181 -5 c 0
 158 -5 134 -1 111 7 c 0
 83 17 70 29 73 42 c 1
 156 433 l 1
 159 450 160 459 159 462 c 0
 156 469 148 472 135 472 c 2
 131 472 l 1
 114 471 l 1
 117 483 l 1
 142 490 179 500 235 516 c 1
 237 515 l 1
 189 286 l 1
 205 322 264 347 304 347 c 0
 348 347 378 329 395 294 c 0
 410 262 413 224 403 180 c 0
330 153 m 0
 338 192 340 223 332 250 c 0
 321 284 299 301 266 301 c 0
 248 301 231 296 215 286 c 0
 194 274 182 259 179 242 c 1
 139 54 l 2
 134 30 179 17 203 17 c 0
 268 17 310 62 330 153 c 0
EndSplineSet
MinimumDistance: x21,-1 
Back
402.832 180.176 m 0
 398.438 158.691 390.625 138.184 379.395 118.164 c 0
 368.652 98.1445 354.492 79.1016 336.914 61.0352 c 0
 294.922 17.0898 243.164 -4.88281 181.152 -4.88281 c 0
 157.715 -4.88281 134.277 -0.976562 110.84 6.83594 c 0
 83.0078 17.0898 70.3125 28.8086 73.2422 41.9922 c 2
 155.762 433.105 l 2
 159.18 449.707 160.156 459.473 159.18 461.914 c 0
 156.25 468.75 148.438 472.168 134.766 472.168 c 2
 130.859 472.168 l 1
 113.77 471.191 l 1
 117.188 482.91 l 1
 129.883 486.328 145.508 490.723 164.551 496.094 c 0
 183.594 501.465 207.031 507.812 234.863 516.113 c 1
 236.816 515.137 l 1
 188.965 286.133 l 1
 192.871 295.41 199.219 303.711 208.008 311.035 c 0
 216.797 318.359 226.562 324.707 237.305 330.078 c 0
 248.535 335.449 259.766 339.355 271.484 342.285 c 0
 283.203 345.703 293.945 347.168 304.199 347.168 c 0
 348.145 347.168 378.418 329.102 395.02 293.945 c 0
 410.156 262.207 413.086 224.121 402.832 180.176 c 0
330.078 152.832 m 0
 333.984 172.363 336.426 189.941 336.914 206.055 c 0
 337.891 222.168 335.938 236.816 332.031 250 c 0
 321.289 284.18 299.316 300.781 266.113 300.781 c 0
 248.047 300.781 230.957 295.898 214.844 286.133 c 0
 194.336 273.926 182.129 259.277 179.199 242.188 c 1
 139.16 54.1992 l 2
 137.695 47.8516 139.16 42.4805 143.555 38.0859 c 0
 147.949 33.2031 153.32 29.2969 160.156 26.3672 c 0
 166.504 23.4375 173.828 20.9961 182.129 19.5312 c 0
 189.941 18.0664 196.777 17.0898 203.125 17.0898 c 0
 267.578 17.0898 310.059 62.5 330.078 152.832 c 0
EndSplineSet
EndChar
StartChar: c
Encoding: 99 99 68
OldEncoding: 99
Width: 337
Flags: HW
HStem: -5 52<193 199.5> 238 109 326 21<246 268.5>
Fore
343 112 m 1
 289 34 231 -5 168 -5 c 0
 125 -5 93 12 74 46 c 0
 57 76 53 115 62 162 c 0
 73 213 97 257 136 292 c 0
 176 329 221 347 271 347 c 0
 298 347 321 341 340 329 c 0
 363 315 372 295 366 270 c 0
 362 249 348 238 325 238 c 0
 307 238 297 250 295 273 c 1
 294 289 l 1
 291 320 284 326 253 326 c 0
 221 326 193 311 169 281 c 0
 148 254 134 224 127 192 c 0
 119 152 122 119 135 93 c 0
 150 62 175 47 211 47 c 0
 238 47 260 54 281 69 c 0
 296 80 314 94 334 118 c 1
 343 112 l 1
EndSplineSet
Back
342.773 111.816 m 1
 289.062 34.1797 230.469 -4.88281 167.969 -4.88281 c 0
 124.512 -4.88281 93.2617 12.207 74.2188 45.8984 c 0
 56.6406 76.1719 52.7344 114.746 62.0117 162.109 c 0
 72.7539 213.379 97.168 256.836 136.23 291.992 c 0
 175.781 328.613 221.191 347.168 270.996 347.168 c 0
 298.34 347.168 321.289 340.82 339.844 329.102 c 0
 363.281 314.941 372.07 295.41 366.211 270.02 c 0
 361.816 248.535 348.145 237.793 325.195 237.793 c 0
 307.129 237.793 296.875 249.512 294.922 272.949 c 1
 293.945 289.062 l 1
 292.48 304.199 289.551 314.453 284.18 318.848 c 0
 278.809 323.73 268.555 326.172 252.93 326.172 c 0
 221.191 326.172 192.871 311.035 168.945 280.762 c 0
 147.461 253.906 133.789 224.121 126.953 191.895 c 0
 119.141 151.855 121.582 119.141 134.766 92.7734 c 0
 149.902 62.5 174.805 46.875 210.938 46.875 c 0
 224.121 46.875 236.816 48.8281 248.047 52.7344 c 0
 259.277 56.1523 270.508 61.5234 280.762 68.8477 c 0
 288.574 74.2188 296.387 81.0547 305.664 88.3789 c 0
 314.453 96.1914 324.219 105.957 333.984 118.164 c 1
 342.773 111.816 l 1
EndSplineSet
EndChar
StartChar: d
Encoding: 100 100 69
OldEncoding: 100
Width: 380
Flags: HW
HStem: -5 37 327 20<240 267.5> 496 20<435 435>
Fore
387 32 m 1
 269 -5 l 1
 265 -3 l 1
 275 41 l 1
 245 10 209 -5 166 -5 c 0
 136 -5 111 3 90 20 c 0
 59 47 50 95 64 162 c 0
 75 213 97 253 132 289 c 0
 171 328 213 347 260 347 c 0
 289 347 313 337 333 316 c 1
 358 433 l 1
 369 476 354 466 338 471 c 1
 334 471 l 1
 316 470 l 1
 319 483 l 1
 366 494 l 1
 435 516 l 1
 439 515 l 1
 348 86 l 1
 341 51 344 43 376 43 c 2
 389 44 l 1
 387 32 l 1
282 77 m 1
 320 252 l 1
 322 277 317 296 306 309 c 0
 295 321 278 327 257 327 c 0
 223 327 195 311 173 280 c 0
 155 256 142 226 133 189 c 0
 124 146 124 112 133 85 c 0
 145 50 169 32 206 32 c 0
 243 32 268 47 282 77 c 1
EndSplineSet
Back
387.207 32.2266 m 1
 269.043 -4.88281 l 1
 265.137 -2.92969 l 1
 274.902 41.0156 l 1
 245.117 10.2539 208.496 -4.88281 166.016 -4.88281 c 0
 136.23 -4.88281 110.84 3.41797 89.8438 20.0195 c 0
 58.5938 47.3633 49.8047 94.7266 63.9648 162.109 c 0
 69.3359 187.5 77.6367 210.449 88.8672 230.957 c 0
 100.098 251.465 114.746 270.996 131.836 289.062 c 0
 170.898 327.637 213.379 347.168 259.766 347.168 c 0
 288.574 347.168 312.988 336.426 333.008 315.918 c 1
 357.91 433.105 l 2
 361.328 448.242 362.305 457.52 360.84 460.938 c 0
 359.863 464.355 356.934 466.797 352.539 468.262 c 0
 348.145 470.215 343.262 471.191 337.891 471.191 c 2
 333.984 471.191 l 1
 315.918 470.215 l 1
 318.848 482.91 l 1
 366.211 494.141 l 1
 435.059 516.113 l 1
 438.965 515.137 l 1
 348.145 85.9375 l 1
 344.727 68.8477 344.727 57.1289 347.656 51.2695 c 0
 350.586 45.8984 359.863 42.9688 375.977 42.9688 c 2
 389.16 43.9453 l 1
 387.207 32.2266 l 1
282.227 77.1484 m 1
 319.824 251.953 l 1
 321.777 276.855 317.383 295.898 306.152 309.082 c 0
 294.434 320.801 278.32 327.148 256.836 327.148 c 0
 223.145 327.148 194.824 311.523 172.852 279.785 c 0
 154.785 255.859 141.602 225.586 132.812 188.965 c 0
 123.535 146.484 123.535 111.816 132.812 84.9609 c 0
 145.02 49.8047 169.434 32.2266 206.055 32.2266 c 0
 242.676 32.2266 268.066 46.875 282.227 77.1484 c 1
EndSplineSet
EndChar
StartChar: e
Encoding: 101 101 70
OldEncoding: 101
Width: 338
Flags: HW
HStem: -5 50<170.5 191> 209 25<132 288> 321 26<232 255>
Fore
354 119 m 1
 342 95 325 70 298 47 c 0
 257 12 214 -5 168 -5 c 0
 89 -5 51 44 56 124 c 0
 57 135 59 147 62 162 c 0
 73 213 94 256 127 289 c 0
 165 328 208 347 256 347 c 0
 340 347 377 294 358 209 c 1
 124 209 l 1
 101 100 130 45 211 45 c 0
 253 45 298 72 345 125 c 1
 354 119 l 1
288 234 m 1
 294 292 276 321 234 321 c 0
 190 321 156 292 132 234 c 1
 288 234 l 1
EndSplineSet
Back
354.004 119.141 m 1
 348.145 106.934 340.332 94.7266 331.543 82.5195 c 0
 322.266 70.3125 311.523 58.1055 297.852 46.875 c 0
 257.324 12.207 213.867 -4.88281 167.969 -4.88281 c 0
 128.906 -4.88281 99.6094 6.34766 80.5664 29.2969 c 0
 61.5234 52.7344 53.2227 83.9844 56.1523 124.023 c 0
 57.1289 134.766 59.5703 147.461 62.0117 162.109 c 0
 72.7539 213.379 94.2383 255.859 126.953 289.062 c 0
 165.039 327.637 208.008 347.168 255.859 347.168 c 0
 297.852 347.168 327.637 334.473 345.703 310.059 c 0
 363.281 285.156 367.188 251.465 357.91 208.984 c 1
 124.023 208.984 l 1
 101.562 99.6094 130.371 44.9219 210.938 44.9219 c 0
 252.93 44.9219 297.852 71.7773 345.215 125 c 1
 354.004 119.141 l 1
288.086 233.887 m 1
 293.945 291.992 275.879 320.801 233.887 320.801 c 0
 189.941 320.801 155.762 291.992 131.836 233.887 c 1
 288.086 233.887 l 1
EndSplineSet
EndChar
StartChar: f
Encoding: 102 102 71
OldEncoding: 102
Width: 250
Flags: HW
HStem: 0 21<25 221 221 221> 317 23<98 155 155 155 222 310 310 310> 495 22<288 306.5>
Fore
400 470 m 0
 396 449 382 439 359 439 c 0
 351 439 341 448 330 467 c 1
 321 486 312 495 301 495 c 0
 271 495 251 472 241 427 c 2
 222 340 l 1
 315 340 l 1
 310 317 l 1
 218 317 l 1
 168 78 l 2
 163 55 161 39 166 28 c 0
 172 17 191 11 223 11 c 1
 221 0 l 1
 25 0 l 1
 27 11 l 1
 33 12 39 12 45 12 c 0
 59 12 77 18 82 23 c 0
 91 32 99 51 105 78 c 1
 155 317 l 1
 93 317 l 1
 98 340 l 1
 160 340 l 1
 185 458 243 517 333 517 c 0
 350 517 366 514 379 507 c 0
 396 498 403 485 400 470 c 0
EndSplineSet
MinimumDistance: x5,-1 
Back
399.902 470.215 m 0
 395.996 449.219 382.324 438.965 358.887 438.965 c 0
 351.074 438.965 341.309 448.242 330.078 466.797 c 1
 321.289 485.84 311.523 495.117 300.781 495.117 c 0
 270.996 495.117 250.977 472.168 241.211 426.758 c 2
 222.168 339.844 l 1
 314.941 339.844 l 1
 310.059 316.895 l 1
 217.773 316.895 l 1
 167.969 78.125 l 1
 165.527 66.8945 163.574 56.6406 163.086 48.3398 c 0
 162.109 40.0391 163.574 33.2031 166.016 27.832 c 0
 171.875 16.6016 190.918 11.2305 223.145 11.2305 c 1
 221.191 0 l 1
 24.9023 0 l 1
 26.8555 11.2305 l 1
 33.2031 11.7188 39.0625 12.207 44.9219 12.207 c 0
 51.7578 12.207 56.6406 12.6953 60.0586 14.1602 c 0
 63.4766 15.1367 67.3828 16.6016 72.2656 18.5547 c 0
 77.6367 20.0195 80.5664 21.4844 82.0312 22.9492 c 0
 91.3086 32.2266 99.1211 50.7812 104.98 78.125 c 1
 154.785 316.895 l 1
 92.7734 316.895 l 1
 98.1445 339.844 l 1
 160.156 339.844 l 1
 185.547 458.008 243.164 517.09 333.008 517.09 c 0
 350.098 517.09 365.723 513.672 378.906 506.836 c 0
 396.484 497.559 403.32 485.352 399.902 470.215 c 0
EndSplineSet
EndChar
StartChar: g
Encoding: 103 103 72
OldEncoding: 103
Width: 359
Flags: HW
HStem: -140 21<93 150.5> -99 109 57 67 141 186<216 231.5> 327 20<216 247.5>
Fore
402 296 m 1
 342 296 l 1
 346 273 347 252 342 229 c 0
 327 165 272 123 205 123 c 0
 192 123 179 123 167 126 c 2
 164 126 l 2
 159 126 149 121 135 110 c 1
 122 97 114 87 112 82 c 0
 110 71 128 64 166 62 c 2
 257 57 l 2
 306 54 340 26 329 -18 c 1
 313 -97 184 -140 117 -140 c 0
 69 -140 -5 -123 6 -70 c 0
 11 -47 41 -18 94 16 c 1
 71 30 61 43 63 54 c 0
 67 70 94 96 144 133 c 1
 105 153 89 184 98 227 c 0
 114 298 176 347 248 347 c 0
 267 347 287 342 314 331 c 0
 326 326 342 324 353 324 c 2
 408 324 l 1
 402 296 l 1
282 211 m 0
 286 232 287 253 283 276 c 0
 277 310 261 327 234 327 c 0
 198 327 175 305 166 262 c 0
 148 181 164 141 214 141 c 0
 249 141 272 164 282 211 c 0
307 -29 m 0
 310 -12 299 0 279 4 c 0
 274 5 255 5 226 8 c 1
 139 13 124 12 109 15 c 1
 80 -12 64 -33 61 -48 c 0
 54 -82 87 -99 159 -99 c 0
 186 -99 212 -94 243 -83 c 0
 281 -70 302 -52 307 -29 c 0
EndSplineSet
MinimumDistance: x0,-1 
Back
401.855 295.898 m 1
 341.797 295.898 l 1
 344.238 284.668 345.215 273.438 345.703 262.695 c 0
 345.703 251.465 344.727 240.234 341.797 229.004 c 0
 334.473 196.777 318.359 171.387 292.969 151.855 c 0
 267.578 132.812 238.281 123.047 205.078 123.047 c 0
 198.242 123.047 191.895 123.047 185.547 123.535 c 0
 179.199 124.023 172.852 124.512 166.992 125.977 c 2
 164.062 125.977 l 2
 158.691 125.977 148.926 120.605 134.766 109.863 c 1
 121.582 96.6797 113.77 87.4023 111.816 82.0312 c 0
 109.863 70.8008 127.93 63.9648 166.016 62.0117 c 2
 256.836 57.1289 l 2
 281.738 55.6641 301.27 48.3398 315.43 35.1562 c 0
 329.59 21.4844 334.473 3.90625 329.102 -18.0664 c 0
 325.195 -38.0859 314.941 -55.6641 298.34 -70.3125 c 0
 282.227 -85.4492 263.184 -98.1445 242.188 -108.398 c 0
 220.703 -118.652 198.73 -126.465 176.27 -131.836 c 0
 154.297 -137.207 134.277 -140.137 117.188 -140.137 c 0
 104.98 -140.137 91.7969 -138.672 78.125 -136.719 c 0
 63.9648 -134.277 51.2695 -130.371 39.5508 -125 c 0
 27.832 -119.629 18.5547 -112.305 12.207 -103.516 c 0
 5.37109 -94.7266 3.41797 -83.4961 5.85938 -69.8242 c 0
 11.2305 -46.875 40.5273 -18.0664 94.2383 16.1133 c 1
 71.2891 29.7852 61.0352 42.4805 62.9883 54.1992 c 0
 66.8945 69.8242 94.2383 96.1914 144.043 132.812 c 1
 104.492 152.832 89.3555 184.57 98.1445 227.051 c 0
 102.051 245.117 108.887 261.23 118.164 275.879 c 0
 127.441 290.527 138.672 303.223 151.855 313.477 c 0
 165.527 323.73 180.176 332.031 196.289 337.891 c 0
 212.891 344.238 229.98 347.168 248.047 347.168 c 0
 257.324 347.168 267.09 345.703 277.832 342.773 c 0
 288.574 340.332 300.781 336.426 313.965 331.055 c 0
 319.824 328.125 326.66 326.66 333.984 325.684 c 0
 341.309 324.707 347.656 324.219 353.027 324.219 c 2
 408.203 324.219 l 1
 401.855 295.898 l 1
282.227 210.938 m 0
 284.18 221.68 285.156 232.422 285.645 243.164 c 0
 285.645 253.906 285.156 264.648 283.203 275.879 c 0
 276.855 310.059 260.742 327.148 233.887 327.148 c 0
 198.242 327.148 175.293 305.176 166.016 262.207 c 0
 147.949 181.152 164.062 141.113 213.867 141.113 c 0
 249.512 141.113 271.973 164.551 282.227 210.938 c 0
307.129 -28.8086 m 0
 308.105 -20.5078 306.641 -13.1836 301.27 -7.32422 c 0
 296.387 -1.95312 289.062 1.95312 278.809 3.90625 c 0
 276.367 4.88281 270.508 5.37109 261.719 5.37109 c 0
 252.441 5.85938 240.723 6.83594 226.074 7.8125 c 0
 204.102 9.27734 186.523 10.2539 172.852 11.2305 c 0
 159.668 11.7188 148.926 12.207 140.625 12.6953 c 0
 132.324 12.6953 125.977 13.1836 121.582 13.6719 c 0
 117.188 13.6719 112.793 14.1602 108.887 15.1367 c 1
 80.5664 -11.7188 64.4531 -32.7148 61.0352 -47.8516 c 0
 54.1992 -82.0312 86.9141 -99.1211 159.18 -99.1211 c 0
 172.363 -99.1211 186.035 -97.6562 199.707 -95.2148 c 0
 213.379 -92.2852 227.539 -88.3789 243.164 -83.0078 c 0
 280.762 -69.8242 302.246 -51.7578 307.129 -28.8086 c 0
EndSplineSet
EndChar
StartChar: h
Encoding: 104 104 73
OldEncoding: 104
Width: 381
Flags: HW
HStem: 0 21<18 180 180 180 219 378 378 378> 307 40<291.5 296.5> 496 20<236 236>
Fore
378 0 m 1
 219 0 l 1
 221 10 l 1
 240 12 254 16 263 23 c 0
 275 31 281 50 286 77 c 1
 318 227 l 1
 330 280 316 307 277 307 c 0
 252 307 221 291 184 259 c 1
 145 77 l 2
 142 64 141 52 141 43 c 0
 141 34 143 28 146 23 c 0
 149 19 161 15 182 10 c 1
 180 0 l 1
 18 0 l 1
 20 10 l 1
 43 13 58 21 65 30 c 0
 71 37 77 53 82 77 c 2
 164 460 l 1
 158 467 149 470 138 470 c 2
 119 469 l 1
 121 482 l 1
 236 516 l 1
 238 514 l 1
 190 286 l 1
 227 327 269 347 314 347 c 0
 376 347 399 307 382 228 c 2
 350 77 l 2
 345 53 344 38 346 31 c 0
 350 23 363 17 380 10 c 1
 378 0 l 1
EndSplineSet
Back
377.93 0 m 1
 219.238 0 l 1
 221.191 9.76562 l 1
 239.746 12.207 253.906 16.1133 263.184 22.9492 c 0
 269.043 26.8555 273.438 33.6914 276.855 42.9688 c 0
 280.273 52.2461 283.203 63.4766 286.133 77.1484 c 2
 317.871 227.051 l 1
 330.078 280.273 316.406 307.129 276.855 307.129 c 0
 252.441 307.129 221.191 291.016 184.082 258.789 c 1
 145.02 77.1484 l 2
 142.09 63.4766 141.113 52.2461 141.113 42.9688 c 0
 141.113 34.1797 142.578 27.832 145.996 22.9492 c 0
 148.438 19.043 160.645 14.6484 182.129 9.76562 c 1
 180.176 0 l 1
 18.0664 0 l 1
 20.0195 9.76562 l 1
 31.25 11.2305 41.0156 13.6719 48.3398 17.5781 c 0
 56.1523 20.9961 61.5234 25.3906 64.9414 29.7852 c 0
 70.8008 37.1094 76.6602 53.2227 82.0312 77.1484 c 2
 164.062 459.961 l 1
 158.203 466.797 149.414 470.215 138.184 470.215 c 2
 119.141 469.238 l 1
 121.094 481.934 l 1
 235.84 516.113 l 1
 237.793 514.16 l 1
 189.941 286.133 l 1
 227.539 326.66 268.555 347.168 313.965 347.168 c 0
 375.977 347.168 398.438 307.129 381.836 228.027 c 2
 350.098 77.1484 l 1
 345.215 53.2227 344.238 37.5977 346.191 30.7617 c 0
 348.145 26.8555 352.051 23.4375 357.91 20.0195 c 0
 363.77 16.6016 371.094 13.1836 379.883 9.76562 c 1
 377.93 0 l 1
EndSplineSet
EndChar
StartChar: i
Encoding: 105 105 74
OldEncoding: 105
Width: 197
Flags: HW
HStem: 0 21<16 196 16 16> 498 20<201.5 224.5>
Fore
196 0 m 1
 16 0 l 1
 18 10 l 1
 68 10 80 24 91 76 c 2
 129 253 l 1
 135 284 130 299 113 299 c 1
 82 295 l 1
 84 306 l 1
 210 348 l 1
 213 347 l 1
 155 76 l 2
 150 53 149 36 154 25 c 0
 157 19 172 14 198 10 c 1
 196 0 l 1
166 479 m 0
 170 502 190 518 213 518 c 0
 236 518 248 502 244 479 c 0
 239 456 220 440 197 440 c 0
 174 440 161 456 166 479 c 0
EndSplineSet
Back
195.801 0 m 1
 198.242 9.76562 l 1
 171.875 14.1602 157.227 19.043 153.809 24.9023 c 0
 149.414 36.1328 149.902 53.2227 154.785 76.1719 c 1
 212.891 347.168 l 1
 209.961 348.145 l 1
 83.9844 306.152 l 1
 82.0312 294.922 l 1
 112.793 298.828 l 1
 129.883 298.828 134.766 283.691 128.906 252.93 c 1
 90.8203 76.1719 l 2
 88.3789 63.4766 85.4492 52.7344 82.0312 43.9453 c 0
 78.6133 35.1562 74.2188 28.3203 68.8477 23.4375 c 0
 63.4766 18.5547 57.1289 15.1367 48.8281 13.1836 c 0
 41.0156 11.2305 30.7617 9.76562 18.0664 9.76562 c 1
 16.1133 0 l 1
 195.801 0 l 1
166.016 479.004 m 0
 163.574 467.773 165.039 458.496 170.898 451.172 c 0
 176.758 443.848 185.547 439.941 196.777 439.941 c 0
 208.496 439.941 218.262 443.848 227.051 451.172 c 0
 235.84 458.496 241.211 467.773 244.141 479.004 c 0
 246.094 490.234 244.141 499.512 238.281 506.836 c 0
 232.91 514.16 224.121 518.066 212.891 518.066 c 0
 201.66 518.066 191.406 514.16 182.617 506.836 c 0
 173.34 499.512 167.969 490.234 166.016 479.004 c 0
EndSplineSet
EndChar
StartChar: j
Encoding: 106 106 75
OldEncoding: 106
Width: 189
Flags: HW
HStem: -163 21<-41.5 23.5> 498 20<209.5 232.5>
Fore
221 347 m 1
 146 -7 l 1
 123 -111 66 -163 -19 -163 c 0
 -64 -163 -84 -149 -78 -120 c 0
 -76 -113 -71 -106 -64 -99 c 1
 -53 -94 -46 -92 -44 -92 c 0
 -33 -92 -23 -99 -12 -114 c 1
 1 -129 10 -137 15 -138 c 0
 30 -138 44 -128 55 -108 c 0
 60 -99 66 -73 75 -32 c 2
 82 0 l 1
 83 0 l 1
 137 253 l 1
 143 284 138 299 121 299 c 1
 90 295 l 1
 92 306 l 1
 218 348 l 1
 221 347 l 1
174 479 m 0
 178 502 198 518 221 518 c 0
 244 518 256 502 252 479 c 0
 247 456 228 440 205 440 c 0
 182 440 169 456 174 479 c 0
EndSplineSet
Back
221.191 347.168 m 1
 217.773 348.145 l 1
 91.7969 306.152 l 1
 89.8438 294.922 l 1
 121.094 298.828 l 1
 137.695 298.828 143.066 283.691 137.207 252.93 c 1
 83.0078 0 l 1
 82.0312 0 l 1
 75.1953 -32.2266 l 2
 70.3125 -52.7344 66.4062 -69.3359 63.4766 -82.0312 c 0
 60.5469 -94.7266 57.6172 -103.516 55.1758 -107.91 c 0
 43.457 -127.93 30.2734 -138.184 15.1367 -138.184 c 0
 10.2539 -137.207 1.46484 -129.395 -12.207 -113.77 c 1
 -22.4609 -99.1211 -33.2031 -91.7969 -43.9453 -91.7969 c 0
 -45.8984 -91.7969 -52.7344 -94.2383 -63.9648 -99.1211 c 1
 -71.2891 -105.469 -76.1719 -112.793 -78.125 -120.117 c 0
 -83.9844 -148.438 -64.4531 -163.086 -19.043 -163.086 c 0
 23.4375 -163.086 59.082 -149.902 86.9141 -124.023 c 0
 115.234 -98.1445 134.766 -59.082 145.996 -6.83594 c 1
 221.191 347.168 l 1
173.828 479.004 m 0
 171.387 467.773 172.852 458.496 179.199 451.172 c 0
 185.059 443.848 193.848 439.941 205.078 439.941 c 0
 216.309 439.941 226.562 443.848 234.863 451.172 c 0
 243.652 458.496 249.512 467.773 251.953 479.004 c 0
 253.906 490.234 251.953 499.512 246.582 506.836 c 0
 240.723 514.16 232.422 518.066 221.191 518.066 c 0
 209.473 518.066 199.707 514.16 190.43 506.836 c 0
 181.641 499.512 175.781 490.234 173.828 479.004 c 0
EndSplineSet
EndChar
StartChar: k
Encoding: 107 107 76
OldEncoding: 107
Width: 386
Flags: HW
HStem: 0 21<17 193 193 193 229 392 392 392> 494 20<242 242>
Fore
392 0 m 1
 229 0 l 1
 232 12 l 1
 244 12 l 2
 255 12 262 16 265 23 c 1
 177 187 l 1
 148 50 l 1
 143 25 154 13 181 13 c 2
 196 12 l 1
 193 0 l 1
 17 0 l 1
 20 12 l 1
 45 15 59 18 62 21 c 0
 73 30 81 41 85 62 c 1
 163 426 l 1
 166 444 167 455 166 459 c 0
 163 466 157 471 142 471 c 2
 138 471 l 1
 117 469 l 1
 119 480 l 1
 242 514 l 1
 246 513 l 1
 179 198 l 1
 300 289 l 1
 315 298 323 307 325 315 c 0
 327 324 315 328 289 328 c 1
 291 340 l 1
 444 340 l 1
 442 327 l 1
 418 327 399 322 383 315 c 1
 371 308 344 294 315 273 c 2
 232 212 l 1
 318 66 l 2
 338 33 363 13 395 12 c 1
 392 0 l 1
EndSplineSet
MinimumDistance: x29,-1 
Back
392.09 0 m 1
 229.004 0 l 1
 231.934 12.207 l 1
 244.141 12.207 l 2
 255.371 12.207 262.207 15.625 265.137 22.9492 c 1
 176.758 187.012 l 1
 147.949 49.8047 l 2
 142.578 25.3906 153.809 13.1836 181.152 13.1836 c 2
 195.801 12.207 l 1
 192.871 0 l 1
 17.0898 0 l 1
 20.0195 12.207 l 1
 45.4102 15.1367 59.5703 18.5547 62.0117 20.9961 c 0
 67.3828 25.8789 71.7773 30.7617 76.1719 37.1094 c 0
 80.0781 42.9688 83.0078 51.2695 84.9609 62.0117 c 1
 163.086 425.781 l 1
 166.504 443.848 167.48 455.078 166.016 458.984 c 0
 164.551 462.402 162.109 465.332 158.691 467.285 c 0
 154.785 469.727 149.414 471.191 142.09 471.191 c 2
 138.184 471.191 l 1
 117.188 469.238 l 1
 119.141 479.98 l 1
 242.188 514.16 l 1
 246.094 513.184 l 1
 179.199 198.242 l 1
 299.805 289.062 l 1
 314.453 298.34 323.242 307.129 325.195 314.941 c 0
 327.148 323.73 314.941 328.125 289.062 328.125 c 1
 291.016 339.844 l 1
 443.848 339.844 l 1
 441.895 327.148 l 1
 430.176 327.148 418.945 325.684 409.668 323.73 c 0
 399.902 321.289 391.113 318.359 382.812 314.941 c 0
 376.953 311.523 367.676 306.641 355.469 299.316 c 0
 343.262 292.48 329.59 283.691 314.941 272.949 c 2
 231.934 211.914 l 1
 317.871 65.918 l 2
 328.125 49.3164 339.355 36.1328 352.051 26.8555 c 0
 364.746 17.5781 378.906 12.6953 395.02 12.207 c 1
 392.09 0 l 1
EndSplineSet
EndChar
StartChar: l
Encoding: 108 108 77
OldEncoding: 108
Width: 198
Flags: HW
HStem: 0 21<16 194 194 194> 497 20<247 247>
Fore
194 0 m 1
 16 0 l 1
 18 10 l 1
 62 15 80 26 88 66 c 1
 165 426 l 1
 168 445 171 453 168 460 c 0
 163 468 155 472 144 472 c 2
 114 470 l 1
 117 483 l 1
 136 487 163 493 171 496 c 2
 247 517 l 1
 151 64 l 1
 143 28 158 10 196 10 c 1
 194 0 l 1
EndSplineSet
Back
193.848 0 m 1
 16.1133 0 l 1
 18.0664 9.76562 l 1
 40.0391 12.6953 56.1523 17.5781 66.4062 24.9023 c 0
 76.6602 32.2266 83.9844 45.8984 87.8906 65.918 c 1
 165.039 425.781 l 1
 166.504 435.547 167.48 442.383 168.457 447.266 c 0
 169.434 452.637 169.434 456.543 167.969 459.961 c 0
 163.574 467.773 155.273 472.168 144.043 472.168 c 2
 113.77 470.215 l 1
 117.188 482.91 l 1
 126.465 484.863 136.719 487.305 147.949 490.234 c 0
 159.18 492.676 166.992 494.629 170.898 496.094 c 2
 247.07 517.09 l 1
 150.879 63.9648 l 1
 143.066 27.832 158.203 9.76562 195.801 9.76562 c 1
 193.848 0 l 1
EndSplineSet
EndChar
StartChar: m
Encoding: 109 109 78
OldEncoding: 109
Width: 598
Flags: HW
HStem: 0 21<22 190 190 190 226 395 395 395 430 595 595 595> 309 38
Fore
595 0 m 1
 430 0 l 1
 432 10 l 1
 448 13 457 15 464 16 c 0
 475 19 482 27 486 39 c 1
 494 66 l 1
 528 225 l 2
 534 253 535 272 532 282 c 0
 528 300 514 309 491 309 c 0
 454 309 423 293 398 262 c 1
 357 70 l 1
 349 30 362 10 397 10 c 1
 395 0 l 1
 226 0 l 1
 228 10 l 1
 271 15 284 23 292 65 c 1
 327 229 l 1
 338 282 326 309 291 309 c 0
 268 309 245 302 224 287 c 0
 208 276 198 270 195 263 c 1
 150 51 l 1
 144 24 158 10 192 10 c 1
 190 0 l 1
 22 0 l 1
 24 10 l 1
 59 10 81 28 89 64 c 1
 132 268 l 1
 135 280 134 290 129 298 c 0
 128 301 122 303 113 303 c 0
 102 303 95 302 88 301 c 1
 91 313 l 1
 104 316 123 322 134 325 c 2
 204 347 l 1
 209 347 l 1
 196 289 l 1
 259 326 284 337 291 340 c 0
 304 345 316 347 326 347 c 0
 366 347 389 326 394 285 c 1
 439 326 484 347 529 347 c 0
 588 347 607 302 588 212 c 2
 555 57 l 1
 550 30 558 15 579 13 c 2
 597 10 l 1
 595 0 l 1
EndSplineSet
MinimumDistance: x39,-1 x13,1 x21,18 
Back
595.215 0 m 1
 430.176 0 l 1
 432.129 9.76562 l 1
 439.941 11.2305 446.289 12.6953 451.66 13.6719 c 0
 456.543 14.6484 460.449 15.1367 463.867 16.1133 c 0
 474.609 19.5312 481.934 26.8555 485.84 39.0625 c 1
 494.141 65.918 l 1
 527.832 225.098 l 2
 534.18 252.93 535.156 271.973 532.227 282.227 c 0
 527.832 299.805 514.16 309.082 491.211 309.082 c 0
 454.102 309.082 423.34 293.457 397.949 262.207 c 1
 356.934 69.8242 l 1
 349.121 29.7852 362.305 9.76562 396.973 9.76562 c 1
 395.02 0 l 1
 226.074 0 l 1
 228.027 9.76562 l 1
 238.77 11.2305 247.559 13.1836 254.883 15.1367 c 0
 262.207 17.0898 268.555 20.0195 272.949 23.9258 c 0
 277.832 27.832 281.738 33.2031 284.668 39.5508 c 0
 287.598 45.8984 290.039 54.1992 291.992 64.9414 c 1
 327.148 229.004 l 2
 338.379 282.227 326.172 309.082 291.016 309.082 c 0
 267.578 309.082 245.117 301.758 224.121 287.109 c 0
 215.82 281.738 209.473 277.344 204.59 273.438 c 0
 199.707 270.02 196.289 266.113 194.824 263.184 c 1
 149.902 50.7812 l 2
 144.043 23.4375 158.203 9.76562 191.895 9.76562 c 1
 189.941 0 l 1
 21.9727 0 l 1
 23.9258 9.76562 l 1
 59.5703 9.76562 81.0547 27.832 88.8672 63.9648 c 1
 131.836 268.066 l 1
 135.254 279.785 134.277 290.039 128.906 297.852 c 0
 127.441 301.27 122.559 303.223 112.793 303.223 c 0
 107.91 303.223 103.027 302.734 99.1211 302.734 c 0
 95.2148 302.246 91.3086 301.758 87.8906 300.781 c 1
 90.8203 312.988 l 1
 97.6562 314.453 104.98 316.406 113.281 318.848 c 0
 122.07 321.777 128.906 323.73 133.789 325.195 c 2
 204.102 347.168 l 1
 208.984 347.168 l 1
 195.801 289.062 l 1
 227.539 307.617 250 320.312 264.648 327.637 c 0
 278.809 334.473 287.598 338.867 291.016 339.844 c 0
 304.199 344.727 315.918 347.168 326.172 347.168 c 0
 366.211 347.168 388.672 326.172 394.043 285.156 c 1
 439.453 326.172 484.375 347.168 528.809 347.168 c 0
 587.891 347.168 607.422 301.758 587.891 211.914 c 2
 555.176 57.1289 l 1
 549.805 29.7852 557.617 15.1367 579.102 13.1836 c 2
 597.168 9.76562 l 1
 595.215 0 l 1
EndSplineSet
EndChar
StartChar: n
Encoding: 110 110 79
OldEncoding: 110
Width: 379
Flags: HW
HStem: 0 21<24 183 183 183 219 374 374 374> 304 42
Fore
374 0 m 1
 219 0 l 1
 221 10 l 1
 240 12 252 16 257 23 c 1
 268 30 276 47 282 74 c 1
 315 232 l 1
 326 280 313 304 274 304 c 0
 255 304 227 290 190 263 c 1
 145 51 l 2
 140 28 154 15 185 10 c 1
 183 0 l 1
 24 0 l 1
 26 10 l 1
 49 14 l 1
 68 21 80 40 85 68 c 1
 125 255 l 1
 129 276 129 290 126 297 c 0
 125 300 115 301 108 301 c 0
 97 301 90 300 86 299 c 1
 88 312 l 1
 105 315 124 321 132 324 c 0
 152 331 176 338 199 346 c 1
 206 346 l 1
 192 284 l 1
 219 307 238 322 253 330 c 0
 276 341 297 346 316 346 c 0
 373 346 394 308 379 233 c 1
 342 61 l 1
 338 45 338 32 343 23 c 1
 350 16 359 14 376 10 c 1
 374 0 l 1
EndSplineSet
MinimumDistance: x0,27 
Back
374.023 0 m 1
 219.238 0 l 1
 221.191 9.76562 l 1
 240.234 12.207 252.441 16.1133 256.836 22.9492 c 1
 267.578 30.2734 275.879 47.3633 282.227 74.2188 c 1
 314.941 231.934 l 1
 326.172 279.785 312.5 304.199 273.926 304.199 c 0
 254.883 304.199 226.562 290.527 189.941 263.184 c 1
 145.02 50.7812 l 2
 140.137 28.3203 153.809 14.6484 185.059 9.76562 c 1
 183.105 0 l 1
 23.9258 0 l 1
 25.8789 9.76562 l 1
 48.8281 14.1602 l 1
 58.1055 17.0898 65.918 23.4375 71.7773 33.2031 c 0
 78.125 42.4805 82.5195 54.1992 84.9609 67.8711 c 1
 125 254.883 l 1
 128.906 275.879 129.395 289.551 125.977 296.875 c 0
 125.488 298.34 123.047 299.316 119.141 299.805 c 0
 115.234 300.781 111.328 300.781 107.91 300.781 c 0
 97.168 300.781 89.8438 300.293 85.9375 298.828 c 1
 87.8906 312.012 l 1
 96.6797 313.477 104.98 315.43 113.281 317.871 c 0
 122.07 320.801 127.93 322.754 131.836 324.219 c 0
 142.09 327.148 152.832 331.055 164.551 334.473 c 0
 176.27 338.379 187.5 341.797 199.219 346.191 c 1
 206.055 346.191 l 1
 191.895 284.18 l 1
 205.566 295.41 216.797 304.688 227.051 312.5 c 0
 236.816 320.312 245.605 326.172 252.93 330.078 c 0
 275.879 340.82 296.875 346.191 315.918 346.191 c 0
 373.535 346.191 394.531 308.105 378.906 232.91 c 1
 341.797 61.0352 l 1
 337.891 44.9219 338.379 32.2266 342.773 22.9492 c 1
 346.191 19.5312 350.586 17.0898 355.469 15.625 c 0
 360.352 13.6719 367.188 12.207 375.977 9.76562 c 1
 374.023 0 l 1
EndSplineSet
EndChar
StartChar: o
Encoding: 111 111 80
OldEncoding: 111
Width: 383
Flags: HW
HStem: -5 21<145 243.5> 327 20<221 319>
Fore
67 171 m 1
 88 267 172 347 270 347 c 0
 368 347 420 267 399 171 c 1
 380 75 292 -5 195 -5 c 0
 95 -5 48 75 67 171 c 1
134 170 m 0
 129 149 127 128 127 109 c 0
 127 54 150 13 199 13 c 0
 269 13 311 85 330 170 c 0
 349 255 334 326 265 326 c 0
 198 326 153 255 134 170 c 0
EndSplineSet
Back
66.8945 170.898 m 0
 62.5 146.973 61.5234 124.512 64.9414 103.027 c 0
 68.3594 81.543 75.6836 62.9883 86.4258 46.875 c 0
 97.6562 30.7617 112.305 18.5547 130.371 8.78906 c 0
 148.926 -0.488281 170.41 -4.88281 194.824 -4.88281 c 0
 219.727 -4.88281 243.164 -0.488281 265.625 8.78906 c 0
 287.598 18.5547 308.105 30.7617 326.172 46.875 c 0
 344.238 62.9883 359.375 81.543 372.559 103.027 c 0
 385.742 124.512 394.531 146.973 398.926 170.898 c 0
 404.297 194.824 405.273 217.773 401.367 238.77 c 0
 397.949 260.254 390.137 278.809 378.906 294.922 c 0
 367.676 311.035 353.027 323.73 334.473 333.008 c 0
 316.406 342.285 294.434 347.168 270.02 347.168 c 0
 245.117 347.168 222.168 342.285 200.195 333.008 c 0
 178.223 323.73 158.203 311.035 140.137 294.922 c 0
 122.07 278.809 106.445 260.254 94.2383 238.77 c 0
 81.543 217.773 72.2656 194.824 66.8945 170.898 c 0
133.789 169.922 m 0
 138.672 191.406 145.02 211.426 152.832 230.469 c 0
 161.133 249.512 170.41 266.113 181.641 279.785 c 0
 192.383 293.945 205.078 305.176 219.238 313.477 c 0
 232.91 321.777 248.535 326.172 265.137 326.172 c 0
 282.227 326.172 296.387 321.777 307.129 313.477 c 0
 317.871 305.176 325.684 293.945 330.566 279.785 c 0
 335.449 266.113 337.891 249.512 337.402 230.469 c 0
 337.402 211.426 334.473 191.406 330.078 169.922 c 0
 325.195 148.438 319.336 128.418 311.523 109.375 c 0
 303.711 90.332 294.434 73.7305 284.18 59.5703 c 0
 273.438 45.4102 260.742 33.6914 246.582 25.3906 c 0
 231.934 17.0898 216.309 13.1836 199.219 13.1836 c 0
 182.129 13.1836 168.945 17.0898 158.691 25.3906 c 0
 147.949 33.6914 140.137 45.4102 134.766 59.5703 c 0
 129.883 73.7305 126.953 90.332 126.953 108.887 c 0
 126.953 128.418 129.395 148.438 133.789 169.922 c 0
EndSplineSet
EndChar
StartChar: p
Encoding: 112 112 81
OldEncoding: 112
Width: 378
Flags: HW
HStem: -151 21<-16 163 -16 -16> -5 22<204 228.5> 327 20<201 201 293 357.5>
Fore
112 -86 m 1
 107 -107 108 -121 117 -128 c 0
 123 -134 139 -137 166 -137 c 1
 163 -151 l 1
 -16 -151 l 1
 -14 -139 l 1
 26 -139 40 -127 47 -92 c 1
 121 254 l 1
 125 270 126 281 125 286 c 0
 124 294 118 298 105 298 c 2
 81 297 l 1
 84 309 l 1
 201 347 l 1
 192 290 l 1
 230 328 271 347 315 347 c 0
 400 347 420 262 404 185 c 0
 385 88 307 -5 206 -5 c 0
 178 -5 155 5 136 26 c 1
 112 -86 l 1
335 161 m 0
 348 225 339 302 269 302 c 0
 236 302 197 280 184 253 c 1
 144 67 l 2
 141 53 148 41 167 31 c 0
 181 22 196 17 212 17 c 0
 245 17 273 33 296 66 c 0
 314 91 327 122 335 161 c 0
EndSplineSet
MinimumDistance: x8,-1 
Back
111.816 -85.9375 m 1
 136.23 25.8789 l 1
 154.785 5.37109 178.223 -4.88281 206.055 -4.88281 c 0
 231.445 -4.88281 254.883 0.488281 276.855 11.2305 c 0
 298.828 21.4844 318.359 35.6445 335.449 53.7109 c 0
 352.539 71.2891 367.188 91.3086 378.906 114.258 c 0
 391.113 137.695 399.414 161.133 403.809 185.059 c 0
 408.203 204.102 409.668 223.633 409.18 243.164 c 0
 408.203 262.207 404.297 279.785 397.461 294.922 c 0
 390.625 310.547 380.371 322.754 367.188 332.52 c 0
 353.516 342.285 336.426 347.168 314.941 347.168 c 0
 270.996 347.168 229.98 328.125 191.895 290.039 c 1
 201.172 347.168 l 1
 83.9844 309.082 l 1
 81.0547 296.875 l 1
 104.98 297.852 l 2
 117.676 297.852 124.512 293.945 125 286.133 c 0
 126.465 280.762 125 270.02 121.094 253.906 c 1
 46.875 -91.7969 l 1
 43.457 -109.375 37.5977 -121.582 28.8086 -128.418 c 0
 20.5078 -135.742 5.85938 -139.16 -14.1602 -139.16 c 1
 -16.1133 -150.879 l 1
 163.086 -150.879 l 1
 166.016 -137.207 l 1
 139.16 -137.207 123.047 -133.789 117.188 -127.93 c 0
 108.398 -121.094 106.445 -107.422 111.816 -85.9375 c 1
334.961 161.133 m 0
 327.148 122.559 313.965 90.8203 295.898 65.918 c 0
 273.438 33.2031 245.117 17.0898 211.914 17.0898 c 0
 195.801 17.0898 181.152 21.4844 166.992 30.7617 c 1
 148.438 41.0156 140.625 53.2227 144.043 66.8945 c 1
 184.082 252.93 l 1
 187.5 259.766 191.895 266.113 198.242 271.973 c 0
 204.102 277.832 210.938 283.203 219.238 287.598 c 0
 227.051 291.992 235.352 295.41 244.141 297.852 c 0
 252.441 300.781 261.23 301.758 269.043 301.758 c 0
 286.133 301.758 300.293 297.852 310.547 289.062 c 0
 320.801 280.273 328.613 269.043 333.496 255.371 c 0
 338.379 241.699 340.82 226.562 340.332 209.961 c 0
 340.332 193.359 338.379 176.758 334.961 161.133 c 0
EndSplineSet
EndChar
StartChar: q
Encoding: 113 113 82
OldEncoding: 113
Width: 338
Flags: HW
HStem: -160 199<171 214.5> 326 21<224.5 282.5>
Fore
343 -160 m 1
 164 -160 l 1
 167 -146 l 1
 214 -146 240 -129 248 -89 c 1
 277 47 l 1
 253 29 l 1
 221 11 l 1
 198 0 170 -5 151 -5 c 0
 60 -5 43 76 62 160 c 0
 83 260 167 347 270 347 c 0
 295 347 321 338 349 320 c 1
 397 346 l 1
 401 347 l 1
 402 345 l 1
 307 -105 l 2
 302 -128 315 -142 346 -148 c 1
 343 -160 l 1
288 97 m 1
 321 252 l 1
 331 301 311 326 262 326 c 0
 187 326 147 249 131 181 c 0
 128 165 126 149 126 132 c 0
 126 83 145 39 197 39 c 0
 232 39 259 49 276 68 c 1
 288 97 l 1
EndSplineSet
Back
342.773 -160.156 m 1
 346.191 -147.949 l 1
 315.43 -142.09 302.246 -127.441 307.129 -104.98 c 2
 401.855 345.215 l 1
 400.879 347.168 l 1
 396.973 346.191 l 1
 349.121 319.824 l 1
 320.801 337.891 294.434 347.168 270.02 347.168 c 0
 244.141 347.168 219.727 341.797 196.777 332.031 c 0
 174.316 321.777 153.809 308.105 135.742 291.016 c 0
 117.188 273.438 101.562 253.906 88.8672 231.445 c 0
 76.1719 208.984 67.3828 185.547 62.0117 160.156 c 0
 57.1289 139.16 55.1758 119.141 55.6641 99.1211 c 0
 55.6641 79.1016 59.082 61.5234 65.4297 45.8984 c 0
 71.7773 30.7617 82.0312 18.5547 96.1914 8.78906 c 0
 109.863 -0.488281 128.418 -4.88281 150.879 -4.88281 c 0
 160.156 -4.88281 171.387 -3.90625 184.57 -0.976562 c 0
 197.266 1.46484 209.473 5.85938 221.191 11.2305 c 2
 252.93 28.8086 l 1
 276.855 46.875 l 1
 248.047 -88.8672 l 1
 244.141 -108.887 235.352 -123.535 222.168 -132.324 c 0
 208.496 -141.602 190.43 -145.996 166.992 -145.996 c 1
 164.062 -160.156 l 1
 342.773 -160.156 l 1
288.086 97.168 m 1
 275.879 67.8711 l 1
 258.789 48.8281 232.422 39.0625 196.777 39.0625 c 0
 179.688 39.0625 166.016 43.457 155.273 51.7578 c 0
 145.02 60.5469 137.695 71.7773 132.812 85.9375 c 0
 128.418 100.098 125.977 115.234 125.977 131.836 c 0
 125.977 148.438 127.441 165.039 130.859 181.152 c 0
 134.766 198.242 140.625 215.332 147.461 232.422 c 0
 154.297 249.512 163.574 265.137 173.828 278.809 c 0
 184.57 292.969 197.266 304.199 211.914 312.988 c 0
 226.562 321.777 243.164 326.172 262.207 326.172 c 0
 311.523 326.172 331.055 301.27 320.801 251.953 c 1
 288.086 97.168 l 1
EndSplineSet
EndChar
StartChar: r
Encoding: 114 114 83
OldEncoding: 114
Width: 255
Flags: HW
HStem: 0 21<15 196 196 196> 327 20<202 206 202 202 282.5 311.5>
Fore
330 307 m 0
 325 284 310 273 294 273 c 0
 272 273 264 301 249 301 c 0
 238 301 224 293 209 278 c 0
 194 262 186 250 183 238 c 1
 147 69 l 1
 138 30 155 10 198 10 c 1
 196 0 l 1
 15 0 l 1
 17 10 l 1
 40 15 56 19 63 23 c 0
 70 27 78 45 82 64 c 2
 122 253 l 1
 129 284 123 301 106 298 c 2
 80 295 l 1
 82 307 l 1
 133 324 173 337 202 347 c 1
 206 347 l 1
 191 279 l 1
 231 324 267 347 298 347 c 0
 325 347 336 334 330 307 c 0
EndSplineSet
MinimumDistance: x1,-1 
Back
330.078 307.129 m 0
 327.148 295.898 322.754 287.109 315.918 281.738 c 0
 309.57 275.879 301.758 272.949 293.945 272.949 c 0
 288.574 272.949 284.18 274.414 279.785 277.344 c 0
 275.879 280.273 272.461 283.691 269.043 287.109 c 0
 265.625 290.527 262.695 293.457 259.277 296.387 c 0
 256.348 299.316 252.93 300.781 249.023 300.781 c 0
 237.793 300.781 224.121 293.457 208.984 277.832 c 0
 201.66 270.02 195.801 262.695 191.406 256.348 c 0
 187.012 250 184.57 244.141 183.105 237.793 c 2
 146.973 68.8477 l 1
 137.695 29.7852 154.785 9.76562 198.242 9.76562 c 1
 195.801 0 l 1
 15.1367 0 l 1
 17.0898 9.76562 l 1
 28.3203 12.6953 38.0859 15.1367 45.8984 17.0898 c 0
 54.1992 19.043 59.5703 20.9961 62.9883 22.9492 c 0
 66.4062 24.9023 69.8242 29.7852 73.7305 38.0859 c 0
 77.1484 45.8984 80.0781 54.6875 82.0312 63.9648 c 2
 122.07 252.93 l 2
 125.488 268.555 125.488 279.785 123.047 288.086 c 0
 120.117 295.898 114.746 299.316 105.957 297.852 c 2
 80.0781 294.922 l 1
 82.0312 307.129 l 1
 133.301 323.73 173.34 336.914 202.148 347.168 c 1
 206.055 347.168 l 1
 190.918 278.809 l 1
 230.957 324.219 266.602 347.168 297.852 347.168 c 0
 325.195 347.168 335.938 333.496 330.078 307.129 c 0
EndSplineSet
EndChar
StartChar: s
Encoding: 115 115 84
OldEncoding: 115
Width: 289
Flags: HW
HStem: -5 21<144 179.5> 327 20<188 229.5>
Fore
279 90 m 0
 266 30 210 -5 149 -5 c 0
 139 -5 123 -3 102 1 c 2
 65 8 l 2
 59 8 53 5 46 0 c 1
 36 0 l 1
 61 116 l 1
 75 116 l 1
 73 99 73 86 76 77 c 1
 83 46 l 1
 92 21 115 9 147 9 c 0
 188 9 213 27 221 64 c 0
 225 85 216 104 194 120 c 2
 122 169 l 1
 102 190 l 2
 88 204 84 226 90 255 c 0
 103 311 160 347 216 347 c 0
 243 347 249 343 256 340 c 2
 281 331 l 1
 286 331 291 334 296 341 c 1
 305 341 l 1
 288 238 l 1
 275 238 l 1
 274 299 252 330 210 330 c 0
 175 330 153 313 142 280 c 1
 137 257 144 240 163 227 c 2
 235 179 l 2
 254 166 267 154 273 144 c 0
 282 129 284 111 279 90 c 0
EndSplineSet
Back
278.809 89.8438 m 0
 272.461 60.0586 256.836 36.6211 231.934 20.0195 c 0
 207.52 3.41797 179.688 -4.88281 148.926 -4.88281 c 0
 139.16 -4.88281 123.535 -2.92969 102.051 0.976562 c 2
 64.9414 7.8125 l 2
 59.082 7.8125 52.7344 5.37109 45.8984 0 c 1
 36.1328 0 l 1
 61.0352 116.211 l 1
 75.1953 116.211 l 1
 73.2422 99.1211 73.2422 86.4258 76.1719 77.1484 c 1
 83.0078 45.8984 l 1
 87.8906 33.2031 95.7031 23.9258 106.445 18.0664 c 0
 117.676 12.207 130.859 8.78906 146.973 8.78906 c 0
 188.477 8.78906 212.891 27.3438 221.191 63.9648 c 0
 225.098 85.4492 215.82 104.004 193.848 120.117 c 2
 122.07 168.945 l 1
 102.051 189.941 l 2
 87.8906 204.102 83.9844 225.586 89.8438 254.883 c 0
 93.2617 269.043 99.1211 281.738 107.422 292.969 c 0
 115.723 304.199 125.488 313.965 137.207 321.777 c 0
 148.438 330.078 160.645 335.938 174.316 340.332 c 0
 187.988 344.727 202.148 347.168 215.82 347.168 c 0
 229.492 347.168 238.281 346.191 243.652 344.727 c 0
 248.535 342.773 252.441 341.309 255.859 339.844 c 2
 280.762 331.055 l 1
 286.133 331.055 291.504 334.473 295.898 340.82 c 1
 305.176 340.82 l 1
 288.086 237.793 l 1
 274.902 237.793 l 1
 273.438 299.316 251.953 330.078 209.961 330.078 c 0
 175.293 330.078 152.832 313.477 142.09 279.785 c 1
 137.207 257.324 144.531 239.746 163.086 227.051 c 2
 234.863 179.199 l 2
 254.395 165.527 267.09 153.809 272.949 144.043 c 0
 281.738 129.395 283.691 111.328 278.809 89.8438 c 0
EndSplineSet
EndChar
StartChar: t
Encoding: 116 116 85
OldEncoding: 116
Width: 208
Flags: HW
HStem: -5 37 315 25<193 265 265 265> 417 20<210 210>
Fore
226 50 m 1
 203 19 159 -5 126 -5 c 0
 81 -5 65 26 78 89 c 1
 126 315 l 1
 85 315 l 1
 83 321 l 1
 97 330 111 340 125 351 c 0
 156 376 178 401 210 437 c 1
 212 426 l 1
 193 340 l 1
 270 340 l 1
 265 315 l 1
 188 315 l 1
 142 100 l 1
 133 55 141 32 166 32 c 0
 182 32 199 41 218 58 c 1
 226 50 l 1
EndSplineSet
MinimumDistance: x12,-1 
Back
226.074 49.8047 m 1
 214.844 34.668 199.219 21.4844 180.176 11.2305 c 0
 160.645 0.488281 142.578 -4.88281 125.977 -4.88281 c 0
 81.543 -4.88281 65.4297 26.3672 78.125 88.8672 c 1
 125.977 314.941 l 1
 84.9609 314.941 l 1
 83.0078 320.801 l 1
 97.168 330.566 110.84 340.332 125 351.074 c 0
 140.137 363.77 154.297 376.465 166.992 390.137 c 0
 179.688 403.32 193.848 418.945 209.961 437.012 c 1
 211.914 425.781 l 1
 192.871 339.844 l 1
 270.02 339.844 l 1
 265.137 314.941 l 1
 187.988 314.941 l 1
 142.09 100.098 l 1
 132.812 54.6875 140.625 32.2266 166.016 32.2266 c 0
 182.129 32.2266 199.219 40.5273 217.773 58.1055 c 1
 226.074 49.8047 l 1
EndSplineSet
EndChar
StartChar: u
Encoding: 117 117 86
OldEncoding: 117
Width: 386
Flags: HW
HStem: -5 21<143.5 169> 320 20<90 199 90 90 278 398 278 278>
Fore
378 27 m 1
 370 26 354 23 330 15 c 2
 266 -4 l 1
 278 58 l 1
 238 25 l 2
 212 5 184 -5 154 -5 c 0
 133 -5 115 0 99 11 c 1
 82 32 76 58 83 91 c 2
 124 281 l 1
 128 302 126 315 117 321 c 1
 113 327 103 330 88 330 c 1
 90 340 l 1
 199 340 l 1
 147 95 l 1
 144 78 147 65 154 54 c 0
 157 47 162 45 169 41 c 1
 193 38 l 1
 216 38 239 47 264 64 c 0
 273 69 279 81 283 101 c 1
 322 280 l 1
 330 320 319 327 276 327 c 1
 278 340 l 1
 398 340 l 1
 343 82 l 1
 336 45 341 39 380 39 c 1
 378 27 l 1
EndSplineSet
Back
377.93 26.8555 m 1
 374.023 26.3672 368.164 25.3906 359.863 23.4375 c 0
 352.051 21.9727 341.797 19.043 330.078 15.1367 c 2
 266.113 -3.90625 l 1
 277.832 58.1055 l 1
 237.793 24.9023 l 2
 211.914 4.88281 184.082 -4.88281 153.809 -4.88281 c 0
 133.301 -4.88281 115.234 0.488281 99.1211 11.2305 c 1
 81.543 31.7383 76.1719 58.1055 83.0078 90.8203 c 1
 124.023 280.762 l 1
 127.93 301.758 125.488 314.941 117.188 320.801 c 1
 112.793 327.148 103.516 330.078 87.8906 330.078 c 1
 89.8438 339.844 l 1
 199.219 339.844 l 1
 146.973 95.2148 l 1
 144.531 78.125 146.484 64.4531 153.809 54.1992 c 0
 155.273 50.7812 157.227 48.3398 160.156 46.3867 c 0
 162.598 44.9219 165.527 42.9688 168.945 41.0156 c 1
 192.871 38.0859 l 1
 215.82 38.0859 239.258 46.875 264.16 63.9648 c 1
 272.461 68.8477 278.809 81.0547 283.203 101.074 c 1
 321.777 279.785 l 1
 326.172 299.805 324.707 312.988 317.871 318.359 c 0
 311.523 324.219 297.363 327.148 275.879 327.148 c 1
 277.832 339.844 l 1
 397.949 339.844 l 1
 342.773 82.0312 l 1
 339.844 63.4766 340.332 51.2695 344.727 46.3867 c 0
 348.633 41.5039 360.84 39.0625 379.883 39.0625 c 1
 377.93 26.8555 l 1
EndSplineSet
EndChar
StartChar: v
Encoding: 118 118 87
OldEncoding: 118
Width: 362
Flags: HW
HStem: -7 21<185 185> 320 20<79 226 79 79 319 424 319 319>
Fore
422 328 m 1
 409 328 396 321 385 307 c 0
 374 294 371 284 360 269 c 1
 213 28 l 1
 190 -2 l 1
 185 -7 l 1
 179 1 l 1
 171 25 l 1
 113 300 l 1
 104 316 l 2
 99 324 90 328 77 328 c 1
 79 340 l 1
 226 340 l 1
 224 328 l 1
 201 326 188 318 185 305 c 0
 184 298 185 291 186 279 c 1
 221 87 l 1
 297 212 l 2
 326 260 339 284 346 303 c 1
 347 307 l 2
 350 320 338 328 317 328 c 1
 319 340 l 1
 424 340 l 1
 422 328 l 1
EndSplineSet
MinimumDistance: x0,-1 
Back
421.875 328.125 m 1
 408.691 328.125 396.484 320.801 384.766 307.129 c 0
 379.883 300.293 375.488 293.945 372.559 288.574 c 0
 369.629 282.715 365.234 276.367 359.863 269.043 c 1
 212.891 27.832 l 1
 189.941 -1.95312 l 1
 185.059 -6.83594 l 1
 179.199 0.976562 l 1
 170.898 24.9023 l 1
 112.793 299.805 l 1
 104.004 315.918 l 2
 98.6328 324.219 89.8438 328.125 77.1484 328.125 c 1
 79.1016 339.844 l 1
 226.074 339.844 l 1
 224.121 328.125 l 1
 201.172 326.172 188.477 318.359 185.059 305.176 c 0
 184.57 301.758 184.082 297.852 184.57 293.945 c 0
 185.059 290.039 185.547 285.156 186.035 278.809 c 1
 221.191 86.9141 l 1
 296.875 211.914 l 2
 311.523 235.84 322.754 254.883 330.078 268.555 c 0
 337.402 282.227 342.773 293.457 346.191 303.223 c 2
 347.168 307.129 l 2
 348.145 313.477 346.191 318.848 340.82 322.266 c 0
 335.449 326.172 327.637 328.125 316.895 328.125 c 1
 318.848 339.844 l 1
 423.828 339.844 l 1
 421.875 328.125 l 1
EndSplineSet
EndChar
StartChar: w
Encoding: 119 119 88
OldEncoding: 119
Width: 524
Flags: HW
HStem: -7 21<167 167 354 356> 320 20<79 214 79 79 259 412 259 259 493 585 493 493>
Fore
583 328 m 1
 572 326 558 313 543 288 c 2
 384 27 l 1
 364 1 l 1
 356 -7 l 1
 352 -7 348 3 344 23 c 1
 314 200 l 1
 190 20 l 1
 185 10 179 3 173 0 c 1
 167 -7 l 1
 159 4 154 14 153 24 c 1
 98 312 l 1
 97 322 90 327 77 328 c 1
 79 340 l 1
 214 340 l 1
 212 328 l 1
 188 326 174 318 170 303 c 0
 169 297 173 270 181 221 c 1
 204 85 l 1
 305 235 l 1
 297 284 l 1
 289 312 l 1
 284 319 273 325 257 328 c 1
 259 340 l 1
 412 340 l 1
 410 328 l 1
 378 321 l 1
 369 317 363 310 361 300 c 0
 360 297 362 281 366 250 c 1
 392 88 l 1
 496 255 l 2
 504 267 514 290 517 303 c 0
 520 314 511 322 491 328 c 1
 493 340 l 1
 585 340 l 1
 583 328 l 1
EndSplineSet
Back
583.008 328.125 m 1
 571.777 326.172 558.105 312.5 542.969 288.086 c 2
 383.789 26.8555 l 1
 363.77 0.976562 l 1
 355.957 -6.83594 l 1
 352.051 -6.83594 348.145 2.92969 344.238 22.9492 c 1
 313.965 200.195 l 1
 189.941 20.0195 l 1
 184.57 9.76562 179.199 3.41797 172.852 0 c 1
 166.992 -6.83594 l 1
 159.18 3.90625 154.297 14.1602 152.832 23.9258 c 1
 98.1445 312.012 l 1
 96.6797 321.777 89.8438 327.148 77.1484 328.125 c 1
 79.1016 339.844 l 1
 213.867 339.844 l 1
 211.914 328.125 l 1
 187.988 326.172 173.828 317.871 169.922 303.223 c 0
 169.434 296.875 172.852 269.531 181.152 221.191 c 1
 204.102 84.9609 l 1
 305.176 234.863 l 1
 296.875 284.18 l 1
 289.062 312.012 l 1
 283.691 319.336 272.949 324.707 256.836 328.125 c 1
 258.789 339.844 l 1
 412.109 339.844 l 1
 410.156 328.125 l 1
 377.93 320.801 l 1
 368.652 316.895 362.793 310.059 360.84 299.805 c 0
 360.352 297.363 361.816 280.762 366.211 250 c 1
 392.09 87.8906 l 1
 496.094 254.883 l 2
 500 261.23 504.395 269.043 508.301 278.32 c 0
 512.695 288.086 515.625 296.387 517.09 303.223 c 0
 519.531 313.477 511.23 321.777 491.211 328.125 c 1
 493.164 339.844 l 1
 584.961 339.844 l 1
 583.008 328.125 l 1
EndSplineSet
EndChar
StartChar: x
Encoding: 120 120 89
OldEncoding: 120
Width: 376
Flags: HW
HStem: 0 21<14 123 123 123 211 363 363 363> 320 20<92 248 92 92 281 400 281 281>
Fore
363 0 m 1
 211 0 l 1
 213 10 l 1
 234 14 l 2
 241 16 245 22 247 31 c 0
 248 36 245 44 241 55 c 1
 199 148 l 1
 120 56 l 2
 108 42 101 31 98 24 c 1
 97 15 106 10 125 10 c 1
 123 0 l 1
 14 0 l 1
 16 10 l 1
 31 13 40 16 44 19 c 0
 55 24 66 35 81 50 c 1
 193 175 l 1
 145 283 l 2
 138 299 130 312 119 324 c 1
 90 328 l 1
 92 340 l 1
 248 340 l 1
 246 328 l 1
 225 328 213 322 210 311 c 0
 208 304 217 277 238 230 c 1
 280 277 302 304 305 311 c 0
 308 322 299 328 279 328 c 1
 281 340 l 1
 400 340 l 1
 398 328 l 1
 372 328 349 317 330 296 c 2
 248 205 l 1
 314 56 l 1
 327 28 344 13 365 10 c 1
 363 0 l 1
EndSplineSet
MinimumDistance: x31,-1 
Back
362.793 0 m 1
 210.938 0 l 1
 212.891 9.76562 l 1
 233.887 14.1602 l 2
 240.723 16.1133 245.117 21.4844 247.07 30.7617 c 0
 247.559 33.6914 247.559 37.1094 246.094 41.0156 c 0
 244.629 44.9219 243.164 49.8047 241.211 55.1758 c 2
 199.219 147.949 l 1
 120.117 56.1523 l 2
 107.91 41.9922 100.586 31.25 98.1445 23.9258 c 0
 96.6797 14.6484 105.469 9.76562 125 9.76562 c 1
 123.047 0 l 1
 14.1602 0 l 1
 16.1133 9.76562 l 1
 30.7617 12.6953 40.0391 15.625 43.9453 19.043 c 0
 49.3164 21.4844 55.1758 25.8789 61.0352 30.7617 c 0
 66.8945 36.1328 73.7305 42.4805 81.0547 49.8047 c 2
 192.871 174.805 l 1
 145.02 283.203 l 2
 141.602 291.016 137.695 298.34 133.301 305.176 c 0
 129.395 311.523 124.512 317.871 119.141 324.219 c 1
 89.8438 328.125 l 1
 91.7969 339.844 l 1
 248.047 339.844 l 1
 246.094 328.125 l 1
 224.609 328.125 212.891 322.266 209.961 311.035 c 0
 208.008 303.711 217.285 276.855 237.793 229.98 c 1
 279.785 277.344 302.246 304.199 305.176 311.035 c 0
 307.617 322.266 298.828 328.125 278.809 328.125 c 1
 280.762 339.844 l 1
 399.902 339.844 l 1
 397.949 328.125 l 1
 372.07 328.125 349.121 317.383 330.078 295.898 c 2
 248.047 205.078 l 1
 313.965 56.1523 l 2
 326.66 27.832 343.75 12.6953 365.234 9.76562 c 1
 362.793 0 l 1
EndSplineSet
EndChar
StartChar: y
Encoding: 121 121 90
OldEncoding: 121
Width: 370
Flags: HW
HStem: -169 80<22.5 46.5> 320 20<83 239 239 239 329 431 431 431>
Fore
203 -13 m 1
 142 -117 86 -169 37 -169 c 0
 -1 -169 -16 -154 -9 -124 c 0
 -5 -101 10 -89 35 -89 c 0
 58 -89 74 -104 87 -104 c 0
 104 -104 125 -85 150 -48 c 1
 186 9 l 1
 186 12 187 12 186 15 c 1
 114 305 l 1
 113 318 102 326 81 330 c 1
 83 340 l 1
 239 340 l 1
 237 329 l 1
 206 329 190 322 187 307 c 0
 186 298 187 289 191 280 c 1
 237 88 l 1
 359 308 l 1
 362 322 352 329 327 329 c 1
 329 340 l 1
 431 340 l 1
 429 329 l 1
 413 329 399 318 386 295 c 1
 203 -13 l 1
EndSplineSet
MinimumDistance: x17,-1 
Back
203.125 -13.1836 m 2
 386.23 294.922 l 1
 398.438 317.871 413.086 329.102 429.199 329.102 c 1
 431.152 339.844 l 1
 329.102 339.844 l 1
 327.148 329.102 l 1
 351.562 329.102 362.305 321.777 358.887 308.105 c 1
 236.816 87.8906 l 1
 190.918 279.785 l 1
 187.012 289.551 185.547 298.34 187.012 307.129 c 0
 189.453 321.777 206.543 329.102 236.816 329.102 c 1
 238.77 339.844 l 1
 83.0078 339.844 l 1
 81.0547 330.078 l 1
 102.539 326.172 113.281 317.871 113.77 305.176 c 1
 186.035 15.1367 l 1
 186.523 13.6719 187.012 12.6953 186.523 12.207 c 0
 186.035 11.2305 186.035 10.2539 186.035 8.78906 c 1
 149.902 -47.8516 l 1
 125.488 -85.4492 104.492 -104.004 86.9141 -104.004 c 0
 80.5664 -104.004 72.7539 -101.562 64.4531 -96.6797 c 0
 56.1523 -91.3086 46.3867 -88.8672 35.1562 -88.8672 c 0
 9.76562 -88.8672 -4.88281 -100.586 -8.78906 -124.023 c 0
 -16.1133 -153.809 -0.976562 -168.945 37.1094 -168.945 c 0
 86.4258 -168.945 141.602 -117.188 203.125 -13.1836 c 2
EndSplineSet
EndChar
StartChar: z
Encoding: 122 122 91
OldEncoding: 122
Width: 332
Flags: HW
HStem: 0 23<97 201> 316 24<174 280 280 280>
Fore
327 100 m 1
 297 0 l 1
 12 0 l 1
 14 10 l 1
 280 316 l 1
 174 316 l 2
 125 316 109 287 98 250 c 1
 82 250 l 1
 104 340 l 1
 368 340 l 1
 366 328 l 1
 97 23 l 1
 201 23 l 2
 268 23 291 43 315 104 c 1
 327 100 l 1
EndSplineSet
Back
327.148 100.098 m 1
 296.875 0 l 1
 12.207 0 l 1
 14.1602 9.76562 l 1
 279.785 315.918 l 1
 173.828 315.918 l 2
 149.414 315.918 131.836 309.57 121.582 296.875 c 0
 111.328 284.18 103.516 268.555 98.1445 250 c 1
 82.0312 250 l 1
 104.004 339.844 l 1
 368.164 339.844 l 1
 366.211 328.125 l 1
 97.168 22.9492 l 1
 201.172 22.9492 l 2
 217.773 22.9492 231.934 24.4141 243.652 26.8555 c 0
 255.371 29.7852 265.137 34.1797 273.926 40.5273 c 0
 282.715 46.875 290.039 55.1758 296.387 65.4297 c 0
 302.734 75.6836 309.082 88.8672 314.941 104.004 c 1
 327.148 100.098 l 1
EndSplineSet
EndChar
StartChar: braceleft
Encoding: 123 123 92
OldEncoding: 123
Width: 240
Flags: HW
HStem: -125 21<170.5 190> 456 20<298.5 318>
Fore
190 -125 m 1
 151 -125 124 -119 109 -107 c 0
 92 -92 87 -66 95 -27 c 1
 121 95 l 1
 132 143 122 163 79 175 c 1
 126 187 144 207 155 254 c 1
 182 379 l 2
 190 417 206 443 229 458 c 0
 249 470 279 476 318 476 c 1
 316 468 l 1
 265 457 245 434 234 382 c 2
 209 265 l 1
 204 239 196 218 184 203 c 1
 173 192 154 182 127 175 c 1
 175 159 184 141 171 85 c 1
 146 -31 l 2
 135 -82 147 -104 192 -117 c 1
 190 -125 l 1
EndSplineSet
MinimumDistance: x6,-1 
Back
189.941 -125 m 1
 151.367 -125 124.512 -119.141 108.887 -106.934 c 0
 91.7969 -92.2852 86.9141 -65.4297 95.2148 -26.8555 c 2
 121.094 95.2148 l 2
 126.465 119.141 125.977 136.719 120.117 148.438 c 0
 113.77 160.156 100.098 168.945 79.1016 174.805 c 1
 102.539 181.152 119.629 189.941 130.371 201.66 c 0
 141.602 213.379 149.902 230.469 154.785 253.906 c 1
 182.129 378.906 l 2
 189.941 416.992 205.566 443.359 229.004 458.008 c 0
 249.023 470.215 278.809 476.074 317.871 476.074 c 1
 315.918 467.773 l 1
 290.527 462.891 271.973 453.613 259.766 440.43 c 0
 248.047 427.734 239.258 408.203 233.887 381.836 c 2
 208.984 265.137 l 1
 204.102 238.77 195.801 218.262 184.082 203.125 c 1
 173.34 191.895 154.297 182.129 126.953 174.805 c 1
 139.16 170.898 148.438 166.504 155.762 162.109 c 0
 163.574 157.227 168.457 151.855 171.875 145.02 c 0
 175.293 138.184 176.758 130.371 176.27 120.605 c 0
 176.27 110.84 174.316 99.1211 170.898 84.9609 c 1
 145.996 -30.7617 l 2
 140.625 -56.1523 141.113 -75.1953 147.949 -87.8906 c 0
 154.785 -100.586 169.434 -110.352 191.895 -117.188 c 1
 189.941 -125 l 1
EndSplineSet
EndChar
StartChar: bar
Encoding: 124 124 93
OldEncoding: 124
Width: 155
Flags: HW
HStem: -121 21<36 71 71 71> 453 20<163 198 163 163>
Fore
71 -121 m 1
 36 -121 l 1
 163 473 l 1
 198 473 l 1
 71 -121 l 1
EndSplineSet
Back
70.8008 -121.094 m 1
 36.1328 -121.094 l 1
 163.086 473.145 l 1
 198.242 473.145 l 1
 70.8008 -121.094 l 1
EndSplineSet
EndChar
StartChar: braceright
Encoding: 125 125 94
OldEncoding: 125
Width: 240
Flags: HW
HStem: -125 21<-1 19.5> 456 20<127 147.5>
Fore
238 175 m 1
 191 163 172 142 161 95 c 1
 135 -27 l 2
 127 -65 111 -92 88 -107 c 0
 69 -119 40 -125 -1 -125 c 1
 1 -117 l 1
 46 -106 73 -78 83 -31 c 2
 108 85 l 2
 114 112 122 131 131 143 c 0
 142 157 161 167 190 174 c 1
 142 189 134 209 146 265 c 2
 171 382 l 2
 182 433 172 456 125 468 c 1
 127 476 l 1
 168 476 195 470 209 458 c 0
 226 443 230 417 221 378 c 1
 195 254 l 1
 186 213 200 186 238 175 c 1
EndSplineSet
MinimumDistance: x15,-1 
Back
237.793 174.805 m 1
 214.844 168.945 197.266 160.156 186.035 147.949 c 0
 174.805 136.23 166.504 118.164 161.133 95.2148 c 1
 134.766 -26.8555 l 2
 126.953 -64.9414 111.328 -91.7969 87.8906 -106.934 c 0
 69.3359 -119.141 39.5508 -125 -0.976562 -125 c 1
 0.976562 -117.188 l 1
 45.8984 -106.445 73.2422 -77.6367 83.0078 -30.7617 c 2
 107.91 84.9609 l 2
 113.77 111.816 121.582 130.859 130.859 143.066 c 0
 141.602 157.227 161.133 167.48 189.941 173.828 c 1
 166.016 181.152 151.367 191.406 145.508 204.102 c 0
 139.648 216.797 140.137 236.816 145.996 265.137 c 2
 170.898 381.836 l 2
 176.27 407.227 175.781 426.27 169.434 439.453 c 0
 163.086 452.637 148.438 461.914 125 467.773 c 1
 126.953 476.074 l 1
 167.48 476.074 194.824 470.215 208.984 458.008 c 0
 225.586 443.359 229.492 416.504 221.191 377.93 c 1
 194.824 253.906 l 1
 185.547 212.891 200.195 186.523 237.793 174.805 c 1
EndSplineSet
EndChar
StartChar: asciitilde
Encoding: 126 126 95
OldEncoding: 126
Width: 418
Flags: HW
HStem: 128 21<102 102> 178 45<165.5 181> 206 20<396 396>
Fore
414 191 m 1
 388 165 l 1
 370 150 l 2
 355 137 336 131 314 131 c 0
 299 131 276 139 244 154 c 1
 214 170 190 178 172 178 c 0
 149 178 126 161 102 128 c 1
 85 163 l 1
 114 203 147 223 184 223 c 0
 200 223 224 215 256 200 c 0
 286 185 309 177 324 176 c 0
 344 176 368 193 396 226 c 1
 414 191 l 1
EndSplineSet
Back
414.062 190.918 m 1
 388.184 165.039 l 1
 370.117 149.902 l 2
 354.492 137.207 335.938 130.859 313.965 130.859 c 0
 299.316 130.859 275.879 138.672 244.141 153.809 c 0
 213.867 169.922 189.941 178.223 171.875 178.223 c 0
 149.414 178.223 125.977 161.133 102.051 127.93 c 1
 84.9609 163.086 l 1
 114.258 203.125 147.461 223.145 184.082 223.145 c 0
 200.195 223.145 224.121 215.332 255.859 200.195 c 0
 286.133 185.547 308.594 177.246 324.219 175.781 c 0
 344.238 175.781 368.164 192.871 395.996 226.074 c 1
 414.062 190.918 l 1
EndSplineSet
EndChar
StartChar: uni0E10.descless
Encoding: 128 -1 96
OldEncoding: 63232
Width: 355
Flags: HW
HStem: 0 21<193 245 193 193> 220 59 299 42 365 20<181 218.5>
Fore
287 197 m 1
 245 0 l 1
 193 0 l 1
 213 96 207 158 180 186 c 1
 181 179 181 170 179 160 c 0
 172 132 151 106 124 106 c 0
 100 106 87 135 92 162 c 0
 99 195 123 220 160 220 c 0
 195 220 220 200 227 161 c 1
 235 196 l 1
 241 233 224 257 185 268 c 0
 160 275 124 279 79 279 c 1
 100 337 153 385 209 385 c 0
 228 385 246 382 262 373 c 0
 277 365 303 345 316 345 c 0
 339 345 352 360 365 380 c 1
 386 380 l 1
 365 337 335 316 298 316 c 0
 287 316 272 319 249 327 c 0
 226 334 209 341 197 341 c 0
 159 341 132 327 116 298 c 1
 124 299 132 300 156 300 c 0
 195 300 227 293 252 278 c 0
 281 259 293 232 287 197 c 1
160 162 m 0
 164 178 159 197 143 197 c 0
 128 197 116 182 111 162 c 0
 106 138 113 125 128 125 c 0
 141 125 155 138 160 162 c 0
EndSplineSet
Back
287.109 196.777 m 1
 292.969 231.445 281.25 258.789 251.953 277.832 c 0
 227.539 292.48 195.312 299.805 155.762 299.805 c 0
 144.043 299.805 135.254 299.805 129.883 299.316 c 0
 124.512 299.316 120.117 298.828 116.211 297.852 c 1
 131.836 326.66 159.18 340.82 196.777 340.82 c 0
 203.125 340.82 210.449 339.355 219.238 336.426 c 0
 227.539 333.496 237.793 330.566 249.023 327.148 c 0
 260.254 323.242 270.02 320.312 277.832 318.359 c 0
 286.133 316.895 292.48 315.918 297.852 315.918 c 0
 335.449 315.918 364.746 337.402 386.23 379.883 c 1
 365.234 379.883 l 1
 358.398 370.117 351.562 361.816 344.238 354.98 c 0
 336.426 348.145 327.148 345.215 315.918 345.215 c 0
 309.57 345.215 300.293 348.633 289.551 355.957 c 0
 278.32 363.281 269.531 369.141 262.207 373.047 c 0
 253.906 377.441 245.605 380.859 236.328 382.324 c 0
 227.539 384.277 218.262 384.766 208.984 384.766 c 0
 194.824 384.766 181.152 382.324 167.969 376.465 c 0
 154.785 370.605 142.09 363.281 130.859 353.516 c 0
 119.629 343.75 109.375 332.52 100.586 319.824 c 0
 91.3086 307.129 84.4727 293.457 79.1016 278.809 c 1
 124.512 278.809 159.668 275.391 185.059 268.066 c 0
 224.121 256.836 241.211 232.91 234.863 195.801 c 1
 227.051 161.133 l 1
 223.633 180.176 215.82 194.824 204.102 205.078 c 0
 191.895 214.844 177.246 220.215 160.156 220.215 c 0
 141.113 220.215 125.977 214.355 114.258 203.613 c 0
 103.027 192.383 95.2148 178.711 91.7969 162.109 c 0
 89.3555 148.438 90.8203 136.23 97.168 124.023 c 0
 103.027 111.816 111.816 105.957 124.023 105.957 c 0
 137.207 105.957 148.926 111.328 159.18 122.559 c 0
 168.945 133.301 175.781 145.996 179.199 160.156 c 0
 181.152 169.922 181.152 178.711 180.176 186.035 c 1
 193.359 171.875 201.172 149.414 204.102 118.652 c 0
 206.543 87.4023 203.125 47.8516 192.871 0 c 1
 245.117 0 l 1
 287.109 196.777 l 1
160.156 162.109 m 0
 157.227 149.902 152.832 140.625 146.973 134.277 c 0
 141.113 127.93 134.766 125 127.93 125 c 0
 120.605 125 115.234 127.93 111.816 134.277 c 0
 108.887 140.625 108.398 149.902 110.84 162.109 c 0
 113.77 171.875 117.676 180.176 123.535 187.012 c 0
 129.395 193.848 135.742 196.777 143.066 196.777 c 0
 150.879 196.777 156.25 193.359 159.18 185.547 c 0
 161.621 177.734 162.109 169.922 160.156 162.109 c 0
EndSplineSet
KernsSLIF: 212 30 0 0 215 30 0 0 214 30 0 0 213 30 0 0
EndChar
StartChar: uni0E34.left
Encoding: 129 -1 97
OldEncoding: 63233
Width: 0
Flags: HW
HStem: 422 21 560 20<-180.5 -132.5>
Fore
-63 456 m 1
 -66 488 -111 545 -169 545 c 0
 -194 545 -230 539 -237 515 c 0
 -240 500 -218 499 -201 499 c 0
 -174 499 -160 496 -137 491 c 0
 -106 484 -86 472 -63 456 c 1
-45 422 m 1
 -68 439 -99 453 -131 462 c 0
 -151 469 -176 473 -203 473 c 2
 -222 473 l 2
 -230 473 -237 473 -242 472 c 0
 -265 472 -277 475 -286 482 c 0
 -291 487 -294 498 -293 505 c 0
 -287 527 -258 552 -239 563 c 0
 -218 574 -194 580 -167 580 c 0
 -98 580 -26 513 -45 422 c 1
EndSplineSet
Back
-62.9883 456.055 m 1
 -63.4766 463.867 -66.8945 473.145 -72.2656 483.398 c 0
 -78.125 493.652 -85.9375 503.418 -95.7031 512.695 c 0
 -104.98 521.484 -116.211 529.297 -128.418 535.645 c 0
 -140.625 541.992 -154.297 544.922 -168.945 544.922 c 0
 -181.641 544.922 -195.312 542.969 -209.961 539.062 c 0
 -224.609 535.156 -233.887 526.855 -236.816 515.137 c 0
 -238.281 507.812 -234.863 502.93 -226.562 501.465 c 0
 -218.262 500 -209.473 499.023 -201.172 499.023 c 0
 -187.5 499.023 -176.27 498.535 -167.48 497.07 c 0
 -158.691 495.605 -148.438 493.652 -137.207 491.211 c 0
 -121.582 487.793 -108.398 482.91 -97.168 477.051 c 0
 -85.4492 471.191 -74.2188 463.867 -62.9883 456.055 c 1
-44.9219 421.875 m 1
 -56.1523 430.664 -69.3359 438.477 -84.4727 444.824 c 0
 -99.6094 451.66 -115.234 457.52 -130.859 461.914 c 0
 -141.113 465.332 -152.344 467.773 -164.551 470.215 c 0
 -176.758 472.168 -189.453 473.145 -203.125 473.145 c 0
 -208.496 473.145 -214.844 473.145 -222.168 473.145 c 0
 -229.98 473.145 -236.816 472.656 -242.188 472.168 c 0
 -253.418 472.168 -262.207 472.656 -269.043 474.609 c 0
 -275.879 476.074 -281.25 478.516 -286.133 481.934 c 0
 -288.574 484.863 -290.527 488.281 -291.992 493.164 c 0
 -293.457 497.559 -293.457 501.465 -292.969 504.883 c 0
 -291.504 510.254 -289.062 516.113 -285.156 521.973 c 0
 -280.762 527.832 -276.367 533.691 -270.996 538.574 c 0
 -265.625 543.457 -260.254 548.34 -254.395 552.734 c 0
 -249.023 556.641 -243.652 560.547 -238.77 562.988 c 0
 -218.262 574.219 -194.336 580.078 -166.992 580.078 c 0
 -149.902 580.078 -132.812 576.172 -116.211 567.871 c 0
 -99.1211 560.059 -84.9609 548.828 -73.2422 535.156 c 0
 -61.0352 520.996 -52.2461 504.395 -46.3867 484.863 c 0
 -41.0156 465.82 -40.5273 444.824 -44.9219 421.875 c 1
EndSplineSet
EndChar
StartChar: uni0E35.left
Encoding: 130 -1 98
OldEncoding: 63234
Width: 0
Flags: HW
HStem: 422 21 595 20<-58 -19 -19 -19>
Fore
-19 615 m 1
 -47 486 l 1
 -41 465 -40 444 -45 422 c 1
 -68 439 -99 453 -131 462 c 0
 -151 469 -176 473 -203 473 c 2
 -222 473 l 2
 -230 473 -237 473 -242 472 c 0
 -265 472 -277 475 -286 482 c 0
 -291 487 -294 498 -293 505 c 0
 -287 527 -258 552 -239 563 c 0
 -218 574 -194 580 -167 580 c 0
 -132 580 -99 564 -75 537 c 1
 -58 615 l 1
 -19 615 l 1
-63 456 m 1
 -66 488 -111 545 -169 545 c 0
 -194 545 -230 539 -237 515 c 0
 -240 500 -218 499 -201 499 c 0
 -174 499 -160 496 -137 491 c 0
 -106 484 -86 472 -63 456 c 1
EndSplineSet
Back
-19.043 615.234 m 1
 -58.1055 615.234 l 1
 -75.1953 537.109 l 1
 -86.9141 550.293 -101.074 561.035 -117.188 568.359 c 0
 -132.812 576.172 -149.902 580.078 -166.992 580.078 c 0
 -194.336 580.078 -218.262 574.219 -238.77 562.988 c 0
 -243.652 560.547 -249.023 556.641 -254.395 552.734 c 0
 -260.254 548.34 -265.625 543.457 -270.996 538.574 c 0
 -276.367 533.691 -280.762 527.832 -285.156 521.973 c 0
 -289.062 516.113 -291.504 510.254 -292.969 504.883 c 0
 -293.457 501.465 -293.457 497.559 -291.992 493.164 c 0
 -290.527 488.281 -288.574 484.863 -286.133 481.934 c 0
 -281.25 478.516 -275.879 476.074 -269.043 474.609 c 0
 -262.207 472.656 -253.418 472.168 -242.188 472.168 c 0
 -236.816 472.656 -229.98 473.145 -222.168 473.145 c 0
 -214.844 473.145 -208.496 473.145 -203.125 473.145 c 0
 -189.453 473.145 -176.758 472.168 -164.551 470.215 c 0
 -152.344 467.773 -141.113 465.332 -130.859 461.914 c 0
 -115.234 457.52 -99.6094 451.66 -84.4727 444.824 c 0
 -69.3359 438.477 -56.1523 430.664 -44.9219 421.875 c 1
 -40.5273 443.848 -41.0156 465.332 -46.875 485.84 c 1
 -19.043 615.234 l 1
-62.9883 456.055 m 1
 -74.2188 463.867 -85.4492 471.191 -97.168 477.051 c 0
 -108.398 482.91 -121.582 487.793 -137.207 491.211 c 0
 -148.438 493.652 -158.691 495.605 -167.48 497.07 c 0
 -176.27 498.535 -187.5 499.023 -201.172 499.023 c 0
 -209.473 499.023 -218.262 500 -226.562 501.465 c 0
 -234.863 502.93 -238.281 507.812 -236.816 515.137 c 0
 -233.887 526.855 -224.609 535.156 -209.961 539.062 c 0
 -195.312 542.969 -181.641 544.922 -168.945 544.922 c 0
 -154.297 544.922 -140.625 541.992 -128.418 535.645 c 0
 -116.211 529.297 -104.98 521.484 -95.7031 512.695 c 0
 -85.9375 503.418 -78.125 493.652 -72.2656 483.398 c 0
 -66.8945 473.145 -63.4766 463.867 -62.9883 456.055 c 1
EndSplineSet
EndChar
StartChar: uni0E36.left
Encoding: 131 -1 99
OldEncoding: 63235
Width: 0
Flags: HW
HStem: 422 21 595 20<-72.5 -43.5>
Fore
-45 422 m 1
 -68 439 -99 453 -131 462 c 0
 -151 469 -176 473 -203 473 c 2
 -222 473 l 2
 -230 473 -237 473 -242 472 c 0
 -265 472 -277 475 -286 482 c 0
 -291 487 -294 498 -293 505 c 0
 -287 527 -258 552 -239 563 c 0
 -218 574 -194 580 -167 580 c 0
 -151 580 -136 577 -123 571 c 1
 -112 596 -86 615 -59 615 c 0
 -28 615 -9 591 -16 560 c 0
 -20 539 -36 520 -56 511 c 1
 -43 486 -38 455 -45 422 c 1
-63 456 m 1
 -66 488 -111 545 -169 545 c 0
 -194 545 -230 539 -237 515 c 0
 -240 500 -218 499 -201 499 c 0
 -174 499 -160 496 -137 491 c 0
 -106 484 -86 472 -63 456 c 1
-101 560 m 0
 -105 543 -94 530 -77 530 c 0
 -39 530 -25 590 -65 590 c 0
 -82 590 -97 577 -101 560 c 0
EndSplineSet
Back
-44.9219 421.875 m 1
 -41.5039 438.477 -41.0156 454.59 -42.9688 469.727 c 0
 -44.9219 484.375 -49.3164 498.535 -56.1523 511.23 c 1
 -45.8984 515.625 -37.1094 522.461 -29.7852 530.762 c 0
 -22.4609 539.551 -18.0664 549.316 -16.1133 560.059 c 0
 -12.6953 575.195 -15.1367 588.379 -23.4375 599.121 c 0
 -31.7383 609.863 -43.457 615.234 -59.082 615.234 c 0
 -72.2656 615.234 -84.9609 610.84 -97.168 602.539 c 0
 -108.887 594.238 -117.676 583.496 -123.047 570.801 c 1
 -136.23 577.148 -150.879 580.078 -166.992 580.078 c 0
 -194.336 580.078 -218.262 574.219 -238.77 562.988 c 0
 -243.652 560.547 -249.023 556.641 -254.395 552.734 c 0
 -260.254 548.34 -265.625 543.457 -270.996 538.574 c 0
 -276.367 533.691 -280.762 527.832 -285.156 521.973 c 0
 -289.062 516.113 -291.504 510.254 -292.969 504.883 c 0
 -293.457 501.465 -293.457 497.559 -291.992 493.164 c 0
 -290.527 488.281 -288.574 484.863 -286.133 481.934 c 0
 -281.25 478.516 -275.879 476.074 -269.043 474.609 c 0
 -262.207 472.656 -253.418 472.168 -242.188 472.168 c 0
 -236.816 472.656 -229.98 473.145 -222.168 473.145 c 0
 -214.844 473.145 -208.496 473.145 -203.125 473.145 c 0
 -189.453 473.145 -176.758 472.168 -164.551 470.215 c 0
 -152.344 467.773 -141.113 465.332 -130.859 461.914 c 0
 -115.234 457.52 -99.6094 451.66 -84.4727 444.824 c 0
 -69.3359 438.477 -56.1523 430.664 -44.9219 421.875 c 1
-62.9883 456.055 m 1
 -74.2188 463.867 -85.4492 471.191 -97.168 477.051 c 0
 -108.398 482.91 -121.582 487.793 -137.207 491.211 c 0
 -148.438 493.652 -158.691 495.605 -167.48 497.07 c 0
 -176.27 498.535 -187.5 499.023 -201.172 499.023 c 0
 -209.473 499.023 -218.262 500 -226.562 501.465 c 0
 -234.863 502.93 -238.281 507.812 -236.816 515.137 c 0
 -233.887 526.855 -224.609 535.156 -209.961 539.062 c 0
 -195.312 542.969 -181.641 544.922 -168.945 544.922 c 0
 -154.297 544.922 -140.625 541.992 -128.418 535.645 c 0
 -116.211 529.297 -104.98 521.484 -95.7031 512.695 c 0
 -85.9375 503.418 -78.125 493.652 -72.2656 483.398 c 0
 -66.8945 473.145 -63.4766 463.867 -62.9883 456.055 c 1
-101.074 560.059 m 0
 -99.1211 568.848 -94.7266 575.684 -87.8906 581.543 c 0
 -81.543 587.402 -73.7305 589.844 -64.9414 589.844 c 0
 -56.1523 589.844 -49.8047 587.402 -44.9219 581.543 c 0
 -40.5273 575.684 -39.0625 568.848 -41.0156 560.059 c 0
 -42.9688 551.27 -47.3633 543.945 -54.1992 538.574 c 0
 -60.5469 532.715 -68.3594 529.785 -77.1484 529.785 c 0
 -85.4492 529.785 -92.2852 532.715 -97.168 538.574 c 0
 -101.562 543.945 -103.027 551.27 -101.074 560.059 c 0
EndSplineSet
EndChar
StartChar: uni0E37.left
Encoding: 132 -1 100
OldEncoding: 63236
Width: 0
Flags: HW
HStem: 422 21 595 20<-114 -79 -79 -79 -54 -19 -19 -19>
Fore
-19 615 m 1
 -47 486 l 1
 -41 465 -40 444 -45 422 c 1
 -68 439 -99 453 -131 462 c 0
 -151 469 -176 473 -203 473 c 2
 -222 473 l 2
 -230 473 -237 473 -242 472 c 0
 -265 472 -277 475 -286 482 c 0
 -291 487 -294 498 -293 505 c 0
 -287 527 -258 552 -239 563 c 0
 -218 574 -194 580 -167 580 c 0
 -152 580 -137 577 -124 571 c 1
 -114 615 l 1
 -79 615 l 1
 -92 553 l 1
 -85 546 -78 541 -71 534 c 1
 -54 615 l 1
 -19 615 l 1
-63 456 m 1
 -66 488 -111 545 -169 545 c 0
 -194 545 -230 539 -237 515 c 0
 -240 500 -218 499 -201 499 c 0
 -174 499 -160 496 -137 491 c 0
 -106 484 -86 472 -63 456 c 1
EndSplineSet
Back
-19.043 615.234 m 1
 -54.1992 615.234 l 1
 -70.8008 534.18 l 1
 -74.2188 537.109 -77.6367 540.527 -81.543 543.457 c 0
 -84.9609 546.387 -88.8672 549.805 -91.7969 553.223 c 1
 -79.1016 615.234 l 1
 -113.77 615.234 l 1
 -124.023 570.801 l 1
 -137.207 577.148 -151.855 580.078 -166.992 580.078 c 0
 -194.336 580.078 -218.262 574.219 -238.77 562.988 c 0
 -243.652 560.547 -249.023 556.641 -254.395 552.734 c 0
 -260.254 548.34 -265.625 543.457 -270.996 538.574 c 0
 -276.367 533.691 -280.762 527.832 -285.156 521.973 c 0
 -289.062 516.113 -291.504 510.254 -292.969 504.883 c 0
 -293.457 501.465 -293.457 497.559 -291.992 493.164 c 0
 -290.527 488.281 -288.574 484.863 -286.133 481.934 c 0
 -281.25 478.516 -275.879 476.074 -269.043 474.609 c 0
 -262.207 472.656 -253.418 472.168 -242.188 472.168 c 0
 -236.816 472.656 -229.98 473.145 -222.168 473.145 c 0
 -214.844 473.145 -208.496 473.145 -203.125 473.145 c 0
 -189.453 473.145 -176.758 472.168 -164.551 470.215 c 0
 -152.344 467.773 -141.113 465.332 -130.859 461.914 c 0
 -115.234 457.52 -99.6094 451.66 -84.4727 444.824 c 0
 -69.3359 438.477 -56.1523 430.664 -44.9219 421.875 c 1
 -40.5273 443.848 -41.0156 465.332 -46.875 485.84 c 1
 -19.043 615.234 l 1
-62.9883 456.055 m 1
 -74.2188 463.867 -85.4492 471.191 -97.168 477.051 c 0
 -108.398 482.91 -121.582 487.793 -137.207 491.211 c 0
 -148.438 493.652 -158.691 495.605 -167.48 497.07 c 0
 -176.27 498.535 -187.5 499.023 -201.172 499.023 c 0
 -209.473 499.023 -218.262 500 -226.562 501.465 c 0
 -234.863 502.93 -238.281 507.812 -236.816 515.137 c 0
 -233.887 526.855 -224.609 535.156 -209.961 539.062 c 0
 -195.312 542.969 -181.641 544.922 -168.945 544.922 c 0
 -154.297 544.922 -140.625 541.992 -128.418 535.645 c 0
 -116.211 529.297 -104.98 521.484 -95.7031 512.695 c 0
 -85.9375 503.418 -78.125 493.652 -72.2656 483.398 c 0
 -66.8945 473.145 -63.4766 463.867 -62.9883 456.055 c 1
EndSplineSet
EndChar
StartChar: ellipsis
Encoding: 133 8230 101
OldEncoding: 8230
Width: 531
Flags: HW
HStem: -7 77<112 122>
Fore
461 30 m 0
 457 9 442 -4 415 -7 c 1
 392 -7 381 5 383 30 c 1
 389 57 405 70 431 70 c 0
 442 70 450 66 456 58 c 0
 461 51 463 41 461 30 c 0
308 30 m 0
 304 9 289 -4 262 -7 c 1
 239 -7 228 5 230 30 c 1
 236 57 252 70 278 70 c 0
 289 70 297 66 303 58 c 0
 308 51 310 41 308 30 c 0
155 30 m 0
 150 5 135 -7 109 -7 c 0
 83 -7 72 5 77 30 c 0
 83 57 99 70 125 70 c 0
 151 70 161 57 155 30 c 0
EndSplineSet
Back
460.938 29.7852 m 0
 457.031 8.78906 441.895 -3.90625 415.039 -6.83594 c 1
 391.602 -6.83594 380.859 5.37109 382.812 29.7852 c 1
 389.16 56.6406 404.785 69.8242 431.152 69.8242 c 0
 441.895 69.8242 450.195 65.918 456.055 58.1055 c 0
 461.426 50.7812 462.891 41.5039 460.938 29.7852 c 0
308.105 29.7852 m 0
 304.199 8.78906 288.574 -3.90625 262.207 -6.83594 c 1
 238.77 -6.83594 228.027 5.37109 229.98 29.7852 c 1
 235.84 56.6406 251.953 69.8242 277.832 69.8242 c 0
 288.574 69.8242 296.875 65.918 303.223 58.1055 c 0
 308.105 50.7812 310.059 41.5039 308.105 29.7852 c 0
154.785 29.7852 m 0
 150.391 5.37109 134.766 -6.83594 108.887 -6.83594 c 0
 83.0078 -6.83594 72.2656 5.37109 77.1484 29.7852 c 0
 83.0078 56.6406 99.1211 69.8242 125 69.8242 c 0
 150.879 69.8242 161.133 56.6406 154.785 29.7852 c 0
EndSplineSet
EndChar
StartChar: uni0E48.low_left
Encoding: 134 -1 102
OldEncoding: 63237
Width: 0
Flags: HW
HStem: 445 21<-97.5 -91.5> 577 20<-86 -36 -86 -86>
Fore
-36 597 m 1
 -53 537 l 1
 -81 454 l 1
 -84 448 -89 445 -94 445 c 0
 -101 445 -104 448 -103 454 c 1
 -96 537 l 1
 -86 597 l 1
 -36 597 l 1
EndSplineSet
Back
-36.1328 597.168 m 1
 -53.2227 537.109 l 1
 -81.0547 454.102 l 1
 -84.4727 448.242 -88.8672 444.824 -94.2383 444.824 c 0
 -101.562 444.824 -104.492 448.242 -103.027 454.102 c 1
 -96.1914 537.109 l 1
 -85.9375 597.168 l 1
 -36.1328 597.168 l 1
EndSplineSet
EndChar
StartChar: uni0E49.low_left
Encoding: 135 -1 103
OldEncoding: 63238
Width: 0
Flags: HW
HStem: 445 23<-206 -186.5> 445 158<-195.5 -186.5>
Fore
-17 603 m 1
 -28 552 -54 512 -95 484 c 0
 -130 460 -165 445 -208 445 c 2
 -262 445 l 1
 -259 463 l 1
 -236 465 -216 476 -198 497 c 1
 -206 496 l 2
 -234 496 -244 514 -236 550 c 0
 -231 577 -208 603 -183 603 c 0
 -159 603 -145 578 -152 551 c 0
 -160 512 -178 485 -206 468 c 1
 -167 468 -136 481 -112 508 c 0
 -89 532 -73 563 -65 603 c 1
 -17 603 l 1
-172 550 m 0
 -168 569 -172 583 -187 583 c 0
 -202 583 -212 572 -217 550 c 0
 -222 527 -217 515 -202 515 c 0
 -187 515 -177 527 -172 550 c 0
EndSplineSet
Back
-17.0898 603.027 m 1
 -28.3203 551.758 -54.1992 512.207 -95.2148 483.887 c 0
 -112.305 472.168 -130.371 462.402 -148.438 455.566 c 0
 -166.992 448.73 -186.523 444.824 -208.008 444.824 c 2
 -262.207 444.824 l 1
 -258.789 462.891 l 1
 -236.328 464.844 -215.82 476.562 -198.242 497.07 c 1
 -206.055 496.094 l 2
 -233.887 496.094 -244.141 514.16 -235.84 549.805 c 0
 -233.398 563.477 -227.051 575.684 -216.797 586.426 c 0
 -207.031 597.656 -195.801 603.027 -183.105 603.027 c 0
 -170.898 603.027 -162.109 597.656 -155.762 586.914 c 0
 -149.902 576.172 -148.438 564.453 -151.855 550.781 c 0
 -160.156 512.207 -178.223 484.863 -206.055 467.773 c 1
 -167.48 467.773 -136.23 481.445 -111.816 507.812 c 0
 -100.586 520.02 -90.8203 533.691 -83.0078 549.316 c 0
 -75.1953 564.941 -68.8477 583.008 -64.9414 603.027 c 1
 -17.0898 603.027 l 1
-171.875 549.805 m 0
 -169.922 559.57 -170.41 567.383 -172.363 573.73 c 0
 -174.805 579.59 -179.688 583.008 -187.012 583.008 c 0
 -202.148 583.008 -212.402 571.777 -216.797 549.805 c 0
 -222.168 526.855 -217.285 515.137 -202.148 515.137 c 0
 -187.5 515.137 -177.246 526.855 -171.875 549.805 c 0
EndSplineSet
EndChar
StartChar: uni0E4A.low_left
Encoding: 136 -1 104
OldEncoding: 63239
Width: 0
Flags: HW
HStem: 443 136<-143.5 -134.5> 445 134 557 22<-217.5 -204 -143.5 -129.5> 562 20
Fore
-17 582 m 1
 -37 489 -91 443 -178 443 c 1
 -174 463 l 1
 -150 468 -124 494 -119 519 c 0
 -114 544 -120 557 -139 557 c 0
 -156 557 -168 543 -174 514 c 1
 -193 514 l 1
 -187 543 -194 557 -214 557 c 0
 -221 557 -228 553 -235 548 c 1
 -212 548 -204 526 -211 497 c 0
 -219 462 -237 445 -264 445 c 0
 -287 445 -302 472 -295 497 c 0
 -292 512 -286 526 -277 539 c 0
 -262 559 -242 579 -209 579 c 0
 -192 579 -181 570 -176 551 c 1
 -168 567 -151 579 -136 579 c 0
 -99 579 -85 559 -93 520 c 0
 -99 495 -111 477 -130 464 c 1
 -97 476 -76 503 -67 545 c 1
 -64 562 l 1
 -61 582 l 1
 -17 582 l 1
-229 497 m 0
 -225 518 -230 532 -246 532 c 0
 -261 532 -273 514 -276 497 c 0
 -281 477 -276 462 -261 462 c 0
 -245 462 -234 474 -229 497 c 0
EndSplineSet
Back
-17.0898 582.031 m 1
 -37.1094 489.258 -90.8203 442.871 -178.223 442.871 c 1
 -173.828 462.891 l 1
 -162.109 465.82 -150.391 472.656 -139.648 483.398 c 0
 -128.418 494.629 -121.582 506.348 -119.141 519.043 c 0
 -113.77 544.434 -120.117 557.129 -139.16 557.129 c 0
 -156.25 557.129 -167.969 542.48 -173.828 514.16 c 1
 -192.871 514.16 l 1
 -187.012 542.48 -193.848 557.129 -213.867 557.129 c 0
 -217.285 557.129 -220.703 556.152 -224.609 554.688 c 0
 -228.027 552.734 -231.445 550.781 -234.863 547.852 c 1
 -223.633 547.852 -215.82 542.969 -211.914 533.691 c 0
 -208.008 523.926 -207.52 511.719 -210.938 497.07 c 0
 -219.238 462.402 -236.816 444.824 -264.16 444.824 c 0
 -275.391 444.824 -284.18 450.684 -290.527 461.426 c 0
 -296.875 472.656 -298.34 484.375 -294.922 497.07 c 0
 -292.48 512.207 -286.133 526.367 -276.855 539.062 c 0
 -269.531 548.828 -260.742 558.105 -250 566.406 c 0
 -239.258 574.707 -225.586 579.102 -208.984 579.102 c 0
 -191.895 579.102 -180.664 569.824 -175.781 550.781 c 1
 -171.875 559.082 -166.016 565.43 -158.691 570.801 c 0
 -150.879 576.172 -143.555 579.102 -136.23 579.102 c 0
 -99.1211 579.102 -84.9609 559.57 -92.7734 520.02 c 0
 -99.1211 495.117 -111.328 476.562 -129.883 463.867 c 1
 -97.168 476.074 -76.1719 502.93 -66.8945 544.922 c 1
 -63.9648 562.012 l 1
 -61.0352 582.031 l 1
 -17.0898 582.031 l 1
-229.004 497.07 m 0
 -227.051 507.812 -227.539 516.113 -229.98 522.461 c 0
 -232.91 528.809 -237.793 532.227 -246.094 532.227 c 0
 -253.418 532.227 -259.766 528.32 -265.625 520.996 c 0
 -270.996 513.672 -274.902 505.859 -275.879 497.07 c 0
 -278.809 486.816 -278.809 478.516 -275.879 472.168 c 0
 -273.438 465.332 -268.555 461.914 -261.23 461.914 c 0
 -245.117 461.914 -234.375 473.633 -229.004 497.07 c 0
EndSplineSet
EndChar
StartChar: uni0E4B.low_left
Encoding: 137 -1 105
OldEncoding: 63240
Width: 0
Flags: HW
HStem: 445 21<-164 -121 -164 -164> 508 32<-207 -154 -97 -45> 583 20<-138 -81 -81 -81>
Fore
-138 603 m 1
 -81 603 l 1
 -97 540 l 1
 -38 540 l 1
 -45 508 l 1
 -105 508 l 1
 -121 445 l 1
 -164 445 l 1
 -154 508 l 1
 -214 508 l 1
 -207 540 l 1
 -148 540 l 1
 -138 603 l 1
EndSplineSet
Back
-138.184 603.027 m 1
 -147.949 540.039 l 1
 -207.031 540.039 l 1
 -213.867 507.812 l 1
 -153.809 507.812 l 1
 -164.062 444.824 l 1
 -121.094 444.824 l 1
 -104.98 507.812 l 1
 -44.9219 507.812 l 1
 -38.0859 540.039 l 1
 -97.168 540.039 l 1
 -81.0547 603.027 l 1
 -138.184 603.027 l 1
EndSplineSet
EndChar
StartChar: uni0E4C.low_left
Encoding: 138 -1 106
OldEncoding: 63241
Width: 0
Flags: HW
HStem: 445 21<-147.5 -115.5> 640 20<37 37>
Fore
-90 507 m 1
 -90 507 -87 520 -90 529 c 0
 -93 538 -99 543 -108 543 c 0
 -121 543 -134 531 -139 507 c 0
 -145 481 -140 468 -124 468 c 0
 -119 468 -108 472 -101 479 c 0
 -94 487 -93 499 -90 507 c 1
-90 564 m 1
 -68 558 -60 539 -67 506 c 0
 -74 474 -101 445 -130 445 c 0
 -165 445 -186 472 -179 507 c 0
 -168 554 -130 582 -61 601 c 0
 -24 612 -7 622 -8 650 c 1
 37 660 l 1
 37 657 36 652 35 645 c 0
 31 624 16 608 -24 595 c 0
 -47 587 -77 575 -90 564 c 1
EndSplineSet
Back
-89.8438 506.836 m 1
 -89.8438 506.836 -89.8438 509.277 -88.8672 514.648 c 0
 -88.3789 519.531 -88.8672 524.414 -89.8438 528.809 c 0
 -92.7734 538.574 -98.6328 542.969 -107.91 542.969 c 0
 -114.746 542.969 -120.605 540.039 -126.465 534.18 c 0
 -132.324 527.832 -136.23 519.043 -139.16 506.836 c 0
 -145.02 480.957 -140.137 467.773 -124.023 467.773 c 0
 -121.094 467.773 -117.676 469.238 -112.793 471.191 c 0
 -108.398 473.145 -104.492 475.586 -101.074 479.004 c 0
 -97.6562 482.91 -95.2148 487.793 -94.2383 493.164 c 0
 -92.7734 498.535 -91.3086 502.93 -89.8438 506.836 c 1
-89.8438 563.965 m 1
 -67.8711 558.105 -60.5469 538.574 -66.8945 505.859 c 0
 -70.3125 490.234 -78.125 476.074 -89.8438 463.379 c 0
 -102.051 451.172 -115.234 444.824 -129.883 444.824 c 0
 -147.461 444.824 -160.645 451.172 -169.922 462.891 c 0
 -179.199 475.098 -182.129 489.746 -179.199 506.836 c 0
 -173.828 530.273 -161.133 549.316 -142.09 564.453 c 0
 -122.559 579.59 -95.7031 591.797 -61.0352 601.074 c 0
 -42.4805 606.445 -28.8086 612.305 -20.0195 619.141 c 0
 -11.2305 625.488 -7.32422 636.23 -7.8125 649.902 c 1
 37.1094 660.156 l 1
 37.1094 656.738 36.1328 651.855 35.1562 645.02 c 0
 33.2031 634.277 27.832 625 19.043 617.188 c 0
 10.2539 608.887 -3.90625 601.562 -23.9258 595.215 c 0
 -35.1562 590.82 -47.3633 585.938 -60.5469 580.566 c 0
 -73.7305 574.707 -83.4961 569.336 -89.8438 563.965 c 1
EndSplineSet
EndChar
StartChar: uni0E48.low
Encoding: 139 -1 107
OldEncoding: 63242
Width: 0
Flags: HW
HStem: 445 21<-17.5 -11.5> 577 20<-6 44 -6 -6>
Fore
44 597 m 1
 27 537 l 1
 -1 454 l 1
 -4 448 -9 445 -14 445 c 0
 -21 445 -24 448 -23 454 c 1
 -16 537 l 1
 -6 597 l 1
 44 597 l 1
EndSplineSet
Back
43.9453 597.168 m 1
 26.8555 537.109 l 1
 -0.976562 454.102 l 1
 -4.39453 448.242 -8.78906 444.824 -14.1602 444.824 c 0
 -21.4844 444.824 -24.4141 448.242 -22.9492 454.102 c 1
 -16.1133 537.109 l 1
 -5.85938 597.168 l 1
 43.9453 597.168 l 1
EndSplineSet
EndChar
StartChar: uni0E49.low
Encoding: 140 -1 108
OldEncoding: 63243
Width: 0
Flags: HW
HStem: 445 23<-98 -78.5> 445 158<-87.5 -78.5>
Fore
91 603 m 1
 80 552 54 512 13 484 c 0
 -22 460 -57 445 -100 445 c 2
 -154 445 l 1
 -151 463 l 1
 -128 465 -108 476 -90 497 c 1
 -98 496 l 2
 -126 496 -136 514 -128 550 c 0
 -123 577 -100 603 -75 603 c 0
 -51 603 -37 578 -44 551 c 0
 -52 512 -70 485 -98 468 c 1
 -59 468 -28 481 -4 508 c 0
 19 532 35 563 43 603 c 1
 91 603 l 1
-64 550 m 0
 -60 569 -64 583 -79 583 c 0
 -94 583 -104 572 -109 550 c 0
 -114 527 -109 515 -94 515 c 0
 -79 515 -69 527 -64 550 c 0
EndSplineSet
Back
90.8203 603.027 m 1
 79.5898 551.758 53.7109 512.207 13.1836 483.887 c 0
 -4.39453 472.168 -21.9727 462.402 -40.5273 455.566 c 0
 -58.5938 448.73 -78.6133 444.824 -100.098 444.824 c 2
 -153.809 444.824 l 1
 -150.879 462.891 l 1
 -128.418 464.844 -107.91 476.562 -89.8438 497.07 c 1
 -98.1445 496.094 l 2
 -125.977 496.094 -136.23 514.16 -127.93 549.805 c 0
 -125.488 563.477 -119.141 575.684 -108.887 586.426 c 0
 -99.1211 597.656 -87.8906 603.027 -75.1953 603.027 c 0
 -62.9883 603.027 -54.1992 597.656 -47.8516 586.914 c 0
 -41.9922 576.172 -40.5273 564.453 -43.9453 550.781 c 0
 -51.7578 512.207 -69.8242 484.863 -98.1445 467.773 c 1
 -59.5703 467.773 -27.832 481.445 -3.90625 507.812 c 0
 7.32422 520.02 17.0898 533.691 24.9023 549.316 c 0
 33.2031 564.941 39.0625 583.008 42.9688 603.027 c 1
 90.8203 603.027 l 1
-63.9648 549.805 m 0
 -62.0117 559.57 -62.0117 567.383 -64.4531 573.73 c 0
 -66.8945 579.59 -71.7773 583.008 -79.1016 583.008 c 0
 -94.2383 583.008 -104.492 571.777 -108.887 549.805 c 0
 -114.258 526.855 -109.375 515.137 -94.2383 515.137 c 0
 -79.1016 515.137 -69.3359 526.855 -63.9648 549.805 c 0
EndSplineSet
EndChar
StartChar: uni0E4A.low
Encoding: 141 -1 109
OldEncoding: 63244
Width: 0
Flags: HW
HStem: 443 136<-33.5 -22.5> 557 22<-33.5 -17.5> 562 20
Fore
95 582 m 1
 75 489 21 443 -66 443 c 1
 -62 463 l 1
 -38 468 -12 494 -7 519 c 0
 -2 544 -8 557 -27 557 c 0
 -44 557 -56 543 -62 514 c 1
 -81 514 l 1
 -75 543 -82 557 -102 557 c 0
 -109 557 -116 553 -123 548 c 1
 -100 548 -92 526 -99 497 c 0
 -107 462 -125 445 -152 445 c 0
 -175 445 -190 472 -183 497 c 0
 -180 512 -176 526 -165 539 c 1
 -150 562 -130 580 -97 580 c 0
 -80 580 -69 570 -64 551 c 1
 -56 567 -43 579 -24 579 c 0
 13 579 27 559 19 520 c 0
 13 495 1 477 -18 464 c 1
 15 476 36 503 45 545 c 1
 48 562 l 1
 51 582 l 1
 95 582 l 1
-117 497 m 0
 -113 518 -118 532 -134 532 c 0
 -149 532 -161 514 -164 497 c 0
 -169 477 -164 462 -149 462 c 0
 -133 462 -122 474 -117 497 c 0
EndSplineSet
Back
95.2148 582.031 m 1
 75.1953 489.258 21.4844 442.871 -65.918 442.871 c 1
 -62.0117 462.891 l 1
 -49.8047 465.82 -38.5742 472.656 -27.3438 483.398 c 0
 -16.6016 494.629 -9.76562 506.348 -6.83594 519.043 c 0
 -1.46484 544.434 -8.30078 557.129 -26.8555 557.129 c 0
 -44.4336 557.129 -56.1523 542.48 -62.0117 514.16 c 1
 -81.0547 514.16 l 1
 -75.1953 542.48 -82.0312 557.129 -102.051 557.129 c 0
 -105.469 557.129 -108.887 556.152 -112.305 554.688 c 0
 -116.211 552.734 -119.629 550.781 -123.047 547.852 c 1
 -111.816 547.852 -104.004 542.969 -100.098 533.691 c 0
 -96.1914 523.926 -95.7031 511.719 -99.1211 497.07 c 0
 -106.934 462.402 -124.512 444.824 -151.855 444.824 c 0
 -163.574 444.824 -172.363 450.684 -178.711 461.426 c 0
 -185.059 472.656 -186.523 484.375 -183.105 497.07 c 0
 -181.641 504.395 -179.688 511.719 -176.758 518.555 c 0
 -174.316 525.391 -170.41 532.227 -165.039 539.062 c 0
 -157.715 550.293 -148.438 560.059 -138.184 567.871 c 0
 -127.441 576.172 -113.77 580.078 -97.168 580.078 c 0
 -80.5664 580.078 -69.3359 570.312 -63.9648 550.781 c 1
 -60.0586 559.082 -54.6875 565.43 -47.8516 570.801 c 0
 -41.5039 576.172 -33.2031 579.102 -23.9258 579.102 c 0
 12.6953 579.102 26.8555 559.57 19.043 520.02 c 0
 13.1836 495.117 0.488281 476.562 -18.0664 463.867 c 1
 14.6484 476.074 35.6445 502.93 44.9219 544.922 c 1
 47.8516 562.012 l 1
 50.7812 582.031 l 1
 95.2148 582.031 l 1
-117.188 497.07 m 0
 -115.234 507.812 -115.234 516.113 -118.164 522.461 c 0
 -120.605 528.809 -125.977 532.227 -133.789 532.227 c 0
 -141.113 532.227 -147.949 528.32 -153.32 520.996 c 0
 -159.18 513.672 -162.598 505.859 -164.062 497.07 c 0
 -166.504 486.816 -166.504 478.516 -164.062 472.168 c 0
 -161.133 465.332 -156.25 461.914 -148.926 461.914 c 0
 -132.812 461.914 -122.559 473.633 -117.188 497.07 c 0
EndSplineSet
EndChar
StartChar: uni0E4B.low
Encoding: 142 -1 110
OldEncoding: 63245
Width: 0
Flags: HW
HStem: 485 21<-54 -11 -54 -54> 548 32<-97 -44 13 65> 623 20<-27 30 30 30>
Fore
-27 643 m 1
 30 643 l 1
 13 580 l 1
 72 580 l 1
 65 548 l 1
 5 548 l 1
 -11 485 l 1
 -54 485 l 1
 -44 548 l 1
 -104 548 l 1
 -97 580 l 1
 -38 580 l 1
 -27 643 l 1
EndSplineSet
Back
-26.8555 643.066 m 1
 -38.0859 580.078 l 1
 -97.168 580.078 l 1
 -104.004 547.852 l 1
 -43.9453 547.852 l 1
 -54.1992 484.863 l 1
 -11.2305 484.863 l 1
 4.88281 547.852 l 1
 64.9414 547.852 l 1
 71.7773 580.078 l 1
 13.1836 580.078 l 1
 29.7852 643.066 l 1
 -26.8555 643.066 l 1
EndSplineSet
EndChar
StartChar: uni0E4C.low
Encoding: 143 -1 111
OldEncoding: 63246
Width: 0
Flags: HW
HStem: 445 21<-125.5 -89.5> 662 20<79 79>
Fore
-62 513 m 1
 -62 513 -59 528 -62 537 c 0
 -66 548 -72 553 -81 553 c 0
 -96 553 -110 540 -117 513 c 0
 -123 485 -117 471 -99 471 c 0
 -92 471 -82 475 -74 483 c 0
 -67 491 -65 505 -62 513 c 1
-62 576 m 1
 -37 570 -29 549 -36 512 c 0
 -44 477 -73 445 -106 445 c 0
 -145 445 -168 474 -160 513 c 0
 -149 564 -105 599 -30 618 c 0
 13 629 30 640 29 671 c 1
 79 682 l 1
 79 678 78 673 77 666 c 0
 72 643 56 625 11 610 c 0
 -16 602 -47 588 -62 576 c 1
EndSplineSet
Back
-62.0117 513.184 m 1
 -62.0117 513.184 -61.5234 515.625 -61.0352 521.484 c 0
 -60.5469 527.344 -60.5469 532.227 -62.0117 537.109 c 0
 -65.918 547.852 -72.2656 553.223 -81.0547 553.223 c 0
 -88.3789 553.223 -95.2148 549.805 -102.051 542.969 c 0
 -108.887 536.133 -113.77 526.367 -117.188 513.184 c 0
 -123.047 484.863 -117.188 471.191 -99.1211 471.191 c 0
 -95.7031 471.191 -91.7969 472.168 -86.9141 474.121 c 0
 -82.5195 476.074 -78.125 479.004 -74.2188 482.91 c 0
 -70.8008 486.816 -68.3594 492.188 -66.4062 498.047 c 0
 -64.9414 503.906 -63.4766 508.789 -62.0117 513.184 c 1
-62.0117 576.172 m 1
 -37.1094 569.824 -28.8086 548.828 -36.1328 512.207 c 0
 -40.0391 494.629 -48.3398 479.004 -61.5234 465.332 c 0
 -74.707 451.66 -89.3555 444.824 -105.957 444.824 c 0
 -125.488 444.824 -140.137 451.66 -150.391 464.355 c 0
 -160.645 477.539 -164.062 493.652 -160.156 513.184 c 0
 -148.438 564.453 -105.469 599.121 -29.7852 618.164 c 0
 -8.78906 623.535 6.83594 629.883 16.1133 637.207 c 0
 25.3906 644.531 29.7852 655.762 28.8086 670.898 c 1
 79.1016 682.129 l 1
 79.1016 678.223 78.125 672.852 77.1484 666.016 c 0
 74.2188 654.785 68.3594 644.531 59.082 634.766 c 0
 49.8047 625.488 33.6914 617.188 11.2305 609.863 c 0
 -2.44141 605.957 -16.1133 601.074 -29.7852 594.727 c 0
 -43.9453 588.379 -54.6875 582.031 -62.0117 576.172 c 1
EndSplineSet
EndChar
StartChar: uni0E0D.descless
Encoding: 144 -1 112
OldEncoding: 63247
Width: 545
Flags: HW
HStem: -6 21<95.5 136.5> 352 33<242.5 278>
Fore
487 55 m 2
 479 18 460 0 431 0 c 2
 274 0 l 1
 329 257 l 2
 341 313 306 352 250 352 c 0
 203 352 163 338 131 310 c 1
 165 310 190 295 206 266 c 1
 177 258 156 239 149 207 c 2
 125 94 l 1
 136 105 145 110 160 110 c 0
 183 110 198 90 190 51 c 0
 182 13 157 -6 116 -6 c 0
 75 -6 57 19 66 62 c 2
 94 194 l 1
 103 235 129 262 170 273 c 1
 155 286 129 293 92 293 c 1
 105 320 130 342 166 360 c 0
 197 377 227 385 258 385 c 0
 358 385 399 342 381 257 c 2
 330 19 l 1
 391 19 l 2
 411 19 430 31 435 55 c 2
 503 378 l 1
 555 378 l 1
 487 55 l 2
174 51 m 0
 179 74 169 90 156 90 c 0
 143 90 124 74 119 50 c 0
 115 35 120 13 140 13 c 0
 153 13 169 27 174 51 c 0
EndSplineSet
Back
486.816 55.1758 m 1
 479.004 18.5547 460.449 0 431.152 0 c 2
 273.926 0 l 1
 329.102 256.836 l 2
 334.961 285.156 330.566 307.617 314.941 325.684 c 0
 299.805 343.262 277.832 352.051 250 352.051 c 0
 202.637 352.051 163.086 337.891 130.859 310.059 c 1
 165.039 310.059 189.941 295.41 206.055 266.113 c 1
 191.406 262.207 179.199 255.371 168.945 245.605 c 0
 159.18 235.84 152.344 223.145 148.926 207.031 c 2
 125 94.2383 l 1
 130.371 99.1211 135.742 103.516 141.113 105.957 c 0
 146.484 108.887 152.832 109.863 160.156 109.863 c 0
 171.387 109.863 180.176 104.98 186.523 95.2148 c 0
 192.871 84.9609 193.848 70.3125 189.941 50.7812 c 0
 182.129 13.1836 157.227 -5.85938 116.211 -5.85938 c 0
 95.2148 -5.85938 80.5664 0 71.7773 12.207 c 0
 63.4766 23.9258 61.5234 40.5273 65.918 62.0117 c 2
 94.2383 193.848 l 1
 103.516 235.352 128.906 261.719 169.922 272.949 c 1
 155.273 286.133 129.395 292.969 91.7969 292.969 c 1
 105.469 319.824 129.883 341.797 166.016 359.863 c 0
 196.777 376.465 227.539 384.766 257.812 384.766 c 0
 357.91 384.766 398.926 342.285 380.859 256.836 c 2
 330.078 19.043 l 1
 391.113 19.043 l 2
 400.879 19.043 410.156 21.9727 418.457 27.832 c 0
 426.758 34.1797 432.129 42.9688 435.059 55.1758 c 2
 502.93 377.93 l 1
 555.176 377.93 l 1
 486.816 55.1758 l 1
173.828 50.7812 m 0
 176.758 62.5 175.781 71.7773 171.875 79.1016 c 0
 167.969 86.4258 162.598 89.8438 155.762 89.8438 c 0
 149.414 89.8438 142.09 86.4258 134.277 79.1016 c 0
 126.953 71.7773 121.582 62.0117 119.141 49.8047 c 0
 117.188 42.4805 117.676 34.668 120.605 25.8789 c 0
 123.535 17.0898 129.883 13.1836 140.137 13.1836 c 0
 146.484 13.1836 153.32 16.1133 160.156 22.9492 c 0
 166.504 29.7852 171.387 39.0625 173.828 50.7812 c 0
EndSplineSet
EndChar
StartChar: quoteleft
Encoding: 145 8216 113
OldEncoding: 8216
Width: 163
Flags: HW
HStem: 303 21<149 155> 453 20<213 213>
Fore
204 344 m 0
 201 331 195 321 185 313 c 0
 176 307 166 304 155 303 c 0
 143 303 132 307 123 315 c 1
 111 328 108 346 113 370 c 0
 117 391 132 414 159 437 c 0
 180 456 198 468 213 473 c 1
 217 460 l 1
 172 435 148 411 143 386 c 0
 142 380 145 377 151 376 c 1
 160 377 l 1
 169 379 l 1
 198 379 209 367 204 344 c 0
EndSplineSet
Back
204.102 344.238 m 0
 201.172 331.543 194.824 320.801 185.059 312.988 c 0
 175.781 307.129 165.527 303.711 154.785 303.223 c 0
 143.066 303.223 132.324 307.129 123.047 314.941 c 1
 110.84 327.637 107.91 346.191 112.793 370.117 c 0
 117.188 391.113 132.324 413.574 159.18 437.012 c 0
 180.176 456.543 198.242 468.262 212.891 473.145 c 1
 216.797 459.961 l 1
 172.363 435.547 147.461 410.645 143.066 386.23 c 0
 142.09 379.883 145.02 376.465 150.879 375.977 c 2
 160.156 376.953 l 1
 168.945 378.906 l 1
 197.754 378.906 209.473 367.188 204.102 344.238 c 0
EndSplineSet
EndChar
StartChar: quoteright
Encoding: 146 8217 114
OldEncoding: 8217
Width: 163
Flags: HW
HStem: 303 21<117 117> 453 20<176 182>
Fore
217 406 m 0
 213 389 200 368 178 345 c 1
 158 326 138 312 117 303 c 1
 114 316 l 1
 158 341 182 366 187 391 c 0
 188 397 186 400 179 400 c 2
 171 399 l 1
 162 398 l 2
 133 398 121 410 126 433 c 0
 131 456 148 470 176 473 c 0
 188 473 198 469 207 461 c 1
 219 448 222 430 217 406 c 0
EndSplineSet
Back
216.797 405.762 m 0
 212.891 388.672 200.195 368.164 178.223 345.215 c 0
 158.203 325.684 137.695 311.523 117.188 303.223 c 1
 113.77 315.918 l 1
 158.203 341.309 182.129 366.211 187.012 391.113 c 0
 188.477 396.973 185.547 399.902 179.199 399.902 c 2
 170.898 398.926 l 1
 162.109 397.949 l 2
 132.812 397.949 120.605 409.668 125.977 433.105 c 0
 131.348 456.543 147.949 469.727 175.781 473.145 c 1
 187.988 473.145 198.242 469.238 207.031 460.938 c 0
 219.238 448.242 222.168 430.176 216.797 405.762 c 0
EndSplineSet
EndChar
StartChar: quotedblleft
Encoding: 147 8220 115
OldEncoding: 8220
Width: 331
Flags: HW
HStem: 299 92 453 20<217 217 362 362>
Fore
350 345 m 0
 344 314 328 299 303 299 c 0
 266 299 251 320 260 363 c 0
 270 408 304 444 362 473 c 1
 366 460 l 1
 322 435 298 411 293 386 c 0
 292 382 293 379 297 378 c 1
 304 385 313 389 323 389 c 0
 348 390 357 376 350 345 c 0
205 345 m 0
 199 314 183 299 158 299 c 0
 121 299 106 320 115 363 c 0
 125 408 159 444 217 473 c 1
 221 460 l 1
 177 435 153 411 148 386 c 0
 147 382 148 379 152 378 c 1
 159 385 168 389 178 389 c 0
 203 390 212 376 205 345 c 0
EndSplineSet
Back
350.098 345.215 m 0
 344.238 314.453 328.125 298.828 303.223 298.828 c 0
 265.625 298.828 251.465 320.312 259.766 362.793 c 0
 270.02 407.715 304.199 444.336 361.816 473.145 c 1
 366.211 459.961 l 1
 321.777 435.547 297.852 410.645 292.969 386.23 c 0
 291.504 381.836 292.969 379.395 296.875 377.93 c 1
 304.199 385.254 312.988 389.16 323.242 389.16 c 0
 348.145 390.137 357.422 375.488 350.098 345.215 c 0
205.078 345.215 m 0
 199.219 314.453 183.105 298.828 158.203 298.828 c 0
 120.605 298.828 106.445 320.312 115.234 362.793 c 0
 125 407.715 159.18 444.336 216.797 473.145 c 1
 221.191 459.961 l 1
 176.758 435.547 152.832 410.645 147.949 386.23 c 0
 146.484 381.836 147.949 379.395 151.855 377.93 c 1
 159.18 385.254 167.969 389.16 178.223 389.16 c 0
 203.125 390.137 212.402 375.488 205.078 345.215 c 0
EndSplineSet
EndChar
StartChar: quotedblright
Encoding: 148 8221 116
OldEncoding: 8221
Width: 331
Flags: HW
HStem: 303 21<118 118 263 263> 385 92
Fore
365 413 m 0
 355 368 321 332 263 303 c 1
 259 316 l 1
 303 341 327 365 332 390 c 0
 333 394 331 397 328 398 c 1
 321 391 312 387 302 387 c 0
 277 386 268 400 275 431 c 0
 281 462 297 477 322 477 c 0
 359 477 374 456 365 413 c 0
220 413 m 0
 210 368 176 332 118 303 c 1
 114 316 l 1
 158 341 182 365 187 390 c 0
 188 394 186 397 183 398 c 1
 176 391 167 387 157 387 c 0
 132 386 123 400 130 431 c 0
 136 462 152 477 177 477 c 0
 214 477 229 456 220 413 c 0
EndSplineSet
Back
365.234 413.086 m 0
 354.98 368.164 320.801 331.543 263.184 303.223 c 1
 258.789 315.918 l 1
 303.223 340.82 327.148 365.234 332.031 390.137 c 0
 332.52 394.043 331.543 396.484 328.125 397.949 c 1
 320.801 390.625 312.012 387.207 301.758 387.207 c 0
 276.855 385.742 267.578 400.391 274.902 431.152 c 0
 280.762 461.426 296.875 477.051 321.777 477.051 c 0
 359.375 477.051 373.535 455.566 365.234 413.086 c 0
220.215 413.086 m 0
 209.961 368.164 175.781 331.543 118.164 303.223 c 1
 113.77 315.918 l 1
 158.203 340.82 182.129 365.234 187.012 390.137 c 0
 187.5 394.043 186.523 396.484 183.105 397.949 c 1
 175.781 390.625 166.992 387.207 157.227 387.207 c 0
 131.836 385.742 122.559 400.391 129.883 431.152 c 0
 136.23 461.426 151.855 477.051 176.758 477.051 c 0
 214.355 477.051 228.516 455.566 220.215 413.086 c 0
EndSplineSet
EndChar
StartChar: bullet
Encoding: 149 8226 117
OldEncoding: 8226
Width: 270
Flags: HW
HStem: 137 189<177 189>
Fore
278 232 m 0
 267 180 215 137 163 137 c 0
 111 137 78 180 89 232 c 0
 99 284 151 326 203 326 c 0
 255 326 289 284 278 232 c 0
EndSplineSet
Back
277.832 231.934 m 0
 275.391 219.238 270.508 207.031 263.184 195.312 c 0
 255.859 183.594 246.582 173.828 235.84 165.039 c 0
 225.098 156.25 213.867 149.414 201.66 144.531 c 0
 188.965 139.648 176.27 137.207 163.086 137.207 c 0
 137.207 137.207 116.699 146.484 102.539 165.039 c 0
 88.3789 183.594 83.4961 206.055 88.8672 231.934 c 0
 91.7969 245.117 96.6797 257.812 104.004 269.043 c 0
 111.328 280.273 120.117 290.039 130.371 298.34 c 0
 140.625 306.641 152.344 313.477 165.039 318.359 c 0
 177.734 323.73 190.43 326.172 203.125 326.172 c 0
 229.004 326.172 249.512 316.895 264.16 298.34 c 0
 278.809 280.273 283.203 257.812 277.832 231.934 c 0
EndSplineSet
EndChar
StartChar: endash
Encoding: 150 8211 118
OldEncoding: 8211
Width: 551
Flags: HW
HStem: 171 34<86 537 537 537>
Fore
537 171 m 1
 78 171 l 1
 86 205 l 1
 545 205 l 1
 537 171 l 1
EndSplineSet
Back
537.109 170.898 m 1
 78.125 170.898 l 1
 85.9375 205.078 l 1
 544.922 205.078 l 1
 537.109 170.898 l 1
EndSplineSet
EndChar
StartChar: emdash
Encoding: 151 8212 119
OldEncoding: 8212
Width: 1102
Flags: HW
HStem: 171 34<86 1038 1038 1038>
Fore
1038 171 m 1
 78 171 l 1
 86 205 l 1
 1046 205 l 1
 1038 171 l 1
EndSplineSet
Back
1038.09 170.898 m 1
 78.125 170.898 l 1
 85.9375 205.078 l 1
 1045.9 205.078 l 1
 1038.09 170.898 l 1
EndSplineSet
EndChar
StartChar: uni0E31.left
Encoding: 152 -1 120
OldEncoding: 63248
Width: 0
Flags: HW
HStem: 413 157
Fore
149 570 m 1
 140 524 119 487 86 458 c 1
 53 427 -7 413 -51 413 c 0
 -80 413 -120 421 -137 436 c 0
 -157 453 -164 476 -158 505 c 0
 -149 548 -123 570 -82 570 c 0
 -51 570 -40 551 -48 513 c 0
 -55 484 -77 455 -105 455 c 1
 -114 457 l 1
 -103 442 -70 436 -43 436 c 0
 -14 436 36 452 59 483 c 0
 78 508 92 537 99 570 c 1
 149 570 l 1
-69 513 m 0
 -65 533 -70 547 -86 547 c 0
 -102 547 -112 536 -117 513 c 0
 -122 489 -117 477 -101 477 c 0
 -95 477 -88 481 -81 488 c 1
 -76 495 -72 504 -69 513 c 0
EndSplineSet
Back
148.926 569.824 m 1
 139.648 523.926 118.652 486.816 85.9375 458.008 c 0
 69.3359 442.871 47.8516 431.152 21.4844 423.828 c 0
 -4.88281 416.504 -28.8086 413.086 -50.7812 413.086 c 0
 -65.4297 413.086 -81.543 415.039 -98.6328 418.945 c 0
 -115.723 422.852 -128.418 428.711 -137.207 436.035 c 0
 -157.227 453.125 -164.062 476.562 -158.203 504.883 c 0
 -148.438 548.34 -123.535 569.824 -82.0312 569.824 c 0
 -51.2695 569.824 -40.0391 550.781 -47.8516 513.184 c 0
 -51.2695 498.535 -58.1055 484.863 -68.3594 473.145 c 0
 -78.6133 460.938 -90.8203 455.078 -104.98 455.078 c 1
 -113.77 457.031 l 1
 -108.887 449.707 -98.6328 444.336 -84.4727 440.918 c 0
 -70.3125 437.5 -56.1523 436.035 -42.9688 436.035 c 0
 -35.6445 436.035 -27.3438 437.012 -18.0664 438.965 c 0
 -8.78906 440.918 0.488281 443.848 9.76562 448.242 c 0
 19.5312 452.148 28.3203 457.031 37.1094 462.402 c 0
 45.8984 468.262 53.2227 475.098 59.082 482.91 c 0
 78.125 507.812 91.7969 536.621 99.1211 569.824 c 1
 148.926 569.824 l 1
-68.8477 513.184 m 0
 -66.8945 522.949 -67.3828 531.25 -69.8242 537.598 c 0
 -72.7539 543.945 -78.125 546.875 -85.9375 546.875 c 0
 -102.051 546.875 -112.305 535.645 -117.188 513.184 c 0
 -122.559 488.77 -117.188 477.051 -101.074 477.051 c 0
 -95.2148 477.051 -88.3789 480.469 -81.0547 487.793 c 0
 -78.125 491.211 -76.1719 495.117 -74.2188 499.512 c 0
 -71.7773 503.906 -70.3125 508.301 -68.8477 513.184 c 0
EndSplineSet
EndChar
StartChar: uni0E4D.left
Encoding: 153 -1 121
OldEncoding: 63249
Width: 0
Flags: HW
HStem: 440 21<-123.5 -92.5> 535 20<-99.5 -68.5>
Fore
-154 497 m 0
 -147 529 -115 555 -84 555 c 0
 -53 555 -32 529 -39 497 c 0
 -46 465 -77 440 -108 440 c 0
 -139 440 -161 465 -154 497 c 0
-129 497 m 0
 -133 478 -122 465 -103 465 c 0
 -84 465 -68 478 -64 497 c 0
 -61 516 -70 530 -89 530 c 0
 -108 530 -126 516 -129 497 c 0
EndSplineSet
Back
-153.809 497.07 m 0
 -157.227 480.957 -154.297 467.285 -145.02 456.543 c 0
 -135.742 445.312 -123.535 439.941 -107.91 439.941 c 0
 -92.7734 439.941 -78.125 445.312 -64.4531 456.543 c 0
 -50.7812 467.285 -42.4805 480.957 -39.0625 497.07 c 0
 -35.6445 513.184 -38.5742 526.855 -47.3633 538.086 c 0
 -56.6406 549.316 -68.8477 555.176 -83.9844 555.176 c 0
 -99.1211 555.176 -113.77 549.316 -127.93 538.086 c 0
 -142.09 526.855 -150.879 513.184 -153.809 497.07 c 0
-128.906 497.07 m 0
 -127.441 506.348 -123.047 514.16 -115.234 520.508 c 0
 -106.934 526.855 -98.1445 529.785 -88.8672 529.785 c 0
 -79.5898 529.785 -72.7539 526.855 -68.3594 520.508 c 0
 -63.9648 514.16 -62.5 506.348 -63.9648 497.07 c 0
 -65.918 487.793 -70.8008 479.98 -78.125 474.121 c 0
 -85.4492 467.773 -93.75 464.844 -103.027 464.844 c 0
 -112.305 464.844 -119.629 467.773 -124.512 474.121 c 0
 -129.395 479.98 -130.859 487.793 -128.906 497.07 c 0
EndSplineSet
EndChar
